{
.appVersion = "3418";
.formatVersion = 3;
DisplayStrings = (
INVhsbonndnnlnognnnrpqWMHB,
"AÆE",
"a/Placeholder a b/Placeholder b c/Placeholder c d/Placeholder d e/Placeholder e f/Placeholder f g/Placeholder g h/Placeholder h i/Placeholder i jjj k/Placeholder k l/Placeholder l m/Placeholder m n/Placeholder n o/Placeholder o p/Placeholder p q/Placeholder q r/Placeholder r s/Placeholder s t/Placeholder t u/Placeholder u v/Placeholder v w/Placeholder w x/Placeholder x y/Placeholder y z/Placeholder z
nnhnonnmonnn/Placeholder no/Placeholder oonnnmhnomnh

abcdefghijklmnopqrstuvwxyz

fear fall kilo long ovoide want wind oxo zapato

Twombli Tgmaiwan Taiwan Tomato Temperture Tiro Twardock Walking Wonder Wc Wd Wrcnder You Family Fear Furor Vocal Viajar Zusam Pearl Point Pain Ayuda 
Kilo Londres Leon Lio Month Lyon Tt Valor

Thng Tt tt Nht Vng Đng Bt Đc k. ngi Ngng",
".:…,?!¡¿",
"HH/Placeholder HO/Placeholder OOFAF GAG
A/Placeholder A B/Placeholder B C/Placeholder C D/Placeholder D E/Placeholder E F/Placeholder F G/Placeholder G H/Placeholder H I/Placeholder I  J/Placeholder J K/Placeholder K L/Placeholder L M/Placeholder M N/Placeholder N O/Placeholder O P/Placeholder P Q/Placeholder Q R/Placeholder R S/Placeholder S T/Placeholder T U/Placeholder U V/Placeholder V W/Placeholder W X/Placeholder X Y/Placeholder Y Z/Placeholder Z HH/Placeholder HO/Placeholder OO

ABCDEFGHIJKLMNOPQRSTUVWXYZ

ADD AFAIK AGRADO ALTAR ALVARO AMAYA ARVO AUSTRAL AVATAR AVIÓN AWARD AYUDA AYUNO BAOARLEY CHERVIL FALAZ FAMILY FAVOR FOLD FOSFORO HOYO KALE KELLOGS KILO KUNST LONDRES LYCHEE LYON MARVELOUS MONTH MUG MY OVOIDE OXATAIL OXO PAIN PATO PIZZA POINT RAYA ROTO RYAN SQUASH SXS TAIWAN TALL TARA TEMPERTURE TERMO TÌNH TIRO TOFU TOMATO TUVO TWARDOCK TWOMBLI UPPUMA VACA VANILLA VARIAR VELOCIDAD VIAJAR VIENE VOLCAN WALKING WALS WC WD WHEAT WINSTON WONDER WULC XERGIS XEROX YALE YEYO YIN YOGURT YOU ZUCCHINI ZWEIBACK NGI THY VNG TRI

VY CHY ĐT T THNG TY 

"
);
customParameters = (
{
name = vendorID;

glyphs = (
{
glyphname = .notdef;
lastChange = "2025-07-10 17:01:01 +0000";
layers = (
{
layerId = m01;
shapes = (
{
closed = 1;
nodes = (
(664,0,l),
(664,639,l),
(81,639,l),
(81,0,l)
);
},
{
closed = 1;
nodes = (
(163,479,l),
(208,523,l),
(373,358,l),
(533,519,l),
(576,476,l),
(416,315,l),
(580,150,l),
(535,106,l),
(371,271,l),
(210,110,l),
(167,153,o),
(167,153,q),
(328,314,l)
);
}
);
userData = {
assembly = "NPUSHB[ ]	/* 6 values pushed */
14 8 0 2 2 13
CALL[ ]	/* CallFunction */";
};
width = 746;
},
{
layerId = "6B1252CF-E426-46DC-A9C6-391C8BFD5F20";
shapes = (
{
closed = 1;
nodes = (
(1360,0,l),
(1360,1307,l),
(170,1307,l),
(170,0,l)
);
},
{
closed = 1;
nodes = (
(665,642,l),
(326,982,l),
(426,1082,l),
(765,742,l),
(1096,1073,l),
(1193,976,l),
(862,645,l),
(1201,305,l),
(1101,205,l),
(762,545,l),
(431,214,l),
(334,311,l)
);
}
);
width = 1528;
}
);
note = .notdef;
},
{
glyphname = exclam;
lastChange = "2025-07-10 17:01:01 +0000";
layers = (
{
layerId = m01;
shapes = (
{
closed = 1;
nodes = (
(104,775,l),
(83,775,o),
(83,755,qs),
(83,742,o),
(93,690,o),
(97,664,qs),
(107,585,ls),
(115,534,o),
(133,369,qs),
(138,330,o),
(144,265,o),
(155,230,o),
(178,230,o),
(189,265,o),
(196,331,o),
(201,372,qs),
(221,542,ls),
(227,587,o),
(238,671,qs),
(242,697,o),
(251,743,o),
(251,755,qs),
(251,775,o),
(230,775,q),
(167,771,l)
);
},
{
closed = 1;
nodes = (
(149,-12,o),
(197,-12,o),
(218,7,qs),
(228,16,o),
(240,41,o),
(240,84,o),
(222,105,qs),
(213,116,o),
(187,129,o),
(137,129,o),
(116,107,qs),
(106,98,o),
(96,71,o),
(96,46,o),
(104,21,o),
(122,1,o)
);
}
);
userData = {
assembly = "NPUSHB[ ]	/* 14 values pushed */
1 0 39 38 31 30 12 11 0 24 1 22 5 8
CALL[ ]	/* CallFunction */
MPPEM[ ]	/* MeasurePixelPerEm */
PUSHB[ ]	/* 1 value pushed */
9
LT[ ]	/* LessThan */
IF[ ]	/* If */
NPUSHB[ ]	/* 27 values pushed */
0 1 1 0 1 0 39 4 1 0 0 12 34 0 2 2 3 1 0 39 0 3 3 13 3 35 4
ELSE[ ]	/* Else */
MPPEM[ ]	/* MeasurePixelPerEm */
PUSHB[ ]	/* 1 value pushed */
13
LT[ ]	/* LessThan */
IF[ ]	/* If */
NPUSHB[ ]	/* 27 values pushed */
0 1 1 0 1 0 39 4 1 0 0 12 34 0 2 2 3 1 0 39 0 3 3 16 3 35 4
ELSE[ ]	/* Else */
MPPEM[ ]	/* MeasurePixelPerEm */
PUSHB[ ]	/* 1 value pushed */
17
LT[ ]	/* LessThan */
IF[ ]	/* If */
NPUSHB[ ]	/* 27 values pushed */
0 1 1 0 1 0 39 4 1 0 0 12 34 0 2 2 3 1 0 39 0 3 3 13 3 35 4
ELSE[ ]	/* Else */
MPPEM[ ]	/* MeasurePixelPerEm */
PUSHB[ ]	/* 1 value pushed */
21
LT[ ]	/* LessThan */
IF[ ]	/* If */
NPUSHB[ ]	/* 27 values pushed */
0 1 1 0 1 0 39 4 1 0 0 12 34 0 2 2 3 1 0 39 0 3 3 16 3 35 4
ELSE[ ]	/* Else */
NPUSHB[ ]	/* 27 values pushed */
0 1 1 0 1 0 39 4 1 0 0 12 34 0 2 2 3 1 0 39 0 3 3 13 3 35 4
EIF[ ]	/* EndIf */
EIF[ ]	/* EndIf */
EIF[ ]	/* EndIf */
EIF[ ]	/* EndIf */
PUSHB[ ]	/* 1 value pushed */
59
CALL[ ]	/* CallFunction */";
};
width = 334;
},
{
layerId = "6B1252CF-E426-46DC-A9C6-391C8BFD5F20";
shapes = (
{
closed = 1;
nodes = (
(206,1561,l),
(170,1561,o),
(170,1527,qs),
(170,1501,o),
(186,1415,qs),
(196,1366,o),
(215,1216,qs),
(235,1062,ls),
(245,978,o),
(272,743,qs),
(281,664,o),
(293,532,o),
(312,467,o),
(335,467,qs),
(358,467,o),
(376,532,o),
(400,780,o),
(439,1093,qs),
(450,1185,o),
(474,1357,qs),
(482,1409,o),
(500,1504,o),
(500,1527,qs),
(500,1561,o),
(464,1561,q),
(336,1553,l)
);
},
{
closed = 1;
nodes = (
(299,-24,o),
(394,-24,o),
(434,12,qs),
(454,30,o),
(477,79,o),
(477,164,o),
(443,206,qs),
(426,227,o),
(374,253,o),
(277,253,o),
(235,210,qs),
(216,190,o),
(195,139,o),
(195,89,o),
(211,41,o),
(246,2,o)
);
}
);
width = 670;
}
);
note = exclam;
unicode = 33;
},
{
glyphname = numbersign;
lastChange = "2025-07-10 17:01:01 +0000";
layers = (
{
layerId = m01;
shapes = (
{
closed = 1;
nodes = (
(211,10,o),
(214,24,qs),
(266,248,l),
(431,248,l),
(392,81,ls),
(388,65,o),
(386,56,qs),
(383,39,ls),
(381,33,o),
(381,26,o),
(381,10,o),
(398,-12,o),
(431,-12,o),
(453,10,o),
(457,24,qs),
(508,248,l),
(609,248,ls),
(626,248,o),
(651,268,o),
(651,302,o),
(625,321,o),
(608,321,qs),
(525,321,l),
(556,454,l),
(659,454,ls),
(676,454,o),
(701,474,o),
(701,509,o),
(675,527,o),
(658,527,qs),
(573,527,l),
(613,701,ls),
(619,729,o),
(619,748,qs),
(619,758,o),
(600,775,o),
(587,775,qs),
(553,775,o),
(538,706,qs),
(496,527,l),
(332,527,l),
(372,701,ls),
(377,729,o),
(377,748,qs),
(377,758,o),
(358,775,o),
(337,775,o),
(330,771,qs),
(310,761,o),
(296,706,qs),
(254,527,l),
(129,527,ls),
(113,527,o),
(86,509,o),
(86,474,o),
(112,454,o),
(128,454,qs),
(237,454,l),
(206,321,l),
(85,321,ls),
(68,321,o),
(42,302,o),
(42,268,o),
(67,248,o),
(84,248,qs),
(189,248,l),
(150,81,ls),
(146,65,o),
(144,56,qs),
(141,39,ls),
(140,33,o),
(139,26,o),
(139,10,o),
(157,-12,o),
(189,-12,o)
);
},
{
closed = 1;
nodes = (
(314,454,l),
(479,454,l),
(447,321,l),
(283,321,l)
);
}
);
userData = {
assembly = "NPUSHB[ ]	/* 42 values pushed */
75 75 0 0 75 78 75 78 77 76 0 74 0 74 71 70 62 61 58 56 53 51 50 48 45 43 38 36 34 33 28 27 23 21 18 16 15 13 10 8 18 8
CALL[ ]	/* CallFunction */
MPPEM[ ]	/* MeasurePixelPerEm */
PUSHB[ ]	/* 1 value pushed */
9
LT[ ]	/* LessThan */
IF[ ]	/* If */
NPUSHB[ ]	/* 46 values pushed */
17 15 9 3 1 12 10 2 0 11 1 0 1 0 41 6 1 4 4 12 34 14 8 2 2 2 3 1 0 39 7 5 2 3 3 15 34 16 13 2 11 11 13 11 35 5
ELSE[ ]	/* Else */
MPPEM[ ]	/* MeasurePixelPerEm */
PUSHB[ ]	/* 1 value pushed */
11
LT[ ]	/* LessThan */
IF[ ]	/* If */
NPUSHB[ ]	/* 46 values pushed */
17 15 9 3 1 12 10 2 0 11 1 0 1 0 41 6 1 4 4 12 34 14 8 2 2 2 3 1 0 39 7 5 2 3 3 21 34 16 13 2 11 11 16 11 35 5
ELSE[ ]	/* Else */
MPPEM[ ]	/* MeasurePixelPerEm */
PUSHB[ ]	/* 1 value pushed */
13
LT[ ]	/* LessThan */
IF[ ]	/* If */
NPUSHB[ ]	/* 46 values pushed */
17 15 9 3 1 12 10 2 0 11 1 0 1 0 41 6 1 4 4 12 34 14 8 2 2 2 3 1 0 39 7 5 2 3 3 15 34 16 13 2 11 11 16 11 35 5
ELSE[ ]	/* Else */
MPPEM[ ]	/* MeasurePixelPerEm */
PUSHB[ ]	/* 1 value pushed */
17
LT[ ]	/* LessThan */
IF[ ]	/* If */
NPUSHB[ ]	/* 46 values pushed */
17 15 9 3 1 12 10 2 0 11 1 0 1 0 41 6 1 4 4 12 34 14 8 2 2 2 3 1 0 39 7 5 2 3 3 21 34 16 13 2 11 11 13 11 35 5
ELSE[ ]	/* Else */
MPPEM[ ]	/* MeasurePixelPerEm */
PUSHB[ ]	/* 1 value pushed */
21
LT[ ]	/* LessThan */
IF[ ]	/* If */
NPUSHB[ ]	/* 46 values pushed */
17 15 9 3 1 12 10 2 0 11 1 0 1 0 41 6 1 4 4 12 34 14 8 2 2 2 3 1 0 39 7 5 2 3 3 21 34 16 13 2 11 11 16 11 35 5
ELSE[ ]	/* Else */
NPUSHB[ ]	/* 46 values pushed */
17 15 9 3 1 12 10 2 0 11 1 0 1 0 41 6 1 4 4 12 34 14 8 2 2 2 3 1 0 39 7 5 2 3 3 21 34 16 13 2 11 11 13 11 35 5
EIF[ ]	/* EndIf */
EIF[ ]	/* EndIf */
EIF[ ]	/* EndIf */
EIF[ ]	/* EndIf */
EIF[ ]	/* EndIf */
PUSHB[ ]	/* 1 value pushed */
59
CALL[ ]	/* CallFunction */";
};
width = 745;
},
{
layerId = "6B1252CF-E426-46DC-A9C6-391C8BFD5F20";
shapes = (
{
closed = 1;
nodes = (
(434,17,o),
(440,44,qs),
(546,503,l),
(889,503,l),
(809,159,ls),
(794,96,o),
(790,72,qs),
(788,60,o),
(787,47,o),
(787,17,o),
(820,-24,o),
(883,-24,o),
(924,17,o),
(930,44,qs),
(1036,503,l),
(1245,503,ls),
(1277,503,o),
(1326,540,o),
(1326,606,o),
(1275,640,o),
(1243,640,qs),
(1068,640,l),
(1134,921,l),
(1345,921,ls),
(1377,921,o),
(1426,958,o),
(1426,1024,o),
(1375,1058,o),
(1343,1058,qs),
(1166,1058,l),
(1249,1417,ls),
(1254,1436,o),
(1258,1466,qs),
(1259,1478,o),
(1261,1497,o),
(1261,1529,o),
(1223,1561,o),
(1185,1561,o),
(1172,1556,qs),
(1133,1539,o),
(1106,1425,qs),
(1019,1058,l),
(676,1058,l),
(759,1417,ls),
(764,1436,o),
(768,1466,qs),
(769,1478,o),
(771,1497,o),
(771,1529,o),
(733,1561,o),
(695,1561,o),
(682,1556,qs),
(643,1539,o),
(616,1425,qs),
(529,1058,l),
(273,1058,ls),
(241,1058,o),
(190,1024,o),
(190,958,o),
(239,921,o),
(271,921,qs),
(497,921,l),
(431,640,l),
(183,640,ls),
(151,640,o),
(100,606,o),
(100,540,o),
(149,503,o),
(181,503,qs),
(399,503,l),
(319,159,ls),
(304,96,o),
(300,72,qs),
(298,60,o),
(297,47,o),
(297,17,o),
(330,-24,o),
(393,-24,o)
);
},
{
closed = 1;
nodes = (
(644,921,l),
(987,921,l),
(921,640,l),
(578,640,l)
);
}
);
width = 1526;
}
);
note = numbersign;
unicode = 35;
},
{
glyphname = dollar;
lastChange = "2025-07-10 17:01:01 +0000";
layers = (
{
layerId = m01;
shapes = (
{
closed = 1;
nodes = (
(315,-141,o),
(343,-141,qs),
(368,-141,o),
(368,-103,qs),
(368,-11,l),
(491,-6,o),
(562,54,qs),
(596,82,o),
(632,162,o),
(632,252,o),
(618,289,qs),
(574,401,o),
(368,453,q),
(368,712,l),
(502,700,o),
(560,583,qs),
(566,569,o),
(576,556,o),
(583,556,qs),
(598,556,o),
(598,598,o),
(582,663,qs),
(570,708,o),
(567,756,qs),
(566,775,o),
(560,786,o),
(543,786,o),
(525,762,qs),
(514,747,o),
(507,748,qs),
(504,748,o),
(495,752,qs),
(440,772,o),
(368,774,q),
(368,865,ls),
(368,904,o),
(315,904,o),
(315,865,qs),
(315,773,l),
(201,764,o),
(138,700,qs),
(82,644,o),
(82,564,qs),
(82,485,o),
(134,429,qs),
(193,365,o),
(315,334,q),
(315,54,l),
(229,64,o),
(181,120,qs),
(157,146,o),
(129,219,o),
(121,293,o),
(105,293,qs),
(85,293,o),
(85,234,qs),
(85,63,l),
(211,-3,o),
(315,-10,q),
(315,-101,ls)
);
},
{
closed = 1;
nodes = (
(275,482,o),
(250,498,qs),
(185,540,o),
(185,611,qs),
(185,698,o),
(315,711,q),
(315,468,l)
);
},
{
closed = 1;
nodes = (
(453,298,o),
(490,258,qs),
(509,239,o),
(525,196,o),
(525,145,o),
(518,124,qs),
(496,56,o),
(368,52,q),
(368,321,l)
);
}
);
userData = {
assembly = "NPUSHB[ ]	/* 22 values pushed */
68 67 58 56 54 53 41 39 33 32 29 28 26 25 23 22 6 4 1 0 10 8
CALL[ ]	/* CallFunction */
MPPEM[ ]	/* MeasurePixelPerEm */
PUSHB[ ]	/* 1 value pushed */
19
LT[ ]	/* LessThan */
IF[ ]	/* If */
NPUSHB[ ]	/* 82 values pushed */
20 1 3 2 35 1 4 3 60 45 2 6 4 75 66 46 12 4 1 6 2 1 9 1 11 1 0 9 6 33 0 4 3 6 3 4 6 53 0 6 1 3 6 1 51 0 1 9 3 1 9 51 0 2 0 8 2 8 1 0 40 5 1 3 3 12 34 0 9 9 0 1 2 39 7 1 0 0 13 0 35 8
ELSE[ ]	/* Else */
NPUSHB[ ]	/* 86 values pushed */
20 1 3 5 35 1 4 3 60 45 2 6 4 75 66 46 12 4 1 6 2 1 9 1 11 1 0 9 6 33 0 4 3 6 3 4 6 53 0 6 1 3 6 1 51 0 1 9 3 1 9 51 0 2 0 8 2 8 1 0 40 0 5 5 18 34 0 3 3 12 34 0 9 9 0 1 2 39 7 1 0 0 13 0 35 9
EIF[ ]	/* EndIf */
PUSHB[ ]	/* 1 value pushed */
59
CALL[ ]	/* CallFunction */";
};
width = 707;
},
{
layerId = "6B1252CF-E426-46DC-A9C6-391C8BFD5F20";
shapes = (
{
closed = 1;
nodes = (
(677,-285,o),
(728,-285,qs),
(774,-285,o),
(774,-213,qs),
(774,-22,l),
(1023,-14,o),
(1168,106,qs),
(1237,164,o),
(1310,324,o),
(1310,507,o),
(1283,580,qs),
(1199,809,o),
(774,910,q),
(774,1464,l),
(1045,1445,o),
(1173,1181,qs),
(1197,1128,o),
(1215,1128,qs),
(1240,1128,o),
(1240,1203,o),
(1216,1304,qs),
(1201,1363,o),
(1190,1424,qs),
(1185,1456,o),
(1179,1510,o),
(1176,1584,o),
(1151,1584,qs),
(1137,1584,o),
(1102,1536,qs),
(1081,1507,o),
(1056,1507,qs),
(1046,1507,o),
(1024,1514,qs),
(996,1524,ls),
(898,1557,o),
(774,1560,q),
(774,1749,ls),
(774,1823,o),
(723,1823,qs),
(677,1823,o),
(677,1748,qs),
(677,1558,l),
(448,1541,o),
(318,1412,qs),
(203,1298,o),
(203,1138,qs),
(203,981,o),
(309,867,qs),
(430,737,o),
(677,677,q),
(677,78,l),
(585,88,o),
(515,126,qs),
(311,235,o),
(279,529,q),
(270,585,o),
(247,585,qs),
(211,585,o),
(211,470,qs),
(211,125,l),
(461,-8,o),
(677,-21,q),
(677,-210,ls)
);
},
{
closed = 1;
nodes = (
(510,988,o),
(440,1068,qs),
(408,1106,o),
(383,1189,o),
(383,1278,o),
(402,1318,qs),
(465,1444,o),
(677,1462,q),
(677,936,l)
);
},
{
closed = 1;
nodes = (
(1122,558,o),
(1122,344,qs),
(1122,86,o),
(774,75,q),
(774,653,l)
);
}
);
width = 1447;
}
);
note = dollar;
unicode = 36;
},
{
glyphname = percent;
lastChange = "2025-07-10 17:01:01 +0000";
layers = (
{
layerId = m01;
shapes = (
{
closed = 1;
nodes = (
(229,23,qs),
(755,700,ls),
(778,730,o),
(778,750,qs),
(778,760,o),
(761,775,o),
(734,775,o),
(709,754,o),
(691,730,qs),
(183,77,ls),
(149,34,o),
(149,15,qs),
(149,4,o),
(166,-12,o),
(201,-12,o)
);
},
{
closed = 1;
nodes = (
(373,469,qs),
(429,520,o),
(429,604,qs),
(429,678,o),
(378,725,qs),
(325,775,o),
(242,775,qs),
(163,775,o),
(108,723,qs),
(54,670,o),
(54,598,qs),
(54,528,o),
(96,479,qs),
(118,454,o),
(190,421,o),
(235,421,qs),
(320,421,o)
);
},
{
closed = 1;
nodes = (
(151,592,o),
(151,653,o),
(157,673,qs),
(174,730,o),
(225,730,qs),
(267,730,o),
(298,684,qs),
(313,662,o),
(331,602,o),
(331,512,o),
(311,486,qs),
(301,474,o),
(277,464,o),
(243,464,o),
(203,489,o),
(171,532,o)
);
},
{
closed = 1;
nodes = (
(529,47,qs),
(580,-12,o),
(677,-12,qs),
(754,-12,o),
(807,36,qs),
(862,87,o),
(862,171,qs),
(862,244,o),
(813,292,qs),
(761,342,o),
(676,342,qs),
(597,342,o),
(542,289,qs),
(517,265,o),
(488,201,o),
(488,168,qs),
(488,95,o)
);
},
{
closed = 1;
nodes = (
(659,298,qs),
(700,298,o),
(731,251,qs),
(747,229,o),
(765,168,o),
(765,103,o),
(759,84,qs),
(744,31,o),
(698,31,qs),
(654,31,o),
(621,78,qs),
(605,100,o),
(586,159,o),
(586,220,o),
(592,240,qs),
(608,298,o)
);
}
);
userData = {
assembly = "NPUSHB[ ]	/* 30 values pushed */
16 15 0 0 80 78 72 70 62 60 54 52 43 41 34 33 25 23 15 31 16 31 0 14 0 14 8 7 12 8
CALL[ ]	/* CallFunction */
MPPEM[ ]	/* MeasurePixelPerEm */
PUSHB[ ]	/* 1 value pushed */
9
LT[ ]	/* LessThan */
IF[ ]	/* If */
NPUSHB[ ]	/* 50 values pushed */
0 4 11 1 2 6 4 2 1 0 41 0 6 0 9 8 6 9 1 0 41 0 5 5 0 1 0 39 3 1 0 0 12 34 0 8 8 1 1 2 39 7 10 2 1 1 13 1 35 6
ELSE[ ]	/* Else */
MPPEM[ ]	/* MeasurePixelPerEm */
PUSHB[ ]	/* 1 value pushed */
13
LT[ ]	/* LessThan */
IF[ ]	/* If */
NPUSHB[ ]	/* 50 values pushed */
0 4 11 1 2 6 4 2 1 0 41 0 6 0 9 8 6 9 1 0 41 0 5 5 0 1 0 39 3 1 0 0 12 34 0 8 8 1 1 2 39 7 10 2 1 1 16 1 35 6
ELSE[ ]	/* Else */
MPPEM[ ]	/* MeasurePixelPerEm */
PUSHB[ ]	/* 1 value pushed */
17
LT[ ]	/* LessThan */
IF[ ]	/* If */
NPUSHB[ ]	/* 50 values pushed */
0 4 11 1 2 6 4 2 1 0 41 0 6 0 9 8 6 9 1 0 41 0 5 5 0 1 0 39 3 1 0 0 12 34 0 8 8 1 1 2 39 7 10 2 1 1 13 1 35 6
ELSE[ ]	/* Else */
MPPEM[ ]	/* MeasurePixelPerEm */
PUSHB[ ]	/* 1 value pushed */
21
LT[ ]	/* LessThan */
IF[ ]	/* If */
NPUSHB[ ]	/* 50 values pushed */
0 4 11 1 2 6 4 2 1 0 41 0 6 0 9 8 6 9 1 0 41 0 5 5 0 1 0 39 3 1 0 0 12 34 0 8 8 1 1 2 39 7 10 2 1 1 16 1 35 6
ELSE[ ]	/* Else */
NPUSHB[ ]	/* 50 values pushed */
0 4 11 1 2 6 4 2 1 0 41 0 6 0 9 8 6 9 1 0 41 0 5 5 0 1 0 39 3 1 0 0 12 34 0 8 8 1 1 2 39 7 10 2 1 1 13 1 35 6
EIF[ ]	/* EndIf */
EIF[ ]	/* EndIf */
EIF[ ]	/* EndIf */
EIF[ ]	/* EndIf */
PUSHB[ ]	/* 1 value pushed */
59
CALL[ ]	/* CallFunction */";
};
width = 916;
},
{
layerId = "6B1252CF-E426-46DC-A9C6-391C8BFD5F20";
shapes = (
{
closed = 1;
nodes = (
(430,-13,o),
(475,44,qs),
(1543,1417,ls),
(1589,1477,o),
(1589,1514,qs),
(1589,1533,o),
(1556,1561,o),
(1519,1561,o),
(1508,1557,qs),
(1475,1546,o),
(1422,1473,q),
(356,104,ls),
(343,86,o),
(330,59,o),
(325,38,o),
(325,5,o),
(354,-24,o),
(392,-24,o)
);
},
{
closed = 1;
nodes = (
(768,950,qs),
(880,1052,o),
(880,1219,qs),
(880,1365,o),
(780,1462,qs),
(676,1561,o),
(506,1561,qs),
(349,1561,o),
(239,1456,qs),
(130,1353,o),
(130,1207,qs),
(130,1067,o),
(214,970,qs),
(258,919,o),
(403,854,o),
(492,854,qs),
(663,854,o)
);
},
{
closed = 1;
nodes = (
(319,1194,o),
(319,1321,o),
(331,1362,qs),
(367,1482,o),
(472,1482,qs),
(558,1482,o),
(624,1386,qs),
(655,1340,o),
(692,1215,o),
(692,1028,o),
(650,976,qs),
(630,952,o),
(579,931,o),
(508,931,o),
(424,982,o),
(359,1072,o)
);
},
{
closed = 1;
nodes = (
(1094,92,qs),
(1194,-24,o),
(1388,-24,qs),
(1543,-24,o),
(1648,72,qs),
(1760,174,o),
(1760,341,qs),
(1760,487,o),
(1660,584,qs),
(1556,683,o),
(1386,683,qs),
(1229,683,o),
(1119,578,qs),
(1068,530,o),
(1010,401,o),
(1010,335,qs),
(1010,189,o)
);
},
{
closed = 1;
nodes = (
(1352,604,qs),
(1438,604,o),
(1504,508,qs),
(1572,408,o),
(1572,263,qs),
(1572,53,o),
(1432,53,qs),
(1341,53,o),
(1272,149,qs),
(1239,194,o),
(1199,316,o),
(1199,443,o),
(1211,484,qs),
(1247,604,o)
);
}
);
width = 1890;
}
);
note = percent;
unicode = 37;
},
{
glyphname = ampersand;
lastChange = "2025-07-10 17:01:01 +0000";
layers = (
{
layerId = m01;
shapes = (
{
closed = 1;
nodes = (
(683,-2,o),
(702,-2,qs),
(751,0,l),
(821,-4,l),
(875,-4,o),
(875,23,qs),
(875,30,o),
(864,39,o),
(855,39,q),
(831,35,l),
(802,35,o),
(787,51,qs),
(647,188,l),
(700,252,o),
(750,343,q),
(779,404,o),
(815,405,q),
(839,402,l),
(847,402,o),
(862,420,o),
(862,450,o),
(854,458,qs),
(849,462,o),
(833,467,o),
(802,467,o),
(769,460,o),
(729,460,o),
(684,467,o),
(656,467,qs),
(601,467,o),
(601,436,qs),
(601,420,o),
(615,403,o),
(625,403,q),
(657,406,l),
(689,406,o),
(689,382,qs),
(689,324,o),
(610,224,q),
(500,327,ls),
(451,374,o),
(414,413,q),
(591,489,o),
(591,627,qs),
(591,692,o),
(542,733,qs),
(490,777,o),
(396,777,qs),
(291,777,o),
(229,724,qs),
(202,700,o),
(174,637,o),
(174,580,o),
(178,558,qs),
(190,489,o),
(269,403,q),
(169,359,o),
(125,307,qs),
(83,257,o),
(83,184,qs),
(83,101,o),
(149,46,qs),
(218,-11,o),
(331,-11,qs),
(461,-11,o),
(574,101,q),
(663,16,ls)
);
},
{
closed = 1;
nodes = (
(307,539,o),
(300,550,qs),
(282,579,o),
(282,618,qs),
(282,660,o),
(311,688,qs),
(339,716,o),
(381,716,qs),
(423,716,o),
(449,690,qs),
(464,676,o),
(483,628,o),
(483,563,o),
(461,526,qs),
(432,480,o),
(379,451,q),
(318,524,ls)
);
},
{
closed = 1;
nodes = (
(303,367,q),
(537,137,l),
(459,62,o),
(359,62,qs),
(286,62,o),
(245,96,qs),
(225,113,o),
(202,165,o),
(202,192,qs),
(202,306,o)
);
}
);
userData = {
assembly = "NPUSHB[ ]	/* 30 values pushed */
90 88 76 74 65 61 58 57 56 55 50 49 48 47 42 41 40 39 38 36 33 32 31 30 19 17 3 1 14 8
CALL[ ]	/* CallFunction */
MPPEM[ ]	/* MeasurePixelPerEm */
PUSHB[ ]	/* 1 value pushed */
13
LT[ ]	/* LessThan */
IF[ ]	/* If */
NPUSHB[ ]	/* 72 values pushed */
67 24 2 2 4 92 91 53 27 10 0 6 13 2 2 33 6 5 2 4 8 7 3 3 2 13 4 2 1 0 41 0 12 12 1 1 0 39 0 1 1 12 34 0 13 13 0 1 0 39 11 1 0 0 13 34 10 1 9 9 0 1 2 39 11 1 0 0 13 0 35 8
ELSE[ ]	/* Else */
MPPEM[ ]	/* MeasurePixelPerEm */
PUSHB[ ]	/* 1 value pushed */
17
LT[ ]	/* LessThan */
IF[ ]	/* If */
NPUSHB[ ]	/* 72 values pushed */
67 24 2 2 4 92 91 53 27 10 0 6 13 2 2 33 6 5 2 4 8 7 3 3 2 13 4 2 1 0 41 0 12 12 1 1 0 39 0 1 1 12 34 0 13 13 0 1 0 39 11 1 0 0 16 34 10 1 9 9 0 1 2 39 11 1 0 0 16 0 35 8
ELSE[ ]	/* Else */
MPPEM[ ]	/* MeasurePixelPerEm */
PUSHB[ ]	/* 1 value pushed */
21
LT[ ]	/* LessThan */
IF[ ]	/* If */
NPUSHB[ ]	/* 72 values pushed */
67 24 2 2 4 92 91 53 27 10 0 6 13 2 2 33 6 5 2 4 8 7 3 3 2 13 4 2 1 0 41 0 12 12 1 1 0 39 0 1 1 12 34 0 13 13 0 1 0 39 11 1 0 0 13 34 10 1 9 9 0 1 2 39 11 1 0 0 13 0 35 8
ELSE[ ]	/* Else */
NPUSHB[ ]	/* 72 values pushed */
67 24 2 2 4 92 91 53 27 10 0 6 13 2 2 33 6 5 2 4 8 7 3 3 2 13 4 2 1 0 41 0 12 12 1 1 0 39 0 1 1 12 34 0 13 13 0 1 0 39 11 1 0 0 16 34 10 1 9 9 0 1 2 39 11 1 0 0 16 0 35 8
EIF[ ]	/* EndIf */
EIF[ ]	/* EndIf */
EIF[ ]	/* EndIf */
PUSHB[ ]	/* 1 value pushed */
59
CALL[ ]	/* CallFunction */";
};
width = 918;
},
{
layerId = "6B1252CF-E426-46DC-A9C6-391C8BFD5F20";
shapes = (
{
closed = 1;
nodes = (
(1289,42,o),
(1324,19,qs),
(1340,8,o),
(1372,-2,o),
(1426,2,qs),
(1439,3,o),
(1467,5,o),
(1479,5,qs),
(1620,-3,l),
(1723,-3,o),
(1723,49,qs),
(1723,74,o),
(1690,74,q),
(1640,66,l),
(1579,66,o),
(1546,99,qs),
(1263,374,l),
(1366,520,o),
(1476,750,qs),
(1534,871,o),
(1617,871,q),
(1666,864,l),
(1698,864,o),
(1698,892,qs),
(1698,910,o),
(1658,937,o),
(1595,937,o),
(1543,928,qs),
(1513,923,o),
(1479,923,q),
(1286,937,l),
(1232,937,o),
(1188,910,o),
(1188,893,qs),
(1188,865,o),
(1221,865,qs),
(1234,865,o),
(1250,870,qs),
(1260,874,o),
(1287,874,qs),
(1358,874,o),
(1358,820,qs),
(1358,673,o),
(1194,439,q),
(963,657,ls),
(861,753,o),
(785,834,q),
(1149,989,o),
(1149,1261,qs),
(1149,1392,o),
(1051,1474,qs),
(945,1561,o),
(759,1561,qs),
(545,1561,o),
(424,1454,qs),
(368,1406,o),
(312,1280,o),
(312,1166,o),
(320,1122,qs),
(346,988,o),
(509,811,q),
(304,720,o),
(216,617,qs),
(130,516,o),
(130,368,qs),
(130,203,o),
(262,94,qs),
(400,-19,o),
(626,-19,qs),
(904,-19,o),
(1123,204,q),
(1227,102,ls)
);
},
{
closed = 1;
nodes = (
(552,1145,qs),
(522,1205,o),
(522,1293,qs),
(522,1380,o),
(576,1432,qs),
(631,1486,o),
(719,1486,qs),
(801,1486,o),
(860,1418,qs),
(890,1382,o),
(930,1273,o),
(930,1133,o),
(889,1060,qs),
(834,963,o),
(724,903,q),
(602,1046,o)
);
},
{
closed = 1;
nodes = (
(372,253,o),
(372,410,qs),
(372,495,o),
(414,580,qs),
(467,684,o),
(571,746,q),
(1054,272,l),
(859,81,o),
(683,81,qs),
(537,81,o)
);
}
);
width = 1803;
}
);
note = ampersand;
unicode = 38;
},
{
glyphname = quotesingle;
lastChange = "2025-07-10 17:01:01 +0000";
layers = (
{
layerId = m01;
shapes = (
{
closed = 1;
nodes = (
(148,457,q),
(183,457,l),
(193,508,o),
(203,547,qs),
(219,617,ls),
(225,647,o),
(233,693,o),
(233,741,o),
(197,775,o),
(143,775,o),
(104,741,o),
(104,686,o),
(118,617,qs),
(132,547,ls),
(140,508,o)
);
}
);
userData = {
assembly = "NPUSHB[ ]	/* 6 values pushed */
13 12 5 4 2 8
CALL[ ]	/* CallFunction */
NPUSHB[ ]	/* 14 values pushed */
0 1 1 0 1 0 39 0 0 0 12 1 35 2
PUSHB[ ]	/* 1 value pushed */
59
CALL[ ]	/* CallFunction */";
};
width = 332;
},
{
layerId = "6B1252CF-E426-46DC-A9C6-391C8BFD5F20";
shapes = (
{
closed = 1;
nodes = (
(306,1052,ls),
(320,1115,o),
(369,1331,qs),
(381,1382,o),
(381,1450,qs),
(381,1495,o),
(311,1561,o),
(204,1561,o),
(168,1528,qs),
(150,1512,o),
(130,1465,o),
(130,1404,o),
(147,1314,qs),
(154,1277,o),
(175,1172,o),
(199,1042,qs),
(209,985,o),
(218,927,q),
(280,927,l)
);
}
);
width = 512;
}
);
note = quotesingle;
unicode = 39;
},
{
glyphname = parenleft;
lastChange = "2025-07-10 17:01:01 +0000";
layers = (
{
layerId = m01;
shapes = (
{
closed = 1;
nodes = (
(258,6,qs),
(205,124,o),
(205,355,qs),
(205,479,o),
(219,564,qs),
(260,805,o),
(383,805,q),
(413,803,ls),
(417,803,o),
(429,813,o),
(429,827,qs),
(429,837,o),
(401,851,o),
(375,851,qs),
(316,851,o),
(210,788,o),
(170,726,qs),
(81,590,o),
(81,120,o),
(170,-16,qs),
(210,-78,o),
(316,-141,o),
(375,-141,qs),
(401,-141,o),
(429,-126,o),
(429,-117,qs),
(429,-114,o),
(428,-109,qs),
(423,-93,o),
(413,-93,q),
(383,-95,l),
(305,-95,o)
);
}
);
userData = {
assembly = "NPUSHB[ ]	/* 18 values pushed */
0 0 0 31 0 31 25 24 23 22 18 16 9 7 2 1 7 8
CALL[ ]	/* CallFunction */
NPUSHB[ ]	/* 26 values pushed */
6 5 2 0 0 1 0 1 1 0 40 4 1 3 3 2 1 0 39 0 2 2 14 3 35 3
PUSHB[ ]	/* 1 value pushed */
59
CALL[ ]	/* CallFunction */";
};
width = 501;
},
{
layerId = "6B1252CF-E426-46DC-A9C6-391C8BFD5F20";
shapes = (
{
closed = 1;
nodes = (
(490,-6,qs),
(380,240,o),
(380,715,qs),
(380,1190,o),
(490,1436,qs),
(588,1653,o),
(748,1653,q),
(808,1648,l),
(836,1648,o),
(836,1672,qs),
(836,1689,o),
(781,1715,o),
(730,1715,qs),
(613,1715,o),
(400,1589,o),
(318,1464,qs),
(140,1190,o),
(140,715,qs),
(140,240,o),
(318,-34,qs),
(400,-159,o),
(613,-285,o),
(730,-285,qs),
(781,-285,o),
(836,-259,o),
(836,-242,qs),
(836,-218,o),
(808,-218,q),
(748,-223,l),
(588,-223,o)
);
}
);
width = 836;
}
);
note = parenleft;
unicode = 40;
},
{
glyphname = asterisk;
lastChange = "2025-07-10 17:01:01 +0000";
layers = (
{
layerId = m01;
shapes = (
{
closed = 1;
nodes = (
(465,581,o),
(465,631,o),
(450,649,qs),
(442,658,o),
(422,669,o),
(387,669,o),
(357,647,qs),
(324,622,ls),
(302,604,o),
(270,591,q),
(270,620,o),
(289,667,qs),
(297,685,o),
(309,721,o),
(309,767,o),
(276,794,o),
(227,794,o),
(193,766,o),
(193,721,o),
(213,656,qs),
(224,620,o),
(227,594,q),
(211,598,o),
(194,611,qs),
(161,639,ls),
(144,653,o),
(107,676,o),
(77,676,o),
(67,671,qs),
(34,654,o),
(34,611,qs),
(34,557,o),
(119,557,qs),
(181,557,o),
(211,551,q),
(175,514,o),
(139,493,qs),
(118,481,o),
(106,469,qs),
(98,460,o),
(87,440,o),
(87,403,o),
(106,386,qs),
(115,378,o),
(137,370,o),
(174,370,o),
(188,386,qs),
(195,396,o),
(210,429,o),
(229,491,o),
(247,523,q),
(256,505,ls),
(260,495,o),
(268,475,o),
(274,456,o),
(288,402,o),
(302,383,qs),
(310,373,o),
(329,365,o),
(363,365,o),
(382,381,qs),
(391,388,o),
(403,410,o),
(403,441,o),
(385,464,o),
(369,477,qs),
(331,505,ls),
(310,521,o),
(284,548,q),
(314,552,o),
(351,552,qs),
(402,551,ls),
(431,551,o)
);
}
);
userData = {
assembly = "NPUSHB[ ]	/* 20 values pushed */
2 0 67 66 56 55 45 44 40 38 27 26 13 12 0 72 2 72 8 8
CALL[ ]	/* CallFunction */
NPUSHB[ ]	/* 43 values pushed */
62 50 2 0 4 21 3 2 1 0 2 33 37 1 0 1 32 2 1 1 0 1 56 6 1 4 3 7 2 0 1 4 0 1 0 41 0 5 5 18 5 35 5
PUSHB[ ]	/* 1 value pushed */
59
CALL[ ]	/* CallFunction */";
};
width = 500;
},
{
layerId = "6B1252CF-E426-46DC-A9C6-391C8BFD5F20";
shapes = (
{
closed = 1;
nodes = (
(915,1174,o),
(915,1261,o),
(888,1296,qs),
(875,1311,o),
(839,1330,o),
(788,1330,o),
(758,1313,qs),
(742,1304,o),
(704,1277,o),
(628,1216,o),
(553,1182,q),
(564,1272,o),
(590,1337,qs),
(615,1403,ls),
(627,1434,o),
(627,1514,o),
(568,1561,o),
(483,1561,o),
(423,1511,o),
(423,1431,o),
(461,1322,qs),
(480,1265,o),
(486,1187,q),
(422,1221,o),
(369,1261,qs),
(338,1287,ls),
(321,1301,o),
(285,1326,o),
(246,1342,o),
(205,1342,o),
(188,1334,qs),
(130,1304,o),
(130,1228,qs),
(130,1164,o),
(196,1143,qs),
(225,1134,o),
(291,1133,o),
(393,1135,o),
(463,1121,q),
(403,1061,o),
(355,1029,qs),
(315,1004,ls),
(293,990,o),
(254,957,o),
(228,916,o),
(228,846,o),
(262,816,qs),
(277,803,o),
(317,788,o),
(382,788,o),
(406,818,qs),
(420,835,o),
(446,895,o),
(482,1014,o),
(517,1078,q),
(534,1042,ls),
(543,1023,o),
(559,982,o),
(572,944,o),
(596,845,o),
(622,811,qs),
(636,794,o),
(669,779,o),
(730,779,o),
(763,806,qs),
(779,820,o),
(800,859,o),
(801,912,o),
(782,940,q),
(754,974,o),
(671,1029,qs),
(628,1058,o),
(575,1117,q),
(633,1127,o),
(701,1127,qs),
(803,1123,ls),
(854,1123,o)
);
}
);
width = 1045;
}
);
note = asterisk;
unicode = 42;
},
{
glyphname = plus;
lastChange = "2025-07-10 17:01:01 +0000";
layers = (
{
layerId = m01;
shapes = (
{
closed = 1;
nodes = (
(351,70,l),
(351,283,l),
(559,283,l),
(559,356,l),
(351,356,l),
(351,570,l),
(276,570,l),
(276,356,l),
(68,356,l),
(68,283,l),
(276,283,l),
(276,70,l)
);
}
);
userData = {
assembly = "NPUSHB[ ]	/* 14 values pushed */
11 10 9 8 7 6 5 4 3 2 1 0 6 8
CALL[ ]	/* CallFunction */
NPUSHB[ ]	/* 35 values pushed */
0 2 1 5 2 0 0 38 3 1 1 4 1 0 5 1 0 0 0 41 0 2 2 5 0 0 39 0 5 2 5 0 0 36 4
PUSHB[ ]	/* 1 value pushed */
59
CALL[ ]	/* CallFunction */";
};
width = 627;
},
{
layerId = "6B1252CF-E426-46DC-A9C6-391C8BFD5F20";
shapes = (
{
closed = 1;
nodes = (
(713,141,l),
(713,575,l),
(1135,575,l),
(1135,712,l),
(713,712,l),
(713,1146,l),
(572,1146,l),
(572,712,l),
(150,712,l),
(150,575,l),
(572,575,l),
(572,141,l)
);
}
);
width = 1285;
}
);
note = plus;
unicode = 43;
},
{
glyphname = comma;
kernLeft = period;
lastChange = "2025-07-10 17:01:01 +0000";
layers = (
{
layerId = m01;
shapes = (
{
closed = 1;
nodes = (
(251,-46,o),
(251,18,qs),
(251,75,o),
(202,135,o),
(159,135,qs),
(141,135,o),
(127,129,qs),
(83,111,o),
(83,62,qs),
(83,9,o),
(139,-7,qs),
(164,-15,o),
(177,-31,o),
(177,-61,o),
(159,-83,qs),
(151,-93,o),
(125,-112,o),
(84,-131,o),
(84,-147,qs),
(84,-168,o),
(111,-168,qs),
(158,-168,o)
);
}
);
userData = {
assembly = "NPUSHB[ ]	/* 10 values pushed */
1 0 17 15 0 21 1 21 3 8
CALL[ ]	/* CallFunction */
NPUSHB[ ]	/* 24 values pushed */
0 1 0 0 1 1 0 38 0 1 1 0 1 0 39 2 1 0 1 0 1 0 36 3
PUSHB[ ]	/* 1 value pushed */
59
CALL[ ]	/* CallFunction */";
};
width = 334;
},
{
layerId = "6B1252CF-E426-46DC-A9C6-391C8BFD5F20";
shapes = (
{
closed = 1;
nodes = (
(328,-270,qs),
(421,-148,o),
(421,-20,qs),
(421,95,o),
(324,214,o),
(239,214,qs),
(204,214,o),
(176,202,qs),
(90,166,o),
(90,70,qs),
(90,-32,o),
(200,-66,qs),
(251,-81,o),
(279,-112,o),
(283,-179,o),
(248,-222,qs),
(230,-245,o),
(176,-287,o),
(94,-324,o),
(94,-353,qs),
(94,-392,o),
(134,-392,qs),
(234,-392,o)
);
}
);
width = 512;
}
);
note = comma;
unicode = 44;
},
{
glyphname = hyphen;
lastChange = "2025-07-10 17:01:01 +0000";
layers = (
{
layerId = m01;
shapes = (
{
closed = 1;
nodes = (
(325,273,ls),
(342,273,o),
(363,292,o),
(363,327,o),
(341,345,o),
(324,345,qs),
(103,345,ls),
(85,345,o),
(64,327,o),
(64,292,o),
(84,273,o),
(102,273,qs)
);
}
);
userData = {
assembly = "NPUSHB[ ]	/* 10 values pushed */
0 0 0 11 0 9 6 3 3 8
CALL[ ]	/* CallFunction */
NPUSHB[ ]	/* 24 values pushed */
0 0 1 1 0 1 0 38 0 0 0 1 1 0 39 2 1 1 0 1 1 0 36 3
PUSHB[ ]	/* 1 value pushed */
59
CALL[ ]	/* CallFunction */";
};
width = 427;
},
{
layerId = "6B1252CF-E426-46DC-A9C6-391C8BFD5F20";
shapes = (
{
closed = 1;
nodes = (
(140,690,o),
(140,622,qs),
(140,590,o),
(179,553,o),
(211,553,qs),
(664,553,ls),
(696,553,o),
(735,590,o),
(735,622,qs),
(735,690,o),
(662,690,qs),
(213,690,ls)
);
}
);
width = 875;
}
);
note = hyphen;
unicode = 45;
},
{
glyphname = period;
kernLeft = period;
kernRight = period;
lastChange = "2025-07-10 17:01:01 +0000";
layers = (
{
layerId = m01;
shapes = (
{
closed = 1;
nodes = (
(145,-12,o),
(202,-12,o),
(228,14,qs),
(250,38,o),
(250,66,qs),
(250,100,o),
(230,124,qs),
(207,152,o),
(169,152,qs),
(132,152,o),
(107,126,qs),
(96,115,o),
(83,84,o),
(83,55,o),
(93,27,o),
(114,3,o)
);
}
);
userData = {
assembly = "NPUSHB[ ]	/* 6 values pushed */
14 13 7 5 2 8
CALL[ ]	/* CallFunction */
MPPEM[ ]	/* MeasurePixelPerEm */
PUSHB[ ]	/* 1 value pushed */
9
LT[ ]	/* LessThan */
IF[ ]	/* If */
NPUSHB[ ]	/* 14 values pushed */
0 0 0 1 1 0 39 0 1 1 13 1 35 2
ELSE[ ]	/* Else */
MPPEM[ ]	/* MeasurePixelPerEm */
PUSHB[ ]	/* 1 value pushed */
13
LT[ ]	/* LessThan */
IF[ ]	/* If */
NPUSHB[ ]	/* 14 values pushed */
0 0 0 1 1 0 39 0 1 1 16 1 35 2
ELSE[ ]	/* Else */
MPPEM[ ]	/* MeasurePixelPerEm */
PUSHB[ ]	/* 1 value pushed */
17
LT[ ]	/* LessThan */
IF[ ]	/* If */
NPUSHB[ ]	/* 14 values pushed */
0 0 0 1 1 0 39 0 1 1 13 1 35 2
ELSE[ ]	/* Else */
MPPEM[ ]	/* MeasurePixelPerEm */
PUSHB[ ]	/* 1 value pushed */
21
LT[ ]	/* LessThan */
IF[ ]	/* If */
NPUSHB[ ]	/* 14 values pushed */
0 0 0 1 1 0 39 0 1 1 16 1 35 2
ELSE[ ]	/* Else */
NPUSHB[ ]	/* 14 values pushed */
0 0 0 1 1 0 39 0 1 1 13 1 35 2
EIF[ ]	/* EndIf */
EIF[ ]	/* EndIf */
EIF[ ]	/* EndIf */
EIF[ ]	/* EndIf */
PUSHB[ ]	/* 1 value pushed */
59
CALL[ ]	/* CallFunction */";
};
width = 334;
},
{
layerId = "6B1252CF-E426-46DC-A9C6-391C8BFD5F20";
shapes = (
{
closed = 1;
nodes = (
(212,-24,o),
(325,-24,o),
(374,27,qs),
(419,73,o),
(419,129,qs),
(419,193,o),
(380,242,qs),
(335,298,o),
(259,298,qs),
(186,298,o),
(138,248,qs),
(116,225,o),
(92,165,o),
(92,107,o),
(111,52,o),
(151,6,o)
);
}
);
width = 512;
}
);
note = period;
unicode = 46;
},
{
glyphname = slash;
lastChange = "2025-07-10 17:01:01 +0000";
layers = (
{
layerId = m01;
shapes = (
{
closed = 1;
nodes = (
(123,-105,qs),
(437,771,ls),
(448,798,o),
(448,818,qs),
(448,828,o),
(427,845,o),
(406,845,o),
(399,842,qs),
(377,834,o),
(356,776,qs),
(71,-19,ls),
(44,-92,o),
(44,-119,o),
(65,-141,o),
(110,-141,o)
);
}
);
userData = {
assembly = "NPUSHB[ ]	/* 10 values pushed */
0 0 0 14 0 14 8 7 3 8
CALL[ ]	/* CallFunction */
NPUSHB[ ]	/* 13 values pushed */
2 1 1 0 1 56 0 0 0 14 0 35 2
PUSHB[ ]	/* 1 value pushed */
59
CALL[ ]	/* CallFunction */";
};
width = 492;
},
{
layerId = "6B1252CF-E426-46DC-A9C6-391C8BFD5F20";
shapes = (
{
closed = 1;
nodes = (
(123,-134,o),
(116,-154,qs),
(106,-188,ls),
(102,-200,o),
(100,-214,o),
(100,-244,o),
(130,-285,o),
(214,-285,o),
(240,-217,qs),
(886,1559,ls),
(908,1615,o),
(908,1654,qs),
(908,1672,o),
(880,1703,o),
(840,1703,o),
(826,1698,qs),
(787,1681,o),
(743,1567,qs),
(135,-102,ls)
);
}
);
width = 1008;
}
);
note = slash;
unicode = 47;
},
{
glyphname = zero;
lastChange = "2025-07-10 17:01:01 +0000";
layers = (
{
layerId = m01;
shapes = (
{
closed = 1;
nodes = (
(229,39,qs),
(302,-11,o),
(387,-11,qs),
(518,-11,o),
(600,92,qs),
(689,206,o),
(689,406,qs),
(689,557,o),
(611,663,qs),
(526,777,o),
(384,777,qs),
(238,777,o),
(152,663,qs),
(111,609,o),
(68,462,o),
(68,391,qs),
(68,147,o)
);
},
{
closed = 1;
nodes = (
(189,365,o),
(189,579,o),
(235,645,qs),
(279,706,o),
(353,706,qs),
(447,706,o),
(506,604,qs),
(567,500,o),
(567,331,qs),
(567,189,o),
(521,120,qs),
(500,88,o),
(446,62,o),
(374,62,o),
(291,114,o),
(228,216,o)
);
}
);
userData = {
assembly = "NPUSHB[ ]	/* 10 values pushed */
28 26 19 18 14 12 6 4 4 8
CALL[ ]	/* CallFunction */
MPPEM[ ]	/* MeasurePixelPerEm */
PUSHB[ ]	/* 1 value pushed */
13
LT[ ]	/* LessThan */
IF[ ]	/* If */
NPUSHB[ ]	/* 26 values pushed */
0 3 3 0 1 0 39 0 0 0 12 34 0 2 2 1 1 0 39 0 1 1 13 1 35 4
ELSE[ ]	/* Else */
MPPEM[ ]	/* MeasurePixelPerEm */
PUSHB[ ]	/* 1 value pushed */
17
LT[ ]	/* LessThan */
IF[ ]	/* If */
NPUSHB[ ]	/* 26 values pushed */
0 3 3 0 1 0 39 0 0 0 12 34 0 2 2 1 1 0 39 0 1 1 16 1 35 4
ELSE[ ]	/* Else */
MPPEM[ ]	/* MeasurePixelPerEm */
PUSHB[ ]	/* 1 value pushed */
21
LT[ ]	/* LessThan */
IF[ ]	/* If */
NPUSHB[ ]	/* 26 values pushed */
0 3 3 0 1 0 39 0 0 0 12 34 0 2 2 1 1 0 39 0 1 1 13 1 35 4
ELSE[ ]	/* Else */
NPUSHB[ ]	/* 26 values pushed */
0 3 3 0 1 0 39 0 0 0 12 34 0 2 2 1 1 0 39 0 1 1 16 1 35 4
EIF[ ]	/* EndIf */
EIF[ ]	/* EndIf */
EIF[ ]	/* EndIf */
PUSHB[ ]	/* 1 value pushed */
59
CALL[ ]	/* CallFunction */";
};
width = 749;
},
{
layerId = "6B1252CF-E426-46DC-A9C6-391C8BFD5F20";
shapes = (
{
closed = 1;
nodes = (
(332,196,qs),
(521,-20,o),
(780,-20,qs),
(1043,-20,o),
(1208,187,qs),
(1389,414,o),
(1389,818,qs),
(1389,1120,o),
(1231,1333,qs),
(1062,1561,o),
(776,1561,qs),
(482,1561,o),
(308,1332,qs),
(226,1225,o),
(140,930,o),
(140,786,qs),
(140,418,o)
);
},
{
closed = 1;
nodes = (
(375,733,o),
(375,1175,o),
(470,1316,qs),
(562,1452,o),
(712,1452,qs),
(904,1452,o),
(1026,1234,qs),
(1150,1016,o),
(1150,667,qs),
(1150,375,o),
(1055,224,qs),
(1012,155,o),
(902,93,o),
(752,93,o),
(583,207,o),
(453,423,o)
);
}
);
width = 1529;
}
);
note = zero;
unicode = 48;
},
{
glyphname = one;
lastChange = "2025-07-10 17:01:01 +0000";
layers = (
{
layerId = m01;
shapes = (
{
closed = 1;
nodes = (
(293,53,o),
(276,89,o),
(276,153,qs),
(276,613,ls),
(276,665,o),
(279,707,qs),
(281,723,o),
(283,746,o),
(283,775,o),
(270,775,qs),
(263,775,o),
(256,771,qs),
(229,750,ls),
(208,735,o),
(162,715,qs),
(141,705,o),
(98,688,o),
(33,663,o),
(33,650,qs),
(33,636,o),
(73,636,o),
(105,643,o),
(117,643,qs),
(143,643,o),
(163,586,o),
(163,524,qs),
(163,153,ls),
(163,123,o),
(160,101,qs),
(154,40,o),
(107,40,q),
(61,45,l),
(52,45,o),
(42,29,o),
(42,12,o),
(55,3,qs),
(61,-1,o),
(80,-7,o),
(118,-7,o),
(161,-4,qs),
(189,-1,ls),
(203,0,o),
(234,0,o),
(247,-1,qs),
(273,-4,ls),
(286,-5,o),
(301,-6,qs),
(355,-11,o),
(372,3,qs),
(377,8,o),
(381,18,o),
(381,29,o),
(372,43,o),
(363,43,q),
(331,40,l),
(314,40,o)
);
}
);
userData = {
assembly = "NPUSHB[ ]	/* 26 values pushed */
0 0 0 55 0 55 46 44 35 34 33 31 25 24 23 22 17 16 13 12 9 8 2 1 11 8
CALL[ ]	/* CallFunction */
NPUSHB[ ]	/* 40 values pushed */
49 1 6 8 1 33 7 1 6 8 0 8 6 0 53 0 8 8 12 34 10 9 5 4 4 0 0 1 1 0 39 3 2 2 1 1 13 1 35 5
PUSHB[ ]	/* 1 value pushed */
59
CALL[ ]	/* CallFunction */";
};
width = 416;
},
{
layerId = "6B1252CF-E426-46DC-A9C6-391C8BFD5F20";
shapes = (
{
closed = 1;
nodes = (
(673,66,o),
(652,102,qs),
(642,120,o),
(614,197,o),
(614,321,qs),
(614,1238,ls),
(614,1338,o),
(619,1423,qs),
(621,1457,o),
(627,1506,o),
(627,1561,o),
(590,1561,o),
(525,1514,qs),
(483,1483,o),
(389,1440,qs),
(347,1420,o),
(259,1385,o),
(189,1360,o),
(130,1332,o),
(130,1314,qs),
(130,1289,o),
(158,1289,q),
(295,1303,l),
(350,1303,o),
(392,1185,o),
(392,1058,qs),
(392,321,ls),
(392,279,o),
(385,157,o),
(354,102,qs),
(333,66,o),
(276,66,q),
(182,76,l),
(149,76,o),
(149,44,qs),
(149,30,o),
(203,-4,o),
(318,2,qs),
(336,3,o),
(368,6,o),
(425,15,o),
(503,15,qs),
(532,15,o),
(568,13,qs),
(585,12,o),
(617,9,o),
(692,0,o),
(750,0,qs),
(790,0,o),
(827,30,o),
(827,46,qs),
(827,73,o),
(794,73,q),
(730,66,l)
);
}
);
width = 930;
}
);
note = one;
unicode = 49;
},
{
glyphname = two;
lastChange = "2025-07-10 17:01:01 +0000";
layers = (
{
layerId = m01;
shapes = (
{
closed = 1;
nodes = (
(569,180,qs),
(489,97,o),
(347,97,qs),
(163,97,l),
(182,136,o),
(240,196,qs),
(278,235,o),
(371,305,qs),
(492,396,o),
(541,462,qs),
(589,525,o),
(589,592,qs),
(589,677,o),
(521,727,qs),
(489,751,o),
(397,777,o),
(261,777,o),
(189,751,qs),
(146,735,o),
(90,690,q),
(90,553,ls),
(90,529,o),
(109,529,qs),
(112,529,o),
(128,541,o),
(132,558,qs),
(148,625,o),
(201,666,qs),
(252,706,o),
(318,706,qs),
(383,706,o),
(419,678,qs),
(456,647,o),
(456,592,qs),
(456,527,o),
(421,473,qs),
(388,421,o),
(298,343,qs),
(166,228,o),
(112,148,qs),
(87,110,o),
(68,49,o),
(68,11,o),
(82,0,o),
(91,0,qs),
(544,0,l),
(555,49,o),
(565,80,qs),
(571,96,o),
(583,126,o),
(606,172,o),
(606,185,qs),
(606,198,o),
(593,198,qs),
(586,198,o)
);
}
);
userData = {
assembly = "NPUSHB[ ]	/* 18 values pushed */
1 0 52 50 38 37 32 30 25 23 10 8 0 54 1 54 7 8
CALL[ ]	/* CallFunction */
NPUSHB[ ]	/* 48 values pushed */
34 1 3 2 1 33 0 3 2 0 2 3 0 53 6 1 0 5 2 0 5 51 0 2 2 4 1 0 39 0 4 4 12 34 0 5 5 1 1 0 39 0 1 1 13 1 35 7
PUSHB[ ]	/* 1 value pushed */
59
CALL[ ]	/* CallFunction */";
};
width = 668;
},
{
layerId = "6B1252CF-E426-46DC-A9C6-391C8BFD5F20";
shapes = (
{
closed = 1;
nodes = (
(1204,391,o),
(1174,358,qs),
(1016,187,o),
(721,187,qs),
(335,187,l),
(415,352,o),
(765,618,qs),
(1008,801,o),
(1109,934,qs),
(1206,1061,o),
(1206,1196,qs),
(1206,1367,o),
(1070,1464,qs),
(1005,1511,o),
(820,1561,o),
(545,1561,o),
(402,1512,qs),
(314,1482,o),
(204,1392,q),
(204,1116,ls),
(204,1073,o),
(237,1073,qs),
(250,1073,o),
(274,1110,o),
(278,1128,qs),
(314,1272,o),
(420,1363,qs),
(526,1454,o),
(661,1454,qs),
(791,1454,o),
(869,1384,qs),
(946,1314,o),
(946,1196,qs),
(946,1063,o),
(874,951,qs),
(806,846,o),
(624,686,qs),
(351,447,o),
(249,294,qs),
(198,218,o),
(160,94,o),
(160,20,o),
(184,0,o),
(201,0,qs),
(1116,0,l),
(1141,105,o),
(1159,158,qs),
(1170,190,o),
(1196,252,o),
(1240,348,o),
(1240,391,o)
);
}
);
width = 1380;
}
);
note = two;
unicode = 50;
},
{
glyphname = three;
lastChange = "2025-07-10 17:01:01 +0000";
layers = (
{
layerId = m01;
shapes = (
{
closed = 1;
nodes = (
(508,56,qs),
(598,128,o),
(598,235,qs),
(598,317,o),
(546,373,qs),
(498,425,o),
(419,439,q),
(480,467,o),
(521,514,qs),
(561,561,o),
(561,608,qs),
(561,687,o),
(497,732,qs),
(467,754,o),
(380,777,o),
(297,777,o),
(268,772,qs),
(173,757,o),
(100,708,q),
(100,577,ls),
(100,553,o),
(114,553,qs),
(120,553,o),
(129,566,o),
(143,616,o),
(160,639,qs),
(208,706,o),
(305,706,qs),
(369,706,o),
(407,677,qs),
(446,647,o),
(446,593,qs),
(446,483,o),
(296,439,qs),
(223,417,o),
(223,398,qs),
(223,388,o),
(228,380,qs),
(230,375,o),
(237,370,o),
(253,370,o),
(275,376,qs),
(286,379,o),
(296,379,qs),
(370,379,o),
(428,328,qs),
(489,275,o),
(489,199,qs),
(489,133,o),
(438,95,qs),
(393,62,o),
(324,62,qs),
(252,62,o),
(200,93,qs),
(173,109,o),
(131,161,o),
(115,227,o),
(88,227,o),
(88,203,qs),
(88,55,l),
(184,-12,o),
(321,-12,qs),
(423,-12,o)
);
}
);
userData = {
assembly = "NPUSHB[ ]	/* 22 values pushed */
1 0 47 46 41 39 35 33 22 21 19 17 11 9 5 4 0 62 1 62 9 8
CALL[ ]	/* CallFunction */
MPPEM[ ]	/* MeasurePixelPerEm */
PUSHB[ ]	/* 1 value pushed */
9
LT[ ]	/* LessThan */
IF[ ]	/* If */
NPUSHB[ ]	/* 64 values pushed */
43 1 5 7 55 1 3 6 2 1 0 2 3 33 0 6 5 3 5 6 3 53 4 1 3 1 5 3 1 51 0 1 2 5 1 2 51 0 5 5 7 1 0 39 0 7 7 12 34 0 2 2 0 1 0 39 8 1 0 0 13 0 35 8
ELSE[ ]	/* Else */
MPPEM[ ]	/* MeasurePixelPerEm */
PUSHB[ ]	/* 1 value pushed */
13
LT[ ]	/* LessThan */
IF[ ]	/* If */
NPUSHB[ ]	/* 64 values pushed */
43 1 5 7 55 1 3 6 2 1 0 2 3 33 0 6 5 3 5 6 3 53 4 1 3 1 5 3 1 51 0 1 2 5 1 2 51 0 5 5 7 1 0 39 0 7 7 12 34 0 2 2 0 1 0 39 8 1 0 0 16 0 35 8
ELSE[ ]	/* Else */
MPPEM[ ]	/* MeasurePixelPerEm */
PUSHB[ ]	/* 1 value pushed */
17
LT[ ]	/* LessThan */
IF[ ]	/* If */
NPUSHB[ ]	/* 64 values pushed */
43 1 5 7 55 1 3 6 2 1 0 2 3 33 0 6 5 3 5 6 3 53 4 1 3 1 5 3 1 51 0 1 2 5 1 2 51 0 5 5 7 1 0 39 0 7 7 12 34 0 2 2 0 1 0 39 8 1 0 0 13 0 35 8
ELSE[ ]	/* Else */
MPPEM[ ]	/* MeasurePixelPerEm */
PUSHB[ ]	/* 1 value pushed */
21
LT[ ]	/* LessThan */
IF[ ]	/* If */
NPUSHB[ ]	/* 64 values pushed */
43 1 5 7 55 1 3 6 2 1 0 2 3 33 0 6 5 3 5 6 3 53 4 1 3 1 5 3 1 51 0 1 2 5 1 2 51 0 5 5 7 1 0 39 0 7 7 12 34 0 2 2 0 1 0 39 8 1 0 0 16 0 35 8
ELSE[ ]	/* Else */
NPUSHB[ ]	/* 64 values pushed */
43 1 5 7 55 1 3 6 2 1 0 2 3 33 0 6 5 3 5 6 3 53 4 1 3 1 5 3 1 51 0 1 2 5 1 2 51 0 5 5 7 1 0 39 0 7 7 12 34 0 2 2 0 1 0 39 8 1 0 0 13 0 35 8
EIF[ ]	/* EndIf */
EIF[ ]	/* EndIf */
EIF[ ]	/* EndIf */
EIF[ ]	/* EndIf */
PUSHB[ ]	/* 1 value pushed */
59
CALL[ ]	/* CallFunction */";
};
width = 666;
},
{
layerId = "6B1252CF-E426-46DC-A9C6-391C8BFD5F20";
shapes = (
{
closed = 1;
nodes = (
(917,38,qs),
(1051,104,o),
(1128,212,qs),
(1215,332,o),
(1215,473,qs),
(1215,640,o),
(1105,752,qs),
(1001,858,o),
(841,883,q),
(970,937,o),
(1054,1034,qs),
(1138,1131,o),
(1138,1229,qs),
(1138,1385,o),
(1011,1474,qs),
(885,1561,o),
(667,1561,qs),
(414,1561,o),
(215,1428,q),
(215,1165,ls),
(215,1122,o),
(238,1122,qs),
(249,1122,o),
(265,1143,o),
(291,1249,o),
(325,1302,qs),
(425,1460,o),
(625,1460,qs),
(753,1460,o),
(916,1312,o),
(916,1198,qs),
(916,1081,o),
(757,924,o),
(585,874,qs),
(463,837,o),
(463,798,qs),
(463,770,o),
(498,770,qs),
(517,770,o),
(554,783,qs),
(572,789,o),
(607,789,qs),
(756,789,o),
(876,674,qs),
(1002,556,o),
(1002,398,qs),
(1002,258,o),
(896,168,qs),
(797,84,o),
(664,84,qs),
(519,84,o),
(408,161,qs),
(352,200,o),
(268,317,o),
(237,450,o),
(213,450,qs),
(190,450,o),
(190,407,qs),
(190,110,l),
(383,-24,o),
(657,-24,qs),
(790,-24,o)
);
}
);
width = 1355;
}
);
note = three;
unicode = 51;
},
{
glyphname = four;
lastChange = "2025-07-10 17:01:01 +0000";
layers = (
{
layerId = m01;
shapes = (
{
closed = 1;
nodes = (
(484,55,o),
(467,96,o),
(467,161,qs),
(467,228,l),
(522,228,o),
(558,218,qs),
(572,214,o),
(590,205,o),
(601,197,o),
(607,192,o),
(610,192,qs),
(616,192,o),
(629,230,qs),
(635,247,o),
(649,285,o),
(668,313,o),
(668,320,qs),
(668,332,o),
(655,332,qs),
(649,332,o),
(635,323,qs),
(627,318,o),
(617,313,qs),
(585,296,o),
(535,296,qs),
(467,296,l),
(467,746,ls),
(467,779,o),
(450,779,qs),
(441,779,o),
(417,753,o),
(403,736,q),
(403,737,l),
(40,294,ls),
(15,264,o),
(15,249,qs),
(15,241,o),
(33,228,o),
(59,228,qs),
(353,228,l),
(353,161,ls),
(353,96,o),
(342,70,qs),
(331,40,o),
(298,40,q),
(251,45,l),
(243,45,o),
(233,29,o),
(233,12,o),
(245,3,qs),
(251,-1,o),
(271,-7,o),
(309,-7,o),
(352,-4,qs),
(380,-1,ls),
(394,0,o),
(425,0,o),
(438,-1,qs),
(464,-4,ls),
(477,-5,o),
(492,-6,qs),
(546,-11,o),
(563,3,qs),
(568,8,o),
(572,18,o),
(572,29,o),
(563,43,o),
(553,43,q),
(522,40,l),
(505,40,o)
);
},
{
closed = 1;
nodes = (
(353,296,l),
(141,296,ls),
(121,296,o),
(121,300,qs),
(121,308,o),
(134,325,qs),
(353,592,l)
);
}
);
userData = {
assembly = "NPUSHB[ ]	/* 34 values pushed */
0 0 75 73 0 69 0 69 65 64 59 57 51 49 45 43 41 39 31 29 25 24 23 22 17 16 13 12 9 8 2 1 15 8
CALL[ ]	/* CallFunction */
NPUSHB[ ]	/* 61 values pushed */
76 37 36 3 9 7 1 33 0 9 7 8 7 9 8 53 0 10 6 0 6 10 0 53 13 1 8 11 1 6 10 8 6 1 0 41 0 7 7 12 34 14 12 5 4 4 0 0 1 1 0 39 3 2 2 1 1 13 1 35 7
PUSHB[ ]	/* 1 value pushed */
59
CALL[ ]	/* CallFunction */";
};
width = 669;
},
{
layerId = "6B1252CF-E426-46DC-A9C6-391C8BFD5F20";
shapes = (
{
closed = 1;
nodes = (
(523,44,qs),
(523,30,o),
(577,-4,o),
(692,2,qs),
(710,3,o),
(742,6,o),
(799,15,o),
(877,15,qs),
(906,15,o),
(942,13,qs),
(959,12,o),
(991,9,o),
(1066,0,o),
(1124,0,qs),
(1164,0,o),
(1201,30,o),
(1201,46,qs),
(1201,73,o),
(1168,73,q),
(1104,66,l),
(1047,66,o),
(1026,102,qs),
(1016,120,o),
(988,197,o),
(988,321,qs),
(988,462,l),
(999,462,ls),
(1115,462,o),
(1184,444,qs),
(1214,436,o),
(1250,416,o),
(1273,389,o),
(1283,389,qs),
(1298,389,o),
(1306,429,qs),
(1325,525,o),
(1374,599,qs),
(1395,632,o),
(1395,643,qs),
(1395,663,o),
(1375,663,qs),
(1364,663,o),
(1336,646,qs),
(1319,635,o),
(1299,624,qs),
(1235,591,o),
(1130,591,qs),
(988,591,l),
(988,1508,ls),
(988,1570,o),
(959,1570,qs),
(938,1570,o),
(885,1507,qs),
(131,588,ls),
(80,526,o),
(80,499,qs),
(80,462,o),
(166,462,qs),
(766,462,l),
(766,321,ls),
(766,279,o),
(759,157,o),
(728,102,qs),
(707,66,o),
(650,66,q),
(556,76,l),
(523,76,o)
);
},
{
closed = 1;
nodes = (
(286,622,o),
(315,656,qs),
(766,1209,l),
(766,591,l),
(331,591,ls),
(286,591,o)
);
}
);
width = 1445;
}
);
note = four;
unicode = 52;
},
{
glyphname = five;
lastChange = "2025-07-10 17:01:01 +0000";
layers = (
{
layerId = m01;
shapes = (
{
closed = 1;
nodes = (
(489,665,l),
(492,690,o),
(511,746,qs),
(523,782,ls),
(529,799,o),
(529,806,qs),
(529,819,o),
(516,819,qs),
(510,819,o),
(493,804,qs),
(467,780,o),
(415,769,qs),
(383,762,o),
(287,762,qs),
(134,762,ls),
(115,762,o),
(111,742,q),
(111,407,ls),
(111,384,o),
(127,384,qs),
(133,384,o),
(139,390,qs),
(154,402,ls),
(195,440,o),
(289,440,qs),
(375,440,o),
(430,380,qs),
(456,352,o),
(485,272,o),
(485,188,o),
(478,163,qs),
(447,56,o),
(323,56,qs),
(245,56,o),
(188,94,qs),
(160,112,o),
(119,165,o),
(99,213,o),
(90,227,o),
(83,227,qs),
(69,227,o),
(69,203,qs),
(69,55,l),
(94,38,o),
(124,25,qs),
(209,-12,o),
(297,-12,qs),
(414,-12,o),
(501,55,qs),
(599,128,o),
(599,251,qs),
(599,365,o),
(525,438,qs),
(489,473,o),
(385,514,o),
(227,514,o),
(162,483,q),
(162,665,l)
);
}
);
userData = {
assembly = "NPUSHB[ ]	/* 20 values pushed */
57 56 50 48 44 41 38 36 33 31 25 23 18 16 11 9 2 1 9 8
CALL[ ]	/* CallFunction */
MPPEM[ ]	/* MeasurePixelPerEm */
PUSHB[ ]	/* 1 value pushed */
9
LT[ ]	/* LessThan */
IF[ ]	/* If */
NPUSHB[ ]	/* 72 values pushed */
40 1 8 6 0 1 4 0 14 1 1 3 3 33 0 7 6 7 55 0 5 4 2 4 5 2 53 0 2 3 4 2 3 51 0 8 8 6 1 0 39 0 6 6 12 34 0 4 4 0 1 0 39 0 0 0 15 34 0 3 3 1 1 0 39 0 1 1 13 1 35 10
ELSE[ ]	/* Else */
MPPEM[ ]	/* MeasurePixelPerEm */
PUSHB[ ]	/* 1 value pushed */
13
LT[ ]	/* LessThan */
IF[ ]	/* If */
NPUSHB[ ]	/* 72 values pushed */
40 1 8 6 0 1 4 0 14 1 1 3 3 33 0 7 6 7 55 0 5 4 2 4 5 2 53 0 2 3 4 2 3 51 0 8 8 6 1 0 39 0 6 6 12 34 0 4 4 0 1 0 39 0 0 0 15 34 0 3 3 1 1 0 39 0 1 1 16 1 35 10
ELSE[ ]	/* Else */
MPPEM[ ]	/* MeasurePixelPerEm */
PUSHB[ ]	/* 1 value pushed */
17
LT[ ]	/* LessThan */
IF[ ]	/* If */
NPUSHB[ ]	/* 72 values pushed */
40 1 8 6 0 1 4 0 14 1 1 3 3 33 0 7 6 7 55 0 5 4 2 4 5 2 53 0 2 3 4 2 3 51 0 8 8 6 1 0 39 0 6 6 12 34 0 4 4 0 1 0 39 0 0 0 15 34 0 3 3 1 1 0 39 0 1 1 13 1 35 10
ELSE[ ]	/* Else */
MPPEM[ ]	/* MeasurePixelPerEm */
PUSHB[ ]	/* 1 value pushed */
21
LT[ ]	/* LessThan */
IF[ ]	/* If */
NPUSHB[ ]	/* 72 values pushed */
40 1 8 6 0 1 4 0 14 1 1 3 3 33 0 7 6 7 55 0 5 4 2 4 5 2 53 0 2 3 4 2 3 51 0 8 8 6 1 0 39 0 6 6 12 34 0 4 4 0 1 0 39 0 0 0 15 34 0 3 3 1 1 0 39 0 1 1 16 1 35 10
ELSE[ ]	/* Else */
NPUSHB[ ]	/* 72 values pushed */
40 1 8 6 0 1 4 0 14 1 1 3 3 33 0 7 6 7 55 0 5 4 2 4 5 2 53 0 2 3 4 2 3 51 0 8 8 6 1 0 39 0 6 6 12 34 0 4 4 0 1 0 39 0 0 0 15 34 0 3 3 1 1 0 39 0 1 1 13 1 35 10
EIF[ ]	/* EndIf */
EIF[ ]	/* EndIf */
EIF[ ]	/* EndIf */
EIF[ ]	/* EndIf */
PUSHB[ ]	/* 1 value pushed */
59
CALL[ ]	/* CallFunction */";
};
width = 666;
},
{
layerId = "6B1252CF-E426-46DC-A9C6-391C8BFD5F20";
shapes = (
{
closed = 1;
nodes = (
(1001,1326,l),
(1012,1411,o),
(1058,1531,qs),
(1081,1589,o),
(1081,1608,qs),
(1081,1629,o),
(1061,1629,qs),
(1051,1629,o),
(1014,1596,qs),
(961,1547,o),
(855,1526,qs),
(790,1513,o),
(596,1513,qs),
(286,1513,ls),
(250,1513,o),
(245,1477,q),
(245,841,ls),
(245,800,o),
(273,800,qs),
(287,800,o),
(323,834,qs),
(426,929,o),
(579,929,qs),
(755,929,o),
(879,788,qs),
(936,723,o),
(1002,548,o),
(1002,341,o),
(970,270,qs),
(885,84,o),
(670,84,qs),
(514,84,o),
(393,171,qs),
(336,212,o),
(250,326,o),
(201,450,o),
(183,450,qs),
(160,450,o),
(160,407,qs),
(160,110,l),
(209,75,o),
(268,50,qs),
(441,-24,o),
(617,-24,qs),
(849,-24,o),
(1027,109,qs),
(1224,256,o),
(1224,504,qs),
(1224,732,o),
(1076,878,qs),
(1004,950,o),
(794,1033,o),
(466,1033,o),
(338,967,q),
(338,1326,l)
);
}
);
width = 1364;
}
);
note = five;
unicode = 53;
},
{
glyphname = six;
lastChange = "2025-07-10 17:01:01 +0000";
layers = (
{
layerId = m01;
shapes = (
{
closed = 1;
nodes = (
(524,61,qs),
(615,143,o),
(615,278,qs),
(615,381,o),
(550,447,qs),
(520,479,o),
(433,514,o),
(343,514,o),
(309,506,qs),
(199,479,o),
(158,389,q),
(164,545,o),
(224,628,qs),
(281,706,o),
(376,706,qs),
(492,706,o),
(531,632,qs),
(541,611,o),
(554,611,qs),
(560,611,o),
(572,624,o),
(572,643,qs),
(572,670,o),
(554,698,qs),
(545,713,o),
(515,742,o),
(471,764,o),
(413,777,o),
(328,777,o),
(285,763,qs),
(197,733,o),
(136,660,qs),
(38,544,o),
(38,382,qs),
(38,198,o),
(121,92,qs),
(202,-12,o),
(340,-12,qs),
(443,-12,o)
);
},
{
closed = 1;
nodes = (
(230,395,qs),
(275,440,o),
(334,440,qs),
(399,440,o),
(446,384,qs),
(471,355,o),
(501,269,o),
(501,143,o),
(429,59,o),
(370,59,qs),
(297,59,o),
(243,109,qs),
(187,162,o),
(167,261,q),
(182,346,o)
);
}
);
userData = {
assembly = "NPUSHB[ ]	/* 20 values pushed */
1 0 51 49 44 42 31 30 24 22 20 18 10 9 0 38 1 38 8 8
CALL[ ]	/* CallFunction */
MPPEM[ ]	/* MeasurePixelPerEm */
PUSHB[ ]	/* 1 value pushed */
9
LT[ ]	/* LessThan */
IF[ ]	/* If */
NPUSHB[ ]	/* 54 values pushed */
39 27 2 5 6 1 33 0 2 3 4 3 2 4 53 0 3 3 1 1 0 39 0 1 1 12 34 0 6 6 4 1 0 39 0 4 4 15 34 0 5 5 0 1 0 39 7 1 0 0 13 0 35 8
ELSE[ ]	/* Else */
MPPEM[ ]	/* MeasurePixelPerEm */
PUSHB[ ]	/* 1 value pushed */
13
LT[ ]	/* LessThan */
IF[ ]	/* If */
NPUSHB[ ]	/* 54 values pushed */
39 27 2 5 6 1 33 0 2 3 4 3 2 4 53 0 3 3 1 1 0 39 0 1 1 12 34 0 6 6 4 1 0 39 0 4 4 15 34 0 5 5 0 1 0 39 7 1 0 0 16 0 35 8
ELSE[ ]	/* Else */
MPPEM[ ]	/* MeasurePixelPerEm */
PUSHB[ ]	/* 1 value pushed */
17
LT[ ]	/* LessThan */
IF[ ]	/* If */
NPUSHB[ ]	/* 54 values pushed */
39 27 2 5 6 1 33 0 2 3 4 3 2 4 53 0 3 3 1 1 0 39 0 1 1 12 34 0 6 6 4 1 0 39 0 4 4 15 34 0 5 5 0 1 0 39 7 1 0 0 13 0 35 8
ELSE[ ]	/* Else */
MPPEM[ ]	/* MeasurePixelPerEm */
PUSHB[ ]	/* 1 value pushed */
21
LT[ ]	/* LessThan */
IF[ ]	/* If */
NPUSHB[ ]	/* 54 values pushed */
39 27 2 5 6 1 33 0 2 3 4 3 2 4 53 0 3 3 1 1 0 39 0 1 1 12 34 0 6 6 4 1 0 39 0 4 4 15 34 0 5 5 0 1 0 39 7 1 0 0 16 0 35 8
ELSE[ ]	/* Else */
NPUSHB[ ]	/* 54 values pushed */
39 27 2 5 6 1 33 0 2 3 4 3 2 4 53 0 3 3 1 1 0 39 0 1 1 12 34 0 6 6 4 1 0 39 0 4 4 15 34 0 5 5 0 1 0 39 7 1 0 0 13 0 35 8
EIF[ ]	/* EndIf */
EIF[ ]	/* EndIf */
EIF[ ]	/* EndIf */
EIF[ ]	/* EndIf */
PUSHB[ ]	/* 1 value pushed */
59
CALL[ ]	/* CallFunction */";
};
width = 667;
},
{
layerId = "6B1252CF-E426-46DC-A9C6-391C8BFD5F20";
shapes = (
{
closed = 1;
nodes = (
(1118,1492,o),
(1031,1535,o),
(914,1561,o),
(743,1561,o),
(656,1532,qs),
(482,1476,o),
(356,1328,qs),
(160,1096,o),
(160,771,qs),
(160,397,o),
(326,184,qs),
(490,-24,o),
(768,-24,qs),
(973,-24,o),
(1136,122,qs),
(1319,284,o),
(1319,560,qs),
(1319,762,o),
(1180,892,qs),
(1114,953,o),
(934,1021,o),
(749,1021,o),
(680,1001,qs),
(476,941,o),
(391,762,q),
(399,1093,o),
(529,1283,qs),
(654,1465,o),
(850,1465,qs),
(1073,1465,o),
(1158,1300,qs),
(1179,1259,o),
(1205,1259,qs),
(1232,1259,o),
(1232,1321,o),
(1215,1379,o),
(1178,1437,o)
);
},
{
closed = 1;
nodes = (
(530,808,qs),
(622,911,o),
(755,911,qs),
(885,911,o),
(986,786,qs),
(1036,724,o),
(1098,542,o),
(1098,280,o),
(1024,186,qs),
(948,90,o),
(828,90,qs),
(680,90,o),
(568,202,qs),
(450,320,o),
(409,524,q),
(439,705,o)
);
}
);
width = 1459;
}
);
note = six;
unicode = 54;
},
{
glyphname = seven;
lastChange = "2025-07-10 17:01:01 +0000";
layers = (
{
layerId = m01;
shapes = (
{
closed = 1;
nodes = (
(322,-4,o),
(325,15,qs),
(350,162,o),
(404,328,qs),
(432,415,o),
(532,672,o),
(565,739,qs),
(569,745,o),
(569,759,o),
(555,762,o),
(538,762,qs),
(173,762,ls),
(129,762,o),
(120,773,qs),
(104,793,o),
(94,793,qs),
(88,793,o),
(79,783,o),
(71,734,o),
(63,705,qs),
(37,622,ls),
(33,608,o),
(33,583,o),
(45,583,qs),
(52,583,o),
(64,595,q),
(122,665,o),
(191,665,qs),
(472,665,l),
(398,518,l),
(325,366,ls),
(287,286,o),
(209,107,qs),
(172,20,o),
(177,8,qs),
(181,-4,o),
(197,-4,q),
(250,0,l),
(305,-4,l)
);
}
);
userData = {
assembly = "NPUSHB[ ]	/* 14 values pushed */
38 37 28 25 23 21 15 13 11 9 2 1 6 8
CALL[ ]	/* CallFunction */
NPUSHB[ ]	/* 39 values pushed */
0 1 0 2 1 33 0 2 1 0 1 2 0 53 0 3 3 18 34 0 1 1 4 1 0 39 0 4 4 12 34 5 1 0 0 13 0 35 6
PUSHB[ ]	/* 1 value pushed */
59
CALL[ ]	/* CallFunction */";
};
width = 583;
},
{
layerId = "6B1252CF-E426-46DC-A9C6-391C8BFD5F20";
shapes = (
{
closed = 1;
nodes = (
(646,0,o),
(651,34,qs),
(699,321,o),
(837,734,qs),
(921,984,o),
(1118,1425,qs),
(1137,1467,ls),
(1145,1484,o),
(1145,1508,o),
(1119,1513,o),
(1087,1513,qs),
(347,1513,ls),
(290,1513,o),
(266,1519,qs),
(254,1522,o),
(241,1531,o),
(205,1576,o),
(188,1576,qs),
(179,1576,o),
(162,1557,o),
(139,1428,o),
(103,1314,qs),
(89,1270,o),
(70,1205,o),
(70,1160,o),
(105,1160,o),
(123,1183,qs),
(238,1326,o),
(384,1326,qs),
(962,1326,l),
(810,1029,l),
(674,752,l),
(556,504,l),
(462,296,ls),
(421,203,o),
(369,68,o),
(357,20,o),
(377,0,o),
(397,0,q),
(504,8,l),
(615,0,l)
);
}
);
width = 1175;
}
);
note = seven;
unicode = 55;
},
{
glyphname = eight;
lastChange = "2025-07-10 17:01:01 +0000";
layers = (
{
layerId = m01;
shapes = (
{
closed = 1;
nodes = (
(560,489,qs),
(594,540,o),
(594,597,qs),
(594,670,o),
(525,722,qs),
(452,777,o),
(336,777,qs),
(219,777,o),
(145,716,qs),
(112,689,o),
(78,622,o),
(78,589,qs),
(78,488,o),
(200,409,q),
(129,386,o),
(83,333,qs),
(34,276,o),
(34,207,qs),
(34,117,o),
(104,58,qs),
(185,-12,o),
(337,-12,qs),
(470,-12,o),
(555,57,qs),
(635,122,o),
(635,215,qs),
(635,330,o),
(474,413,q),
(528,440,o)
);
},
{
closed = 1;
nodes = (
(487,542,qs),
(473,474,o),
(416,439,q),
(403,444,o),
(390,449,qs),
(285,489,o),
(233,541,qs),
(191,583,o),
(191,619,qs),
(191,661,o),
(261,706,o),
(326,706,qs),
(492,706,o),
(492,580,qs),
(492,562,o)
);
},
{
closed = 1;
nodes = (
(261,375,q),
(294,360,l),
(396,318,o),
(445,282,qs),
(476,260,o),
(515,207,o),
(515,144,o),
(504,123,qs),
(472,62,o),
(364,62,qs),
(265,62,o),
(203,104,qs),
(174,124,o),
(141,180,o),
(141,247,o),
(150,273,qs),
(177,350,o)
);
}
);
userData = {
assembly = "NPUSHB[ ]	/* 10 values pushed */
51 49 32 30 22 20 7 5 4 8
CALL[ ]	/* CallFunction */
MPPEM[ ]	/* MeasurePixelPerEm */
PUSHB[ ]	/* 1 value pushed */
9
LT[ ]	/* LessThan */
IF[ ]	/* If */
NPUSHB[ ]	/* 35 values pushed */
59 40 14 0 4 3 2 1 33 0 2 2 1 1 0 39 0 1 1 12 34 0 3 3 0 1 0 39 0 0 0 13 0 35 5
ELSE[ ]	/* Else */
MPPEM[ ]	/* MeasurePixelPerEm */
PUSHB[ ]	/* 1 value pushed */
13
LT[ ]	/* LessThan */
IF[ ]	/* If */
NPUSHB[ ]	/* 35 values pushed */
59 40 14 0 4 3 2 1 33 0 2 2 1 1 0 39 0 1 1 12 34 0 3 3 0 1 0 39 0 0 0 16 0 35 5
ELSE[ ]	/* Else */
MPPEM[ ]	/* MeasurePixelPerEm */
PUSHB[ ]	/* 1 value pushed */
17
LT[ ]	/* LessThan */
IF[ ]	/* If */
NPUSHB[ ]	/* 35 values pushed */
59 40 14 0 4 3 2 1 33 0 2 2 1 1 0 39 0 1 1 12 34 0 3 3 0 1 0 39 0 0 0 13 0 35 5
ELSE[ ]	/* Else */
MPPEM[ ]	/* MeasurePixelPerEm */
PUSHB[ ]	/* 1 value pushed */
21
LT[ ]	/* LessThan */
IF[ ]	/* If */
NPUSHB[ ]	/* 35 values pushed */
59 40 14 0 4 3 2 1 33 0 2 2 1 1 0 39 0 1 1 12 34 0 3 3 0 1 0 39 0 0 0 16 0 35 5
ELSE[ ]	/* Else */
NPUSHB[ ]	/* 35 values pushed */
59 40 14 0 4 3 2 1 33 0 2 2 1 1 0 39 0 1 1 12 34 0 3 3 0 1 0 39 0 0 0 13 0 35 5
EIF[ ]	/* EndIf */
EIF[ ]	/* EndIf */
EIF[ ]	/* EndIf */
EIF[ ]	/* EndIf */
PUSHB[ ]	/* 1 value pushed */
59
CALL[ ]	/* CallFunction */";
};
width = 667;
},
{
layerId = "6B1252CF-E426-46DC-A9C6-391C8BFD5F20";
shapes = (
{
closed = 1;
nodes = (
(1106,898,qs),
(1255,1026,o),
(1255,1205,qs),
(1255,1351,o),
(1118,1452,qs),
(971,1561,o),
(738,1561,qs),
(501,1561,o),
(353,1442,qs),
(218,1334,o),
(218,1189,qs),
(218,973,o),
(469,821,q),
(327,780,o),
(230,670,qs),
(130,555,o),
(130,414,qs),
(130,235,o),
(269,116,qs),
(432,-24,o),
(740,-24,qs),
(1005,-24,o),
(1176,114,qs),
(1338,245,o),
(1338,431,qs),
(1338,668,o),
(1007,833,q),
(1060,859,o)
);
},
{
closed = 1;
nodes = (
(623,980,o),
(516,1095,qs),
(472,1143,o),
(439,1229,o),
(439,1303,o),
(454,1342,qs),
(506,1470,o),
(696,1470,qs),
(859,1470,o),
(959,1385,qs),
(1006,1345,o),
(1058,1235,o),
(1058,1135,o),
(1050,1094,qs),
(1019,950,o),
(899,880,q),
(845,901,ls)
);
},
{
closed = 1;
nodes = (
(579,763,q),
(615,746,ls),
(634,738,o),
(738,695,o),
(820,656,qs),
(1114,515,o),
(1114,338,qs),
(1114,216,o),
(1023,140,qs),
(933,66,o),
(793,66,qs),
(598,66,o),
(464,176,qs),
(404,226,o),
(336,359,o),
(336,498,o),
(355,552,qs),
(411,714,o)
);
}
);
width = 1468;
}
);
note = eight;
unicode = 56;
},
{
glyphname = nine;
lastChange = "2025-07-10 17:01:01 +0000";
layers = (
{
layerId = m01;
shapes = (
{
closed = 1;
nodes = (
(189,-12,o),
(286,-12,qs),
(438,-12,o),
(529,108,qs),
(618,225,o),
(618,409,qs),
(618,575,o),
(537,675,qs),
(455,777,o),
(315,777,qs),
(206,777,o),
(129,706,qs),
(48,632,o),
(48,513,qs),
(48,402,o),
(122,328,qs),
(155,294,o),
(244,257,o),
(327,257,o),
(356,265,qs),
(445,287,o),
(497,359,q),
(491,207,o),
(420,129,qs),
(387,93,o),
(306,62,o),
(208,62,o),
(140,94,o),
(124,130,qs),
(114,152,o),
(99,152,qs),
(91,152,o),
(86,141,qs),
(84,136,o),
(83,125,o),
(83,102,o),
(106,57,o),
(131,36,qs)
);
},
{
closed = 1;
nodes = (
(166,507,o),
(166,599,o),
(176,626,qs),
(206,706,o),
(308,706,qs),
(380,706,o),
(426,648,qs),
(477,586,o),
(489,462,q),
(467,396,o),
(433,367,qs),
(414,352,o),
(366,336,o),
(307,336,o),
(248,366,o),
(198,423,o)
);
}
);
userData = {
assembly = "NPUSHB[ ]	/* 16 values pushed */
49 47 40 39 36 34 28 26 19 18 11 10 7 5 7 8
CALL[ ]	/* CallFunction */
MPPEM[ ]	/* MeasurePixelPerEm */
PUSHB[ ]	/* 1 value pushed */
9
LT[ ]	/* LessThan */
IF[ ]	/* If */
NPUSHB[ ]	/* 51 values pushed */
44 15 2 5 6 1 33 0 0 2 1 2 0 1 53 0 5 0 2 0 5 2 1 0 41 0 6 6 3 1 0 39 0 3 3 12 34 0 1 1 4 1 0 39 0 4 4 13 4 35 7
ELSE[ ]	/* Else */
MPPEM[ ]	/* MeasurePixelPerEm */
PUSHB[ ]	/* 1 value pushed */
13
LT[ ]	/* LessThan */
IF[ ]	/* If */
NPUSHB[ ]	/* 51 values pushed */
44 15 2 5 6 1 33 0 0 2 1 2 0 1 53 0 5 0 2 0 5 2 1 0 41 0 6 6 3 1 0 39 0 3 3 12 34 0 1 1 4 1 0 39 0 4 4 16 4 35 7
ELSE[ ]	/* Else */
MPPEM[ ]	/* MeasurePixelPerEm */
PUSHB[ ]	/* 1 value pushed */
17
LT[ ]	/* LessThan */
IF[ ]	/* If */
NPUSHB[ ]	/* 51 values pushed */
44 15 2 5 6 1 33 0 0 2 1 2 0 1 53 0 5 0 2 0 5 2 1 0 41 0 6 6 3 1 0 39 0 3 3 12 34 0 1 1 4 1 0 39 0 4 4 13 4 35 7
ELSE[ ]	/* Else */
MPPEM[ ]	/* MeasurePixelPerEm */
PUSHB[ ]	/* 1 value pushed */
21
LT[ ]	/* LessThan */
IF[ ]	/* If */
NPUSHB[ ]	/* 51 values pushed */
44 15 2 5 6 1 33 0 0 2 1 2 0 1 53 0 5 0 2 0 5 2 1 0 41 0 6 6 3 1 0 39 0 3 3 12 34 0 1 1 4 1 0 39 0 4 4 16 4 35 7
ELSE[ ]	/* Else */
NPUSHB[ ]	/* 51 values pushed */
44 15 2 5 6 1 33 0 0 2 1 2 0 1 53 0 5 0 2 0 5 2 1 0 41 0 6 6 3 1 0 39 0 3 3 12 34 0 1 1 4 1 0 39 0 4 4 13 4 35 7
EIF[ ]	/* EndIf */
EIF[ ]	/* EndIf */
EIF[ ]	/* EndIf */
EIF[ ]	/* EndIf */
PUSHB[ ]	/* 1 value pushed */
59
CALL[ ]	/* CallFunction */";
};
width = 667;
},
{
layerId = "6B1252CF-E426-46DC-A9C6-391C8BFD5F20";
shapes = (
{
closed = 1;
nodes = (
(305,72,qs),
(423,-24,o),
(617,-24,qs),
(922,-24,o),
(1106,218,qs),
(1285,452,o),
(1285,825,qs),
(1285,1159,o),
(1122,1359,qs),
(957,1562,o),
(675,1562,qs),
(454,1562,o),
(302,1422,qs),
(140,1273,o),
(140,1035,qs),
(140,812,o),
(286,664,qs),
(354,596,o),
(533,521,o),
(701,521,o),
(763,537,qs),
(944,584,o),
(1049,738,q),
(1041,413,o),
(914,234,qs),
(856,152,o),
(701,72,o),
(496,72,o),
(406,116,qs),
(362,138,o),
(298,199,o),
(264,278,o),
(208,278,o),
(208,240,qs),
(208,150,o)
);
},
{
closed = 1;
nodes = (
(368,1021,o),
(368,1210,o),
(387,1272,qs),
(447,1466,o),
(650,1466,qs),
(798,1466,o),
(906,1320,qs),
(1019,1167,o),
(1044,910,q),
(999,775,o),
(928,715,qs),
(890,683,o),
(790,651,o),
(669,651,o),
(544,718,o),
(438,843,o)
);
}
);
width = 1445;
}
);
note = nine;
unicode = 57;
},
{
glyphname = less;
lastChange = "2025-07-10 17:01:01 +0000";
layers = (
{
layerId = m01;
shapes = (
{
closed = 1;
nodes = (
(423,43,l),
(423,132,l),
(197,272,l),
(423,410,l),
(423,496,l),
(78,287,l),
(78,254,l)
);
}
);
userData = {
assembly = "NPUSHB[ ]	/* 4 values pushed */
1 5 1 13
CALL[ ]	/* CallFunction */";
};
width = 501;
},
{
layerId = "6B1252CF-E426-46DC-A9C6-391C8BFD5F20";
shapes = (
{
closed = 1;
nodes = (
(789,91,l),
(789,260,l),
(325,547,l),
(789,829,l),
(789,992,l),
(100,574,l),
(100,514,l)
);
}
);
width = 939;
}
);
note = less;
unicode = 60;
},
{
glyphname = equal;
lastChange = "2025-07-10 17:01:01 +0000";
layers = (
{
layerId = m01;
shapes = (
{
closed = 1;
nodes = (
(559,354,l),
(559,426,l),
(68,426,l),
(68,354,l)
);
},
{
closed = 1;
nodes = (
(559,191,l),
(559,264,l),
(68,264,l),
(68,191,l)
);
}
);
userData = {
assembly = "NPUSHB[ ]	/* 10 values pushed */
7 6 5 4 3 2 1 0 4 8
CALL[ ]	/* CallFunction */
NPUSHB[ ]	/* 33 values pushed */
0 0 0 1 2 0 1 0 0 41 0 2 3 3 2 0 0 38 0 2 2 3 0 0 39 0 3 2 3 0 0 36 4
PUSHB[ ]	/* 1 value pushed */
59
CALL[ ]	/* CallFunction */";
};
width = 627;
},
{
layerId = "6B1252CF-E426-46DC-A9C6-391C8BFD5F20";
shapes = (
{
closed = 1;
nodes = (
(1135,717,l),
(1135,854,l),
(150,854,l),
(150,717,l)
);
},
{
closed = 1;
nodes = (
(1135,387,l),
(1135,524,l),
(150,524,l),
(150,387,l)
);
}
);
width = 1285;
}
);
note = equal;
unicode = 61;
},
{
glyphname = greater;
lastChange = "2025-07-10 17:01:01 +0000";
layers = (
{
layerId = m01;
shapes = (
{
closed = 1;
nodes = (
(423,254,l),
(423,287,l),
(78,496,l),
(78,410,l),
(304,272,l),
(78,132,l),
(78,43,l)
);
}
);
userData = {
assembly = "NPUSHB[ ]	/* 4 values pushed */
3 6 1 13
CALL[ ]	/* CallFunction */";
};
width = 501;
},
{
layerId = "6B1252CF-E426-46DC-A9C6-391C8BFD5F20";
shapes = (
{
alignment = -1;
pos = (939,0);
ref = less;
scale = (-0.9999,1);
}
);
width = 939;
}
);
note = greater;
unicode = 62;
},
{
glyphname = question;
lastChange = "2025-07-10 17:01:01 +0000";
layers = (
{
layerId = m01;
shapes = (
{
closed = 1;
nodes = (
(272,266,o),
(253,272,o),
(236,281,o),
(236,292,qs),
(236,337,o),
(322,408,qs),
(360,439,o),
(387,467,qs),
(469,549,o),
(469,628,qs),
(469,693,o),
(419,732,qs),
(364,775,o),
(257,775,qs),
(157,775,o),
(68,724,q),
(68,587,ls),
(68,563,o),
(86,563,qs),
(94,563,o),
(108,583,o),
(110,592,qs),
(126,653,o),
(198,717,o),
(245,717,qs),
(268,717,o),
(287,711,qs),
(349,694,o),
(349,624,qs),
(349,556,o),
(281,474,qs),
(188,362,o),
(188,294,qs),
(188,259,o),
(215,233,qs),
(229,219,o),
(255,219,qs),
(289,219,o),
(289,244,qs),
(289,257,o)
);
},
{
closed = 1;
nodes = (
(229,-12,o),
(277,-12,o),
(298,7,qs),
(308,16,o),
(319,41,o),
(319,84,o),
(302,105,qs),
(293,116,o),
(267,129,o),
(217,129,o),
(196,107,qs),
(186,98,o),
(175,71,o),
(175,46,o),
(184,21,o),
(202,1,o)
);
}
);
userData = {
assembly = "NPUSHB[ ]	/* 14 values pushed */
54 53 46 45 26 24 21 19 15 13 3 1 6 8
CALL[ ]	/* CallFunction */
MPPEM[ ]	/* MeasurePixelPerEm */
PUSHB[ ]	/* 1 value pushed */
9
LT[ ]	/* LessThan */
IF[ ]	/* If */
NPUSHB[ ]	/* 47 values pushed */
23 1 1 3 1 33 0 2 1 0 1 2 0 53 0 0 4 1 0 4 51 0 1 1 3 1 0 39 0 3 3 12 34 0 4 4 5 1 0 39 0 5 5 13 5 35 7
ELSE[ ]	/* Else */
MPPEM[ ]	/* MeasurePixelPerEm */
PUSHB[ ]	/* 1 value pushed */
13
LT[ ]	/* LessThan */
IF[ ]	/* If */
NPUSHB[ ]	/* 47 values pushed */
23 1 1 3 1 33 0 2 1 0 1 2 0 53 0 0 4 1 0 4 51 0 1 1 3 1 0 39 0 3 3 12 34 0 4 4 5 1 0 39 0 5 5 16 5 35 7
ELSE[ ]	/* Else */
MPPEM[ ]	/* MeasurePixelPerEm */
PUSHB[ ]	/* 1 value pushed */
17
LT[ ]	/* LessThan */
IF[ ]	/* If */
NPUSHB[ ]	/* 47 values pushed */
23 1 1 3 1 33 0 2 1 0 1 2 0 53 0 0 4 1 0 4 51 0 1 1 3 1 0 39 0 3 3 12 34 0 4 4 5 1 0 39 0 5 5 13 5 35 7
ELSE[ ]	/* Else */
MPPEM[ ]	/* MeasurePixelPerEm */
PUSHB[ ]	/* 1 value pushed */
21
LT[ ]	/* LessThan */
IF[ ]	/* If */
NPUSHB[ ]	/* 47 values pushed */
23 1 1 3 1 33 0 2 1 0 1 2 0 53 0 0 4 1 0 4 51 0 1 1 3 1 0 39 0 3 3 12 34 0 4 4 5 1 0 39 0 5 5 16 5 35 7
ELSE[ ]	/* Else */
NPUSHB[ ]	/* 47 values pushed */
23 1 1 3 1 33 0 2 1 0 1 2 0 53 0 0 4 1 0 4 51 0 1 1 3 1 0 39 0 3 3 12 34 0 4 4 5 1 0 39 0 5 5 13 5 35 7
EIF[ ]	/* EndIf */
EIF[ ]	/* EndIf */
EIF[ ]	/* EndIf */
EIF[ ]	/* EndIf */
PUSHB[ ]	/* 1 value pushed */
59
CALL[ ]	/* CallFunction */";
};
width = 505;
},
{
layerId = "6B1252CF-E426-46DC-A9C6-391C8BFD5F20";
shapes = (
{
closed = 1;
nodes = (
(540,532,o),
(495,540,o),
(462,568,o),
(462,588,qs),
(462,683,o),
(638,827,qs),
(718,893,o),
(774,947,qs),
(934,1103,o),
(934,1270,qs),
(934,1399,o),
(833,1476,qs),
(720,1561,o),
(509,1561,qs),
(310,1561,o),
(130,1461,q),
(130,1185,ls),
(130,1142,o),
(163,1142,qs),
(177,1142,o),
(201,1179,o),
(205,1197,qs),
(238,1326,o),
(386,1453,o),
(483,1453,qs),
(700,1453,o),
(700,1259,qs),
(700,1117,o),
(561,953,qs),
(374,736,o),
(374,592,qs),
(374,522,o),
(427,471,qs),
(456,443,o),
(505,443,qs),
(569,443,o),
(569,490,qs),
(569,514,o)
);
},
{
closed = 1;
nodes = (
(452,-24,o),
(547,-24,o),
(588,12,qs),
(607,30,o),
(630,79,o),
(630,164,o),
(596,206,qs),
(579,227,o),
(527,253,o),
(430,253,o),
(388,210,qs),
(369,190,o),
(348,139,o),
(348,89,o),
(364,41,o),
(399,2,o)
);
}
);
width = 1034;
}
);
note = question;
unicode = 63;
},
{
glyphname = at;
lastChange = "2025-07-10 17:01:01 +0000";
layers = (
{
layerId = m01;
shapes = (
{
closed = 1;
nodes = (
(749,432,o),
(640,432,qs),
(569,432,o),
(457,383,o),
(378,302,o),
(336,200,o),
(336,146,qs),
(336,138,ls),
(336,79,o),
(368,40,qs),
(406,-7,o),
(490,-7,qs),
(563,-7,o),
(631,58,q),
(631,54,o),
(631,48,o),
(631,44,qs),
(634,5,o),
(664,5,q),
(719,8,l),
(755,6,l),
(827,6,o),
(904,58,qs),
(982,111,o),
(1032,193,qs),
(1086,283,o),
(1086,378,qs),
(1086,389,ls),
(1086,393,o),
(1086,398,qs),
(1077,534,o),
(976,608,qs),
(878,681,o),
(720,681,qs),
(533,681,o),
(382,598,qs),
(240,520,o),
(159,386,qs),
(79,254,o),
(79,104,qs),
(79,-83,o),
(210,-179,qs),
(265,-219,o),
(403,-257,o),
(599,-257,o),
(675,-232,qs),
(713,-220,o),
(766,-181,o),
(783,-143,o),
(774,-119,o),
(751,-107,o),
(727,-107,o),
(721,-120,qs),
(718,-125,o),
(718,-134,o),
(717,-137,qs),
(707,-158,o),
(619,-184,qs),
(568,-199,o),
(498,-199,qs),
(348,-199,o),
(268,-115,qs),
(186,-29,o),
(186,124,qs),
(186,246,o),
(247,358,qs),
(310,477,o),
(419,547,qs),
(540,625,o),
(689,625,qs),
(818,625,o),
(896,559,qs),
(974,492,o),
(982,373,qs),
(983,359,o),
(983,325,qs),
(983,297,o),
(973,258,qs),
(945,145,o),
(858,91,qs),
(808,59,o),
(758,59,qs),
(756,59,o),
(756,62,q),
(756,63,l),
(808,374,l)
);
},
{
closed = 1;
nodes = (
(468,242,o),
(520,314,qs),
(542,345,o),
(596,381,o),
(656,381,o),
(681,354,q),
(644,136,l),
(631,118,o),
(617,103,qs),
(571,52,o),
(529,52,qs),
(468,52,o),
(468,145,qs),
(468,153,ls)
);
}
);
userData = {
assembly = "NPUSHB[ ]	/* 24 values pushed */
95 94 89 87 84 82 74 72 67 63 52 50 41 40 34 33 26 24 16 14 4 2 11 8
CALL[ ]	/* CallFunction */
MPPEM[ ]	/* MeasurePixelPerEm */
PUSHB[ ]	/* 1 value pushed */
19
LT[ ]	/* LessThan */
IF[ ]	/* If */
NPUSHB[ ]	/* 73 values pushed */
55 1 10 8 93 85 11 1 4 0 10 71 1 6 0 3 33 0 3 6 2 6 3 2 53 0 5 0 1 8 5 1 1 0 41 0 8 0 10 0 8 10 1 0 41 9 1 0 0 6 1 0 39 7 1 6 6 13 34 0 2 2 4 1 0 39 0 4 4 17 4 35 8
ELSE[ ]	/* Else */
NPUSHB[ ]	/* 85 values pushed */
55 1 10 8 93 85 11 1 4 0 10 71 1 6 0 3 33 0 3 7 2 7 3 2 53 0 5 0 1 8 5 1 1 0 41 0 8 0 10 0 8 10 1 0 41 9 1 0 0 6 1 0 39 0 6 6 13 34 9 1 0 0 7 1 0 39 0 7 7 13 34 0 2 2 4 1 0 39 0 4 4 17 4 35 10
EIF[ ]	/* EndIf */
PUSHB[ ]	/* 1 value pushed */
59
CALL[ ]	/* CallFunction */";
};
width = 1135;
},
{
layerId = "6B1252CF-E426-46DC-A9C6-391C8BFD5F20";
shapes = (
{
closed = 1;
nodes = (
(1224,-356,qs),
(1097,-417,o),
(952,-417,qs),
(791,-417,o),
(679,-373,qs),
(364,-249,o),
(364,182,qs),
(364,434,o),
(496,678,qs),
(634,932,o),
(868,1084,qs),
(1126,1252,o),
(1444,1252,qs),
(1708,1252,o),
(1858,1118,qs),
(2010,983,o),
(2010,740,qs),
(2010,558,o),
(1931,406,qs),
(1895,336,o),
(1803,227,o),
(1703,153,o),
(1605,114,o),
(1546,114,o),
(1531,108,qs),
(1506,100,ls),
(1497,96,o),
(1490,100,o),
(1493,115,qs),
(1636,742,l),
(1530,857,o),
(1309,857,qs),
(1119,857,o),
(966,765,qs),
(895,722,o),
(782,606,o),
(703,470,o),
(662,322,o),
(662,135,o),
(712,70,qs),
(782,-24,o),
(950,-24,qs),
(1106,-24,o),
(1251,116,q),
(1231,0,o),
(1303,0,qs),
(1335,0,o),
(1362,3,qs),
(1403,6,ls),
(1432,8,o),
(1485,2,qs),
(1500,1,o),
(1534,26,qs),
(1558,44,ls),
(1569,52,o),
(1579,52,qs),
(1716,52,o),
(1864,158,qs),
(2016,267,o),
(2111,430,qs),
(2215,609,o),
(2215,793,qs),
(2215,1063,o),
(2020,1213,qs),
(1833,1356,o),
(1514,1356,qs),
(1121,1356,o),
(796,1174,qs),
(488,1003,o),
(132,434,o),
(132,120,qs),
(132,-207,o),
(369,-378,qs),
(579,-530,o),
(898,-530,qs),
(1133,-530,o),
(1294,-435,qs),
(1368,-391,o),
(1453,-274,o),
(1453,-176,o),
(1413,-138,o),
(1356,-138,o),
(1330,-170,o),
(1330,-190,q),
(1343,-239,l),
(1343,-297,o)
);
},
{
closed = 1;
nodes = (
(1257,220,o),
(1227,190,qs),
(1125,86,o),
(1036,86,qs),
(972,86,o),
(938,143,qs),
(919,176,o),
(919,262,qs),
(919,458,o),
(1038,614,qs),
(1151,762,o),
(1265,762,qs),
(1341,762,o),
(1388,703,q),
(1283,255,l)
);
}
);
width = 2325;
}
);
note = at;
unicode = 64;
},
{
glyphname = A;
kernLeft = A;
kernRight = A;
lastChange = "2025-07-10 17:01:01 +0000";
layers = (
{
layerId = m01;
shapes = (
{
closed = 1;
nodes = (
(219,-7,o),
(244,11,o),
(244,31,o),
(233,44,o),
(225,44,q),
(201,41,l),
(166,41,o),
(166,62,qs),
(167,79,o),
(192,140,q),
(207,182,l),
(220,213,o),
(270,213,qs),
(526,213,ls),
(552,213,o),
(577,199,o),
(583,185,qs),
(617,120,l),
(637,77,o),
(637,56,qs),
(637,39,o),
(607,39,q),
(572,43,l),
(554,43,o),
(554,22,qs),
(554,18,o),
(557,13,qs),
(567,-7,o),
(603,-7,q),
(724,0,l),
(820,-7,l),
(842,-7,o),
(862,11,o),
(862,30,o),
(854,44,o),
(844,44,q),
(819,41,l),
(800,41,o),
(777,64,qs),
(761,80,o),
(736,134,qs),
(478,698,ls),
(457,746,o),
(444,765,qs),
(438,774,o),
(427,782,o),
(418,782,o),
(407,775,o),
(393,745,qs),
(131,179,ls),
(89,89,o),
(64,58,qs),
(51,41,o),
(28,41,q),
(4,43,l),
(-15,43,o),
(-15,21,qs),
(-15,12,o),
(5,-7,o),
(26,-7,q),
(96,0,l),
(194,-7,l)
);
},
{
closed = 1;
nodes = (
(258,275,o),
(258,289,qs),
(258,294,o),
(265,310,qs),
(378,568,ls),
(392,602,o),
(401,602,qs),
(409,602,o),
(427,556,qs),
(532,300,ls),
(536,292,o),
(536,289,qs),
(536,275,o),
(481,275,qs),
(312,275,ls)
);
}
);
userData = {
assembly = "NPUSHB[ ]	/* 38 values pushed */
63 62 70 68 62 76 63 75 61 60 57 56 55 54 49 46 40 39 38 37 33 31 30 29 26 25 24 23 15 14 8 7 6 5 2 1 17 8
CALL[ ]	/* CallFunction */
NPUSHB[ ]	/* 54 values pushed */
0 1 0 1 1 33 0 15 3 14 3 15 14 53 16 1 14 0 10 1 14 10 1 2 41 0 3 3 12 34 12 11 9 8 5 4 2 7 1 1 0 1 0 39 13 7 6 3 0 0 13 0 35 6
PUSHB[ ]	/* 1 value pushed */
59
CALL[ ]	/* CallFunction */";
};
width = 833;
},
{
layerId = "6B1252CF-E426-46DC-A9C6-391C8BFD5F20";
shapes = (
{
closed = 1;
nodes = (
(289,5,qs),
(323,0,o),
(379,0,qs),
(474,0,o),
(474,45,qs),
(474,74,o),
(442,74,q),
(393,66,l),
(316,66,o),
(316,116,qs),
(316,147,o),
(371,279,qs),
(420,395,ls),
(427,412,o),
(435,424,qs),
(459,460,o),
(533,460,qs),
(1050,460,ls),
(1102,460,o),
(1130,443,qs),
(1147,433,o),
(1162,401,qs),
(1239,240,ls),
(1263,188,o),
(1272,158,qs),
(1276,142,o),
(1280,116,o),
(1280,80,o),
(1254,63,o),
(1225,63,q),
(1154,73,l),
(1122,73,o),
(1122,45,qs),
(1122,30,o),
(1165,0,o),
(1216,0,q),
(1461,15,l),
(1655,0,l),
(1735,0,o),
(1735,45,qs),
(1735,74,o),
(1702,74,q),
(1653,66,l),
(1634,66,o),
(1616,75,qs),
(1560,103,o),
(1486,265,qs),
(965,1404,ls),
(918,1506,o),
(892,1546,qs),
(875,1570,o),
(857,1570,qs),
(839,1570,o),
(822,1545,qs),
(811,1529,o),
(778,1463,o),
(267,355,qs),
(185,174,o),
(130,104,qs),
(101,66,o),
(55,66,q),
(6,73,l),
(-27,73,o),
(-27,45,qs),
(-27,27,o),
(10,0,o),
(50,0,q),
(190,15,l),
(221,15,o)
);
},
{
closed = 1;
nodes = (
(517,623,qs),
(746,1176,ls),
(771,1237,o),
(787,1237,qs),
(807,1237,o),
(846,1141,qs),
(1068,604,ls),
(1075,586,o),
(1075,578,qs),
(1075,570,o),
(1070,564,qs),
(1056,547,o),
(960,547,qs),
(617,547,ls),
(504,547,o),
(504,578,qs),
(504,594,o)
);
}
);
width = 1707;
}
);
note = A;
unicode = 65;
},
{
glyphname = B;
kernLeft = H;
kernRight = B;
lastChange = "2025-07-10 17:01:01 +0000";
layers = (
{
layerId = m01;
shapes = (
{
closed = 1;
nodes = (
(353,-8,qs),
(402,-12,o),
(425,-12,qs),
(567,-12,o),
(648,60,qs),
(724,125,o),
(724,229,qs),
(724,299,o),
(668,353,qs),
(614,405,o),
(523,427,q),
(587,455,o),
(657,548,o),
(657,652,o),
(637,688,qs),
(625,707,o),
(589,740,o),
(535,764,o),
(461,777,o),
(393,777,o),
(370,775,qs),
(322,770,ls),
(297,767,o),
(244,762,o),
(183,762,o),
(154,766,qs),
(143,767,o),
(116,769,o),
(73,769,o),
(61,758,qs),
(55,754,o),
(51,744,o),
(51,731,o),
(61,718,o),
(70,718,q),
(94,721,l),
(113,721,o),
(138,707,o),
(156,667,o),
(156,602,qs),
(156,154,ls),
(156,91,o),
(146,67,qs),
(135,41,o),
(101,41,q),
(70,44,l),
(61,44,o),
(51,30,o),
(51,19,o),
(53,14,qs),
(62,-7,o),
(97,-7,q),
(217,0,l),
(255,0,o)
);
},
{
closed = 1;
nodes = (
(270,664,o),
(284,682,o),
(325,696,o),
(389,696,qs),
(536,696,o),
(536,587,qs),
(536,514,o),
(491,477,qs),
(470,459,o),
(413,442,o),
(319,442,o),
(270,452,q),
(270,649,ls)
);
},
{
closed = 1;
nodes = (
(600,225,qs),
(600,135,o),
(548,96,qs),
(524,77,o),
(458,62,o),
(342,62,o),
(270,95,o),
(270,129,qs),
(270,373,l),
(316,380,o),
(417,380,o),
(461,371,qs),
(600,343,o)
);
}
);
userData = {
assembly = "NPUSHB[ ]	/* 32 values pushed */
2 0 74 73 69 68 63 61 56 55 51 49 34 33 29 28 25 24 19 18 17 16 9 8 7 6 0 53 2 53 14 8
CALL[ ]	/* CallFunction */
NPUSHB[ ]	/* 84 values pushed */
54 1 9 10 42 1 11 9 70 1 12 11 3 33 0 9 0 11 12 9 11 1 0 41 4 1 3 3 5 1 0 39 7 6 2 5 5 12 34 0 10 10 5 1 0 39 7 6 2 5 5 12 34 0 12 12 0 1 0 39 8 13 2 0 0 13 34 2 1 1 1 0 1 2 39 8 13 2 0 0 13 0 35 10
PUSHB[ ]	/* 1 value pushed */
59
CALL[ ]	/* CallFunction */";
};
width = 772;
},
{
layerId = "6B1252CF-E426-46DC-A9C6-391C8BFD5F20";
shapes = (
{
closed = 1;
nodes = (
(272,1418,qs),
(283,1396,o),
(311,1318,o),
(311,1195,qs),
(311,321,ls),
(311,279,o),
(304,157,o),
(273,102,qs),
(252,66,o),
(195,66,q),
(131,73,l),
(98,73,o),
(98,46,qs),
(98,30,o),
(116,15,qs),
(151,-13,o),
(298,8,qs),
(319,11,o),
(361,13,qs),
(380,14,o),
(511,18,o),
(674,-9,qs),
(766,-24,o),
(849,-24,qs),
(1133,-24,o),
(1298,118,qs),
(1451,250,o),
(1451,459,qs),
(1451,611,o),
(1334,728,qs),
(1218,844,o),
(1033,886,q),
(1099,910,o),
(1152,944,qs),
(1317,1052,o),
(1317,1220,qs),
(1317,1353,o),
(1194,1442,qs),
(1133,1486,o),
(949,1539,o),
(735,1539,o),
(594,1523,qs),
(514,1514,o),
(421,1514,qs),
(365,1514,o),
(296,1522,qs),
(248,1526,ls),
(223,1528,o),
(135,1528,o),
(98,1499,o),
(98,1483,qs),
(98,1455,o),
(131,1455,q),
(180,1462,l),
(248,1462,o)
);
},
{
closed = 1;
nodes = (
(531,1392,o),
(650,1447,o),
(914,1447,o),
(996,1373,qs),
(1078,1299,o),
(1078,1181,qs),
(1078,1046,o),
(987,978,qs),
(944,945,o),
(826,914,o),
(627,914,o),
(531,934,q),
(531,1331,ls)
);
},
{
closed = 1;
nodes = (
(1207,539,o),
(1207,351,o),
(1179,281,qs),
(1097,76,o),
(838,76,qs),
(531,76,o),
(531,231,qs),
(531,814,l),
(621,829,o),
(835,829,o),
(1015,778,o),
(1140,680,o)
);
}
);
width = 1534;
}
);
note = B;
unicode = 66;
},
{
glyphname = C;
kernLeft = O;
kernRight = C;
lastChange = "2025-07-10 17:01:01 +0000";
layers = (
{
layerId = m01;
shapes = (
{
closed = 1;
nodes = (
(755,274,o),
(737,274,qs),
(718,274,o),
(710,243,qs),
(696,188,o),
(674,153,qs),
(615,60,o),
(501,60,qs),
(358,60,o),
(264,150,qs),
(164,247,o),
(164,406,qs),
(164,531,o),
(246,620,qs),
(283,661,o),
(378,706,o),
(429,706,qs),
(633,706,o),
(717,552,qs),
(724,539,o),
(739,539,qs),
(746,539,o),
(758,549,o),
(758,574,o),
(741,640,qs),
(733,670,o),
(729,698,qs),
(727,712,o),
(726,742,o),
(726,785,o),
(712,785,qs),
(705,785,o),
(691,772,o),
(652,733,o),
(629,733,o),
(615,740,qs),
(538,777,o),
(455,777,qs),
(340,777,o),
(247,728,qs),
(202,704,o),
(128,633,o),
(77,543,o),
(48,435,o),
(48,294,o),
(105,155,o),
(158,103,qs),
(272,-11,o),
(460,-11,qs),
(636,-11,o),
(755,102,q),
(755,243,ls)
);
}
);
userData = {
assembly = "NPUSHB[ ]	/* 18 values pushed */
50 48 44 42 35 33 31 29 21 19 17 16 14 12 3 1 8 8
CALL[ ]	/* CallFunction */
MPPEM[ ]	/* MeasurePixelPerEm */
PUSHB[ ]	/* 1 value pushed */
13
LT[ ]	/* LessThan */
IF[ ]	/* If */
NPUSHB[ ]	/* 55 values pushed */
0 1 6 7 1 33 0 2 1 5 1 2 45 0 4 5 7 5 4 7 53 0 7 6 5 7 6 51 0 5 5 1 1 0 39 3 1 1 1 12 34 0 6 6 0 1 0 39 0 0 0 13 0 35 8
ELSE[ ]	/* Else */
MPPEM[ ]	/* MeasurePixelPerEm */
PUSHB[ ]	/* 1 value pushed */
17
LT[ ]	/* LessThan */
IF[ ]	/* If */
NPUSHB[ ]	/* 55 values pushed */
0 1 6 7 1 33 0 2 1 5 1 2 45 0 4 5 7 5 4 7 53 0 7 6 5 7 6 51 0 5 5 1 1 0 39 3 1 1 1 12 34 0 6 6 0 1 0 39 0 0 0 16 0 35 8
ELSE[ ]	/* Else */
MPPEM[ ]	/* MeasurePixelPerEm */
PUSHB[ ]	/* 1 value pushed */
21
LT[ ]	/* LessThan */
IF[ ]	/* If */
NPUSHB[ ]	/* 55 values pushed */
0 1 6 7 1 33 0 2 1 5 1 2 45 0 4 5 7 5 4 7 53 0 7 6 5 7 6 51 0 5 5 1 1 0 39 3 1 1 1 12 34 0 6 6 0 1 0 39 0 0 0 13 0 35 8
ELSE[ ]	/* Else */
NPUSHB[ ]	/* 55 values pushed */
0 1 6 7 1 33 0 2 1 5 1 2 45 0 4 5 7 5 4 7 53 0 7 6 5 7 6 51 0 5 5 1 1 0 39 3 1 1 1 12 34 0 6 6 0 1 0 39 0 0 0 16 0 35 8
EIF[ ]	/* EndIf */
EIF[ ]	/* EndIf */
EIF[ ]	/* EndIf */
PUSHB[ ]	/* 1 value pushed */
59
CALL[ ]	/* CallFunction */";
};
width = 814;
},
{
layerId = "6B1252CF-E426-46DC-A9C6-391C8BFD5F20";
shapes = (
{
closed = 1;
nodes = (
(1557,544,o),
(1519,544,o),
(1504,511,o),
(1497,485,qs),
(1469,374,o),
(1420,298,qs),
(1286,92,o),
(1050,92,qs),
(909,92,o),
(660,211,o),
(473,422,o),
(364,709,o),
(364,877,qs),
(364,1134,o),
(530,1300,qs),
(693,1463,o),
(934,1463,qs),
(1105,1463,o),
(1264,1368,qs),
(1426,1272,o),
(1509,1112,qs),
(1520,1089,o),
(1540,1089,qs),
(1564,1089,o),
(1564,1131,qs),
(1564,1154,o),
(1554,1189,qs),
(1530,1282,ls),
(1514,1341,o),
(1505,1406,qs),
(1501,1434,o),
(1498,1493,o),
(1498,1576,o),
(1473,1576,qs),
(1460,1576,o),
(1432,1548,qs),
(1389,1505,ls),
(1357,1473,o),
(1325,1473,qs),
(1309,1473,o),
(1244,1500,qs),
(1200,1518,o),
(1138,1535,qs),
(1098,1546,o),
(999,1561,o),
(832,1561,o),
(732,1534,qs),
(528,1479,o),
(382,1332,qs),
(149,1095,o),
(149,729,qs),
(149,406,o),
(367,196,qs),
(593,-23,o),
(957,-23,qs),
(1320,-23,o),
(1557,202,q),
(1557,485,ls)
);
}
);
width = 1707;
}
);
note = C;
unicode = 67;
},
{
glyphname = D;
kernLeft = H;
kernRight = O;
lastChange = "2025-07-10 17:01:01 +0000";
layers = (
{
layerId = m01;
shapes = (
{
closed = 1;
nodes = (
(138,707,o),
(156,666,o),
(156,602,qs),
(156,153,ls),
(156,90,o),
(146,66,qs),
(135,40,o),
(102,40,q),
(70,43,l),
(51,43,o),
(51,20,qs),
(51,11,o),
(61,3,qs),
(66,-1,o),
(83,-8,o),
(124,-8,o),
(161,-4,qs),
(174,-2,o),
(201,0,o),
(245,0,o),
(268,-2,qs),
(334,-8,ls),
(377,-12,o),
(435,-12,qs),
(559,-12,o),
(660,40,qs),
(761,91,o),
(818,179,qs),
(878,271,o),
(878,383,qs),
(878,566,o),
(770,668,qs),
(653,777,o),
(427,777,qs),
(390,777,o),
(322,770,qs),
(298,767,o),
(249,762,o),
(187,762,o),
(157,766,qs),
(145,767,o),
(117,769,o),
(74,769,o),
(61,758,qs),
(55,754,o),
(51,744,o),
(51,731,o),
(61,718,o),
(70,718,q),
(94,721,l),
(114,721,o)
);
},
{
closed = 1;
nodes = (
(273,667,o),
(292,688,o),
(343,706,o),
(416,706,qs),
(576,706,o),
(662,625,qs),
(752,540,o),
(752,373,qs),
(752,201,o),
(667,127,qs),
(626,91,o),
(507,61,o),
(336,61,o),
(305,75,qs),
(273,90,o),
(273,131,qs),
(273,650,ls)
);
}
);
userData = {
assembly = "NPUSHB[ ]	/* 30 values pushed */
0 0 64 62 55 54 0 50 0 50 43 42 41 40 35 34 31 30 27 25 17 15 12 11 8 7 2 1 13 8
CALL[ ]	/* CallFunction */
MPPEM[ ]	/* MeasurePixelPerEm */
PUSHB[ ]	/* 1 value pushed */
9
LT[ ]	/* LessThan */
IF[ ]	/* If */
NPUSHB[ ]	/* 48 values pushed */
11 12 9 3 0 0 1 1 0 39 3 2 2 1 1 12 34 0 10 10 4 1 0 39 6 5 2 4 4 13 34 8 1 7 7 4 1 0 39 6 5 2 4 4 13 4 35 6
ELSE[ ]	/* Else */
MPPEM[ ]	/* MeasurePixelPerEm */
PUSHB[ ]	/* 1 value pushed */
13
LT[ ]	/* LessThan */
IF[ ]	/* If */
NPUSHB[ ]	/* 48 values pushed */
11 12 9 3 0 0 1 1 0 39 3 2 2 1 1 12 34 0 10 10 4 1 0 39 6 5 2 4 4 16 34 8 1 7 7 4 1 0 39 6 5 2 4 4 16 4 35 6
ELSE[ ]	/* Else */
MPPEM[ ]	/* MeasurePixelPerEm */
PUSHB[ ]	/* 1 value pushed */
17
LT[ ]	/* LessThan */
IF[ ]	/* If */
NPUSHB[ ]	/* 48 values pushed */
11 12 9 3 0 0 1 1 0 39 3 2 2 1 1 12 34 0 10 10 4 1 0 39 6 5 2 4 4 13 34 8 1 7 7 4 1 0 39 6 5 2 4 4 13 4 35 6
ELSE[ ]	/* Else */
MPPEM[ ]	/* MeasurePixelPerEm */
PUSHB[ ]	/* 1 value pushed */
21
LT[ ]	/* LessThan */
IF[ ]	/* If */
NPUSHB[ ]	/* 48 values pushed */
11 12 9 3 0 0 1 1 0 39 3 2 2 1 1 12 34 0 10 10 4 1 0 39 6 5 2 4 4 16 34 8 1 7 7 4 1 0 39 6 5 2 4 4 16 4 35 6
ELSE[ ]	/* Else */
NPUSHB[ ]	/* 64 values pushed */
12 9 2 0 0 1 1 0 39 3 2 2 1 1 12 34 0 11 11 1 1 0 39 3 2 2 1 1 12 34 0 10 10 4 1 0 39 6 1 4 4 13 34 0 5 5 13 34 8 1 7 7 4 1 0 39 6 1 4 4 13 4 35 9
EIF[ ]	/* EndIf */
EIF[ ]	/* EndIf */
EIF[ ]	/* EndIf */
EIF[ ]	/* EndIf */
PUSHB[ ]	/* 1 value pushed */
59
CALL[ ]	/* CallFunction */";
};
width = 897;
},
{
layerId = "6B1252CF-E426-46DC-A9C6-391C8BFD5F20";
shapes = (
{
closed = 1;
nodes = (
(274,1418,qs),
(285,1396,o),
(313,1318,o),
(313,1195,qs),
(313,321,ls),
(313,279,o),
(306,157,o),
(275,102,qs),
(254,66,o),
(197,66,q),
(133,73,l),
(100,73,o),
(100,46,qs),
(100,30,o),
(118,15,qs),
(153,-13,o),
(300,8,qs),
(320,11,o),
(364,13,qs),
(382,14,o),
(418,15,o),
(513,15,o),
(623,-1,qs),
(730,-16,ls),
(789,-24,o),
(872,-24,qs),
(1249,-24,o),
(1505,200,qs),
(1765,428,o),
(1765,770,qs),
(1765,1122,o),
(1530,1332,qs),
(1295,1542,o),
(905,1542,qs),
(810,1542,o),
(632,1524,qs),
(534,1514,o),
(433,1514,qs),
(367,1514,o),
(298,1522,qs),
(250,1526,ls),
(225,1528,o),
(137,1528,o),
(100,1499,o),
(100,1483,qs),
(100,1455,o),
(133,1455,q),
(182,1462,l),
(250,1462,o)
);
},
{
closed = 1;
nodes = (
(1156,1445,o),
(1334,1271,qs),
(1518,1091,o),
(1518,748,qs),
(1518,396,o),
(1345,230,qs),
(1261,150,o),
(1017,76,o),
(676,76,o),
(604,114,qs),
(539,149,o),
(539,239,qs),
(539,1311,ls),
(539,1445,o)
);
}
);
width = 1880;
}
);
note = D;
unicode = 68;
},
{
glyphname = E;
kernLeft = H;
kernRight = E;
lastChange = "2025-07-10 17:01:01 +0000";
layers = (
{
layerId = m01;
shapes = (
{
closed = 1;
nodes = (
(271,341,o),
(293,358,o),
(313,358,qs),
(435,358,ls),
(456,358,o),
(477,344,qs),
(487,336,o),
(507,313,o),
(517,291,o),
(523,282,o),
(529,282,qs),
(544,282,o),
(544,310,q),
(541,392,l),
(544,471,l),
(544,498,o),
(529,498,qs),
(523,498,o),
(517,490,o),
(507,467,o),
(497,456,qs),
(469,421,o),
(435,421,qs),
(314,421,ls),
(271,421,o),
(271,447,qs),
(271,655,ls),
(271,676,o),
(291,699,o),
(317,699,qs),
(449,699,ls),
(489,699,o),
(514,693,qs),
(527,690,o),
(560,675,o),
(587,646,qs),
(616,614,ls),
(633,595,o),
(640,595,qs),
(650,595,o),
(650,609,qs),
(650,616,o),
(646,632,qs),
(633,687,ls),
(624,727,o),
(621,762,q),
(217,762,ls),
(190,762,o),
(154,766,qs),
(129,769,ls),
(116,770,o),
(73,770,o),
(61,759,qs),
(55,754,o),
(51,744,o),
(51,731,o),
(61,719,o),
(70,719,q),
(94,722,l),
(113,722,o),
(138,707,o),
(156,667,o),
(156,602,qs),
(156,161,ls),
(156,95,o),
(146,70,qs),
(135,41,o),
(101,41,q),
(70,44,l),
(61,44,o),
(51,30,o),
(51,12,o),
(61,3,qs),
(65,-1,o),
(83,-7,o),
(116,-7,o),
(131,-6,qs),
(188,-1,ls),
(202,0,o),
(222,0,qs),
(629,0,l),
(649,74,o),
(678,133,qs),
(707,189,o),
(682,188,qs),
(678,187,o),
(667,185,o),
(650,169,qs),
(633,150,ls),
(618,133,o),
(600,117,qs),
(540,63,o),
(419,63,qs),
(317,63,ls),
(271,63,o),
(271,129,qs),
(271,328,ls)
);
}
);
userData = {
assembly = "NPUSHB[ ]	/* 34 values pushed */
94 91 86 84 80 78 74 71 67 64 58 56 50 48 45 44 39 38 37 36 29 28 27 26 21 20 18 15 12 11 4 1 16 8
CALL[ ]	/* CallFunction */
NPUSHB[ ]	/* 94 values pushed */
0 10 11 13 11 10 13 53 0 1 14 0 14 1 0 53 0 12 0 15 14 12 15 1 0 41 7 1 6 6 8 1 0 39 9 1 8 8 12 34 0 11 11 8 1 0 39 9 1 8 8 12 34 0 14 14 13 1 0 39 0 13 13 15 34 0 0 0 2 1 0 39 3 1 2 2 13 34 5 1 4 4 2 1 0 39 3 1 2 2 13 2 35 13
PUSHB[ ]	/* 1 value pushed */
59
CALL[ ]	/* CallFunction */";
};
width = 703;
},
{
layerId = "6B1252CF-E426-46DC-A9C6-391C8BFD5F20";
shapes = (
{
closed = 1;
nodes = (
(487,706,o),
(534,745,o),
(577,745,qs),
(823,745,ls),
(864,745,o),
(910,710,qs),
(933,693,o),
(974,641,o),
(999,581,o),
(1013,581,qs),
(1039,581,o),
(1039,631,q),
(1031,787,l),
(1039,946,l),
(1039,997,o),
(1013,997,qs),
(1004,997,o),
(993,981,o),
(974,937,o),
(954,912,qs),
(895,842,o),
(823,842,qs),
(578,842,ls),
(487,842,o),
(487,899,qs),
(487,1323,ls),
(487,1368,o),
(528,1415,o),
(584,1415,qs),
(851,1415,ls),
(932,1415,o),
(986,1395,qs),
(1012,1385,o),
(1056,1358,o),
(1110,1314,o),
(1229,1179,qs),
(1244,1161,o),
(1258,1161,qs),
(1274,1161,o),
(1274,1209,o),
(1228,1356,qs),
(1202,1442,o),
(1194,1513,q),
(382,1513,ls),
(328,1513,o),
(250,1522,qs),
(202,1526,ls),
(177,1528,o),
(89,1528,o),
(52,1499,o),
(52,1483,qs),
(52,1455,o),
(85,1455,q),
(134,1462,l),
(202,1462,o),
(226,1418,qs),
(237,1396,o),
(265,1318,o),
(265,1195,qs),
(265,321,ls),
(265,153,o),
(227,86,qs),
(206,51,o),
(149,51,q),
(85,58,l),
(52,58,o),
(52,31,qs),
(52,15,o),
(89,-15,o),
(199,-15,o),
(265,-5,qs),
(298,0,o),
(393,0,qs),
(1213,0,l),
(1238,72,ls),
(1250,105,o),
(1278,168,o),
(1312,231,o),
(1369,327,o),
(1369,354,qs),
(1369,368,o),
(1327,368,o),
(1291,332,qs),
(1242,282,ls),
(1217,257,o),
(1189,232,qs),
(1034,97,o),
(791,97,qs),
(584,97,ls),
(487,97,o),
(487,236,qs),
(487,678,ls)
);
}
);
width = 1367;
}
);
note = E;
unicode = 69;
},
{
glyphname = F;
kernLeft = H;
kernRight = F;
lastChange = "2025-07-10 17:01:01 +0000";
layers = (
{
layerId = m01;
shapes = (
{
closed = 1;
nodes = (
(395,4,qs),
(400,8,o),
(406,19,o),
(406,30,o),
(396,45,o),
(388,45,q),
(326,41,l),
(309,41,o),
(287,54,o),
(271,91,o),
(271,154,qs),
(271,326,ls),
(271,339,o),
(293,356,o),
(313,356,qs),
(448,356,ls),
(458,356,o),
(468,353,qs),
(506,340,o),
(527,295,q),
(532,280,o),
(542,280,qs),
(557,280,o),
(557,308,q),
(553,384,l),
(557,469,l),
(557,496,o),
(542,496,qs),
(536,496,o),
(529,488,o),
(520,465,o),
(510,454,qs),
(481,419,o),
(448,419,qs),
(314,419,ls),
(271,419,o),
(271,445,qs),
(271,646,ls),
(271,670,o),
(295,699,o),
(317,699,qs),
(458,699,ls),
(523,699,o),
(568,667,qs),
(588,652,o),
(621,616,o),
(647,583,o),
(655,583,qs),
(666,583,o),
(666,617,o),
(652,669,qs),
(640,716,ls),
(633,739,o),
(630,762,q),
(221,762,ls),
(203,762,o),
(189,764,qs),
(132,769,ls),
(117,770,o),
(74,770,o),
(61,759,qs),
(56,754,o),
(51,744,o),
(51,731,o),
(61,719,o),
(70,719,q),
(94,722,l),
(114,722,o),
(139,707,o),
(156,668,o),
(156,602,qs),
(156,154,ls),
(156,90,o),
(146,67,qs),
(135,41,o),
(102,41,q),
(70,44,l),
(51,44,o),
(51,21,qs),
(51,12,o),
(61,4,qs),
(66,0,o),
(84,-7,o),
(128,-7,o),
(168,-2,qs),
(190,0,o),
(214,0,q),
(355,-7,l),
(379,-7,o)
);
}
);
userData = {
assembly = "NPUSHB[ ]	/* 36 values pushed */
2 0 83 80 74 71 67 65 61 59 55 52 48 45 41 39 34 32 30 28 23 22 21 20 13 12 11 10 5 4 0 88 2 88 16 8
CALL[ ]	/* CallFunction */
NPUSHB[ ]	/* 75 values pushed */
0 8 9 11 9 8 11 53 0 10 0 13 12 10 13 1 0 41 5 1 4 4 6 1 0 39 7 1 6 6 12 34 0 9 9 6 1 0 39 7 1 6 6 12 34 0 12 12 11 1 0 39 0 11 11 15 34 14 3 2 2 2 0 1 0 39 1 15 2 0 0 13 0 35 10
PUSHB[ ]	/* 1 value pushed */
59
CALL[ ]	/* CallFunction */";
};
width = 689;
},
{
layerId = "6B1252CF-E426-46DC-A9C6-391C8BFD5F20";
shapes = (
{
closed = 1;
nodes = (
(532,102,qs),
(522,120,o),
(494,197,o),
(494,321,qs),
(494,674,ls),
(494,702,o),
(541,740,o),
(584,740,qs),
(877,740,ls),
(917,740,o),
(964,705,qs),
(986,688,o),
(1026,637,o),
(1053,577,o),
(1067,577,qs),
(1092,577,o),
(1092,627,q),
(1084,782,l),
(1092,942,l),
(1092,993,o),
(1067,993,qs),
(1057,993,o),
(1046,977,o),
(1026,932,o),
(1006,908,qs),
(948,838,o),
(877,838,qs),
(585,838,ls),
(494,838,o),
(494,895,qs),
(494,1303,ls),
(494,1356,o),
(545,1415,o),
(591,1415,qs),
(867,1415,ls),
(948,1415,o),
(1002,1395,qs),
(1029,1385,o),
(1073,1358,o),
(1123,1317,o),
(1212,1218,qs),
(1231,1197,o),
(1259,1161,o),
(1291,1161,o),
(1291,1210,o),
(1246,1351,qs),
(1221,1433,o),
(1210,1513,q),
(396,1513,ls),
(380,1513,o),
(362,1514,qs),
(312,1517,ls),
(281,1518,o),
(257,1522,q),
(209,1526,ls),
(184,1528,o),
(96,1528,o),
(59,1499,o),
(59,1483,qs),
(59,1455,o),
(92,1455,q),
(141,1462,l),
(209,1462,o),
(232,1418,qs),
(244,1396,o),
(272,1318,o),
(272,1195,qs),
(272,321,ls),
(272,279,o),
(265,157,o),
(234,102,qs),
(213,66,o),
(156,66,q),
(92,73,l),
(59,73,o),
(59,46,qs),
(59,30,o),
(78,15,qs),
(113,-14,o),
(272,10,qs),
(305,15,o),
(383,15,qs),
(412,15,o),
(448,13,qs),
(465,12,o),
(497,9,o),
(540,4,o),
(568,2,qs),
(587,1,o),
(624,0,o),
(690,0,o),
(737,30,o),
(737,58,o),
(720,76,o),
(704,76,q),
(610,66,l),
(553,66,o)
);
}
);
width = 1363;
}
);
note = F;
unicode = 70;
},
{
glyphname = G;
kernLeft = O;
kernRight = G;
lastChange = "2025-07-10 17:01:01 +0000";
layers = (
{
layerId = m01;
shapes = (
{
closed = 1;
nodes = (
(882,374,o),
(882,385,o),
(880,391,qs),
(871,412,o),
(836,412,q),
(745,404,l),
(727,404,o),
(690,408,qs),
(677,409,o),
(646,412,o),
(601,412,o),
(589,400,qs),
(584,396,o),
(580,385,o),
(580,374,o),
(589,358,o),
(599,358,q),
(635,364,l),
(652,364,o),
(673,351,o),
(689,313,o),
(689,250,qs),
(689,157,ls),
(689,113,o),
(627,85,qs),
(572,60,o),
(511,60,qs),
(364,60,o),
(268,150,qs),
(168,245,o),
(168,398,qs),
(168,532,o),
(252,619,qs),
(292,660,o),
(403,706,o),
(560,706,o),
(634,674,qs),
(714,639,o),
(750,576,qs),
(756,564,o),
(767,564,qs),
(780,564,o),
(780,587,qs),
(780,598,o),
(775,619,qs),
(765,665,ls),
(758,690,o),
(749,743,o),
(749,791,o),
(734,791,qs),
(724,791,o),
(695,761,qs),
(678,742,o),
(663,742,qs),
(654,742,o),
(634,750,qs),
(564,777,o),
(487,777,qs),
(292,777,o),
(169,659,qs),
(111,604,o),
(48,452,o),
(48,363,qs),
(48,203,o),
(160,99,qs),
(215,48,o),
(374,-11,o),
(561,-11,o),
(623,7,qs),
(654,16,o),
(706,42,o),
(740,66,o),
(758,76,qs),
(802,99,l),
(802,250,ls),
(802,268,o),
(803,288,qs),
(803,364,o),
(828,364,q),
(863,359,l),
(872,359,o)
);
}
);
userData = {
assembly = "NPUSHB[ ]	/* 34 values pushed */
0 0 0 80 0 80 76 75 74 73 70 69 64 63 62 61 54 52 45 44 40 38 31 29 27 25 23 21 13 12 2 1 15 8
CALL[ ]	/* CallFunction */
MPPEM[ ]	/* MeasurePixelPerEm */
PUSHB[ ]	/* 1 value pushed */
13
LT[ ]	/* LessThan */
IF[ ]	/* If */
NPUSHB[ ]	/* 65 values pushed */
6 1 7 0 1 33 0 3 2 6 2 3 6 53 0 5 6 10 6 5 10 53 12 11 2 10 14 13 9 8 4 0 7 10 0 1 0 41 0 6 6 2 1 0 39 4 1 2 2 12 34 0 7 7 1 1 0 39 0 1 1 13 1 35 8
ELSE[ ]	/* Else */
MPPEM[ ]	/* MeasurePixelPerEm */
PUSHB[ ]	/* 1 value pushed */
17
LT[ ]	/* LessThan */
IF[ ]	/* If */
NPUSHB[ ]	/* 65 values pushed */
6 1 7 0 1 33 0 3 2 6 2 3 6 53 0 5 6 10 6 5 10 53 12 11 2 10 14 13 9 8 4 0 7 10 0 1 0 41 0 6 6 2 1 0 39 4 1 2 2 12 34 0 7 7 1 1 0 39 0 1 1 16 1 35 8
ELSE[ ]	/* Else */
MPPEM[ ]	/* MeasurePixelPerEm */
PUSHB[ ]	/* 1 value pushed */
19
LT[ ]	/* LessThan */
IF[ ]	/* If */
NPUSHB[ ]	/* 65 values pushed */
6 1 7 0 1 33 0 3 2 6 2 3 6 53 0 5 6 10 6 5 10 53 12 11 2 10 14 13 9 8 4 0 7 10 0 1 0 41 0 6 6 2 1 0 39 4 1 2 2 12 34 0 7 7 1 1 0 39 0 1 1 13 1 35 8
ELSE[ ]	/* Else */
MPPEM[ ]	/* MeasurePixelPerEm */
PUSHB[ ]	/* 1 value pushed */
21
LT[ ]	/* LessThan */
IF[ ]	/* If */
NPUSHB[ ]	/* 69 values pushed */
6 1 7 0 1 33 0 3 2 6 2 3 6 53 0 5 6 10 6 5 10 53 12 11 2 10 14 13 9 8 4 0 7 10 0 1 0 41 0 4 4 18 34 0 6 6 2 1 0 39 0 2 2 12 34 0 7 7 1 1 0 39 0 1 1 13 1 35 9
ELSE[ ]	/* Else */
NPUSHB[ ]	/* 69 values pushed */
6 1 7 0 1 33 0 3 2 6 2 3 6 53 0 5 6 10 6 5 10 53 12 11 2 10 14 13 9 8 4 0 7 10 0 1 0 41 0 4 4 18 34 0 6 6 2 1 0 39 0 2 2 12 34 0 7 7 1 1 0 39 0 1 1 16 1 35 9
EIF[ ]	/* EndIf */
EIF[ ]	/* EndIf */
EIF[ ]	/* EndIf */
EIF[ ]	/* EndIf */
PUSHB[ ]	/* 1 value pushed */
59
CALL[ ]	/* CallFunction */";
};
width = 892;
},
{
layerId = "6B1252CF-E426-46DC-A9C6-391C8BFD5F20";
shapes = (
{
closed = 1;
nodes = (
(1693,775,qs),
(1693,791,o),
(1656,821,o),
(1565,821,o),
(1475,806,o),
(1401,806,qs),
(1348,806,o),
(1300,814,q),
(1276,816,ls),
(1262,818,o),
(1229,820,o),
(1195,821,o),
(1129,821,o),
(1092,791,o),
(1092,763,o),
(1109,745,o),
(1125,745,q),
(1199,755,l),
(1256,755,o),
(1276,720,qs),
(1287,701,o),
(1315,624,o),
(1315,500,qs),
(1315,293,ls),
(1315,197,o),
(1238,142,qs),
(1202,117,o),
(1105,91,o),
(960,91,o),
(872,116,qs),
(692,166,o),
(557,303,qs),
(332,531,o),
(332,889,qs),
(332,1138,o),
(490,1294,qs),
(565,1368,o),
(779,1451,o),
(1085,1451,o),
(1232,1374,qs),
(1383,1294,o),
(1454,1162,qs),
(1467,1140,o),
(1486,1140,qs),
(1508,1140,o),
(1508,1222,o),
(1485,1297,qs),
(1472,1342,o),
(1458,1415,qs),
(1451,1448,o),
(1443,1512,o),
(1443,1587,o),
(1419,1587,qs),
(1403,1587,o),
(1377,1561,qs),
(1348,1531,ls),
(1320,1503,o),
(1308,1496,qs),
(1300,1491,o),
(1289,1489,o),
(1258,1489,o),
(1216,1505,qs),
(1080,1561,o),
(904,1561,qs),
(802,1561,o),
(696,1532,qs),
(484,1475,o),
(341,1324,qs),
(118,1088,o),
(118,729,qs),
(118,412,o),
(326,198,qs),
(425,96,o),
(706,-23,o),
(1050,-23,o),
(1174,13,qs),
(1235,31,o),
(1339,83,o),
(1408,133,o),
(1448,154,qs),
(1532,199,l),
(1532,500,ls),
(1532,536,o),
(1532,580,qs),
(1534,755,o),
(1589,755,q),
(1660,747,l),
(1693,747,o)
);
}
);
width = 1707;
}
);
note = G;
unicode = 71;
},
{
glyphname = H;
kernLeft = H;
kernRight = H;
lastChange = "2025-07-10 17:01:01 +0000";
layers = (
{
layerId = m01;
shapes = (
{
closed = 1;
nodes = (
(286,53,o),
(270,90,o),
(270,154,qs),
(270,374,ls),
(270,387,o),
(294,405,o),
(322,405,qs),
(622,405,ls),
(649,405,o),
(674,387,o),
(674,374,qs),
(674,154,ls),
(674,91,o),
(664,67,qs),
(652,41,o),
(619,41,q),
(587,43,l),
(579,43,o),
(569,30,o),
(569,12,o),
(578,3,qs),
(583,-1,o),
(601,-7,o),
(638,-7,o),
(677,-4,qs),
(703,-1,ls),
(716,0,o),
(747,0,o),
(760,-1,qs),
(786,-4,ls),
(799,-5,o),
(813,-6,qs),
(868,-11,o),
(885,3,qs),
(890,8,o),
(894,19,o),
(894,30,o),
(884,43,o),
(875,43,q),
(844,41,l),
(827,41,o),
(805,53,o),
(789,91,o),
(789,154,qs),
(789,608,ls),
(789,671,o),
(799,695,qs),
(811,722,o),
(844,722,q),
(875,719,l),
(884,719,o),
(894,732,o),
(894,750,o),
(885,759,qs),
(879,763,o),
(861,770,o),
(825,770,o),
(786,766,qs),
(760,764,ls),
(747,762,o),
(716,762,o),
(703,764,qs),
(677,766,ls),
(664,767,o),
(634,770,o),
(590,770,o),
(578,759,qs),
(573,754,o),
(569,744,o),
(569,732,o),
(579,719,o),
(587,719,q),
(619,722,o),
(619,722,q),
(636,722,o),
(658,709,o),
(674,671,o),
(674,608,qs),
(674,500,ls),
(674,475,o),
(622,475,qs),
(322,475,ls),
(270,475,o),
(270,500,qs),
(270,608,ls),
(270,672,o),
(280,695,qs),
(291,722,o),
(325,722,q),
(356,719,l),
(375,719,o),
(375,741,qs),
(375,750,o),
(366,759,qs),
(360,763,o),
(343,770,o),
(306,770,o),
(267,766,qs),
(240,764,ls),
(228,762,o),
(212,762,qs),
(197,762,o),
(185,764,qs),
(159,766,ls),
(145,767,o),
(115,770,o),
(72,770,o),
(60,759,qs),
(54,754,o),
(50,744,o),
(50,732,o),
(60,719,o),
(68,719,q),
(101,722,l),
(118,722,o),
(139,709,o),
(155,671,o),
(155,608,qs),
(155,154,ls),
(155,91,o),
(145,67,qs),
(134,41,o),
(101,41,q),
(68,43,l),
(60,43,o),
(50,30,o),
(50,11,o),
(60,3,qs),
(65,-1,o),
(82,-7,o),
(119,-7,o),
(159,-4,qs),
(185,-1,ls),
(197,0,o),
(212,0,qs),
(228,0,o),
(240,-1,qs),
(267,-4,ls),
(280,-5,o),
(295,-6,qs),
(349,-11,o),
(366,3,qs),
(371,8,o),
(375,19,o),
(375,30,o),
(366,43,o),
(356,43,q),
(325,41,l),
(308,41,o)
);
}
);
userData = {
assembly = "NPUSHB[ ]	/* 66 values pushed */
0 0 0 148 0 148 142 139 133 132 131 130 125 124 121 120 117 116 110 109 108 107 100 99 98 97 92 91 88 87 83 82 77 76 74 73 68 65 60 59 58 57 52 51 48 46 42 41 36 35 34 33 26 25 24 23 18 17 14 12 9 8 2 1 31 8
CALL[ ]	/* CallFunction */
NPUSHB[ ]	/* 61 values pushed */
0 13 0 28 0 13 28 1 0 41 20 19 15 14 12 11 7 7 6 6 8 1 0 39 18 17 16 10 9 5 8 8 12 34 30 29 27 26 22 21 5 4 8 0 0 1 1 0 39 25 24 23 3 2 5 1 1 13 1 35 5
PUSHB[ ]	/* 1 value pushed */
59
CALL[ ]	/* CallFunction */";
};
width = 944;
},
{
layerId = "6B1252CF-E426-46DC-A9C6-391C8BFD5F20";
shapes = (
{
closed = 1;
nodes = (
(584,66,o),
(564,102,qs),
(553,120,o),
(525,197,o),
(525,321,qs),
(525,781,ls),
(525,809,o),
(577,849,o),
(635,849,qs),
(1241,849,ls),
(1298,849,o),
(1351,809,o),
(1351,781,qs),
(1351,321,ls),
(1351,279,o),
(1344,157,o),
(1313,102,qs),
(1292,66,o),
(1235,66,q),
(1171,73,l),
(1138,73,o),
(1138,46,qs),
(1138,30,o),
(1156,15,qs),
(1192,-14,o),
(1351,10,qs),
(1384,15,o),
(1462,15,qs),
(1492,15,o),
(1526,13,qs),
(1544,12,o),
(1576,9,o),
(1651,0,o),
(1709,0,qs),
(1749,0,o),
(1786,30,o),
(1786,46,qs),
(1786,73,o),
(1753,73,q),
(1689,66,l),
(1632,66,o),
(1612,102,qs),
(1601,120,o),
(1573,197,o),
(1573,321,qs),
(1573,1207,ls),
(1573,1249,o),
(1580,1371,o),
(1611,1426,qs),
(1632,1462,o),
(1689,1462,q),
(1753,1455,l),
(1786,1455,o),
(1786,1482,qs),
(1786,1498,o),
(1749,1528,o),
(1639,1528,o),
(1573,1518,qs),
(1540,1513,o),
(1462,1513,qs),
(1432,1513,o),
(1398,1515,qs),
(1380,1516,o),
(1348,1519,o),
(1273,1528,o),
(1215,1528,qs),
(1175,1528,o),
(1138,1498,o),
(1138,1482,qs),
(1138,1455,o),
(1171,1455,q),
(1235,1462,l),
(1292,1462,o),
(1312,1426,qs),
(1323,1408,o),
(1351,1331,o),
(1351,1207,qs),
(1351,1005,ls),
(1351,949,o),
(1241,949,qs),
(635,949,ls),
(574,949,o),
(542,967,qs),
(525,977,o),
(525,1005,qs),
(525,1207,ls),
(525,1249,o),
(532,1371,o),
(563,1426,qs),
(584,1462,o),
(641,1462,q),
(705,1455,l),
(738,1455,o),
(738,1482,qs),
(738,1498,o),
(701,1528,o),
(591,1528,o),
(525,1518,qs),
(492,1513,o),
(414,1513,qs),
(384,1513,o),
(350,1515,qs),
(332,1516,o),
(300,1519,o),
(225,1528,o),
(167,1528,qs),
(127,1528,o),
(90,1498,o),
(90,1482,qs),
(90,1455,o),
(123,1455,q),
(187,1462,l),
(244,1462,o),
(264,1426,qs),
(275,1408,o),
(303,1331,o),
(303,1207,qs),
(303,321,ls),
(303,279,o),
(296,157,o),
(265,102,qs),
(244,66,o),
(187,66,q),
(123,73,l),
(90,73,o),
(90,46,qs),
(90,30,o),
(108,15,qs),
(144,-14,o),
(303,10,qs),
(336,15,o),
(414,15,qs),
(444,15,o),
(478,13,qs),
(496,12,o),
(528,9,o),
(603,0,o),
(661,0,qs),
(701,0,o),
(738,30,o),
(738,46,qs),
(738,73,o),
(705,73,q),
(641,66,l)
);
}
);
width = 1877;
}
);
note = H;
unicode = 72;
},
{
glyphname = I;
kernLeft = H;
kernRight = H;
lastChange = "2025-07-10 17:01:01 +0000";
layers = (
{
layerId = m01;
shapes = (
{
closed = 1;
nodes = (
(288,54,o),
(271,91,o),
(271,154,qs),
(271,608,ls),
(271,671,o),
(282,695,qs),
(293,722,o),
(326,722,q),
(358,719,l),
(376,719,o),
(376,741,qs),
(376,750,o),
(367,759,qs),
(362,763,o),
(344,770,o),
(308,770,o),
(268,766,qs),
(242,764,ls),
(229,762,o),
(199,762,o),
(186,764,qs),
(160,766,ls),
(147,767,o),
(117,770,o),
(73,770,o),
(61,759,qs),
(56,754,o),
(51,744,o),
(51,732,o),
(61,719,o),
(70,719,q),
(102,722,l),
(119,722,o),
(140,709,o),
(156,671,o),
(156,608,qs),
(156,154,ls),
(156,91,o),
(146,67,qs),
(135,41,o),
(102,41,q),
(70,44,l),
(61,44,o),
(51,30,o),
(51,12,o),
(61,4,qs),
(66,0,o),
(84,-7,o),
(129,-7,o),
(181,-1,qs),
(214,2,o),
(268,-3,qs),
(281,-5,o),
(311,-7,o),
(354,-7,o),
(367,4,qs),
(372,8,o),
(376,19,o),
(376,30,o),
(367,44,o),
(358,44,q),
(326,41,l),
(309,41,o)
);
}
);
userData = {
assembly = "NPUSHB[ ]	/* 32 values pushed */
0 0 0 62 0 62 55 54 53 52 47 46 43 42 38 37 32 31 30 29 22 21 20 19 14 13 9 7 2 1 14 8
CALL[ ]	/* CallFunction */
NPUSHB[ ]	/* 36 values pushed */
11 10 6 3 5 5 7 1 0 39 9 8 2 7 7 12 34 13 12 4 3 4 0 0 1 1 0 39 2 1 1 1 13 1 35 4
PUSHB[ ]	/* 1 value pushed */
59
CALL[ ]	/* CallFunction */";
};
width = 428;
},
{
layerId = "6B1252CF-E426-46DC-A9C6-391C8BFD5F20";
shapes = (
{
closed = 1;
nodes = (
(597,66,o),
(576,102,qs),
(566,120,o),
(538,197,o),
(538,321,qs),
(538,1207,ls),
(538,1249,o),
(545,1371,o),
(576,1426,qs),
(597,1462,o),
(654,1462,q),
(718,1455,l),
(751,1455,o),
(751,1482,qs),
(751,1498,o),
(714,1528,o),
(604,1528,o),
(538,1518,qs),
(505,1513,o),
(427,1513,qs),
(398,1513,o),
(362,1515,qs),
(345,1516,o),
(313,1519,o),
(238,1528,o),
(180,1528,qs),
(140,1528,o),
(103,1498,o),
(103,1482,qs),
(103,1455,o),
(136,1455,q),
(200,1462,l),
(257,1462,o),
(278,1426,qs),
(288,1408,o),
(316,1331,o),
(316,1207,qs),
(316,321,ls),
(316,279,o),
(309,157,o),
(278,102,qs),
(257,66,o),
(200,66,q),
(136,73,l),
(103,73,o),
(103,46,qs),
(103,30,o),
(122,15,qs),
(157,-14,o),
(316,10,qs),
(349,15,o),
(427,15,qs),
(456,15,o),
(492,13,qs),
(509,12,o),
(541,9,o),
(616,0,o),
(674,0,qs),
(714,0,o),
(751,30,o),
(751,46,qs),
(751,73,o),
(718,73,q),
(654,66,l)
);
}
);
width = 854;
}
);
note = I;
unicode = 73;
},
{
glyphname = J;
kernLeft = J;
kernRight = J;
lastChange = "2025-07-10 17:01:01 +0000";
layers = (
{
layerId = m01;
shapes = (
{
closed = 1;
nodes = (
(677,741,qs),
(677,750,o),
(667,759,qs),
(662,763,o),
(645,770,o),
(608,770,o),
(568,766,qs),
(542,764,ls),
(530,762,o),
(499,762,o),
(484,764,qs),
(423,769,ls),
(407,770,o),
(363,770,o),
(352,759,qs),
(346,754,o),
(342,744,o),
(342,732,o),
(352,719,o),
(360,719,q),
(397,722,l),
(415,722,o),
(438,709,o),
(457,671,o),
(457,608,qs),
(457,256,ls),
(457,154,o),
(413,103,qs),
(393,79,o),
(338,57,o),
(281,57,o),
(254,66,qs),
(166,98,o),
(124,265,qs),
(116,294,o),
(100,294,qs),
(76,294,o),
(76,235,qs),
(76,52,l),
(103,34,o),
(132,22,qs),
(212,-11,o),
(285,-11,qs),
(399,-11,o),
(480,50,qs),
(572,119,o),
(572,239,qs),
(572,608,ls),
(572,671,o),
(582,695,qs),
(593,722,o),
(626,722,q),
(658,719,l),
(677,719,o)
);
}
);
userData = {
assembly = "NPUSHB[ ]	/* 26 values pushed */
0 0 0 53 0 53 48 47 44 43 41 39 34 33 32 31 23 22 18 16 11 9 2 1 11 8
CALL[ ]	/* CallFunction */
MPPEM[ ]	/* MeasurePixelPerEm */
PUSHB[ ]	/* 1 value pushed */
13
LT[ ]	/* LessThan */
IF[ ]	/* If */
NPUSHB[ ]	/* 46 values pushed */
14 1 1 3 1 33 0 2 0 3 0 2 3 53 10 9 5 4 4 0 0 6 1 0 39 8 7 2 6 6 12 34 0 3 3 1 1 0 39 0 1 1 13 1 35 6
ELSE[ ]	/* Else */
MPPEM[ ]	/* MeasurePixelPerEm */
PUSHB[ ]	/* 1 value pushed */
17
LT[ ]	/* LessThan */
IF[ ]	/* If */
NPUSHB[ ]	/* 46 values pushed */
14 1 1 3 1 33 0 2 0 3 0 2 3 53 10 9 5 4 4 0 0 6 1 0 39 8 7 2 6 6 12 34 0 3 3 1 1 0 39 0 1 1 16 1 35 6
ELSE[ ]	/* Else */
MPPEM[ ]	/* MeasurePixelPerEm */
PUSHB[ ]	/* 1 value pushed */
21
LT[ ]	/* LessThan */
IF[ ]	/* If */
NPUSHB[ ]	/* 46 values pushed */
14 1 1 3 1 33 0 2 0 3 0 2 3 53 10 9 5 4 4 0 0 6 1 0 39 8 7 2 6 6 12 34 0 3 3 1 1 0 39 0 1 1 13 1 35 6
ELSE[ ]	/* Else */
NPUSHB[ ]	/* 46 values pushed */
14 1 1 3 1 33 0 2 0 3 0 2 3 53 10 9 5 4 4 0 0 6 1 0 39 8 7 2 6 6 12 34 0 3 3 1 1 0 39 0 1 1 16 1 35 6
EIF[ ]	/* EndIf */
EIF[ ]	/* EndIf */
EIF[ ]	/* EndIf */
PUSHB[ ]	/* 1 value pushed */
59
CALL[ ]	/* CallFunction */";
};
width = 694;
},
{
layerId = "6B1252CF-E426-46DC-A9C6-391C8BFD5F20";
shapes = (
{
closed = 1;
nodes = (
(1361,1482,qs),
(1361,1498,o),
(1324,1528,o),
(1214,1528,o),
(1148,1518,qs),
(1115,1513,o),
(1037,1513,qs),
(1008,1513,o),
(972,1515,qs),
(955,1516,o),
(923,1519,o),
(848,1528,o),
(790,1528,qs),
(750,1528,o),
(713,1498,o),
(713,1482,qs),
(713,1455,o),
(746,1455,q),
(810,1462,l),
(867,1462,o),
(888,1426,qs),
(898,1408,o),
(926,1331,o),
(926,1207,qs),
(926,482,ls),
(926,371,o),
(902,294,qs),
(832,75,o),
(622,75,qs),
(491,75,o),
(396,169,qs),
(344,221,o),
(254,396,o),
(214,561,o),
(202,585,o),
(181,585,o),
(175,580,qs),
(157,565,o),
(157,470,qs),
(157,103,l),
(210,68,o),
(267,44,qs),
(426,-23,o),
(573,-23,qs),
(801,-23,o),
(964,100,qs),
(1148,237,o),
(1148,477,qs),
(1148,1207,ls),
(1148,1249,o),
(1155,1371,o),
(1186,1426,qs),
(1207,1462,o),
(1264,1462,q),
(1328,1455,l),
(1361,1455,o)
);
}
);
width = 1363;
}
);
note = J;
unicode = 74;
},
{
glyphname = K;
kernLeft = H;
kernRight = K;
lastChange = "2025-07-10 17:01:01 +0000";
layers = (
{
layerId = m01;
shapes = (
{
closed = 1;
nodes = (
(287,54,o),
(271,91,o),
(271,154,qs),
(271,360,l),
(301,357,o),
(327,349,qs),
(410,322,o),
(468,205,qs),
(522,95,o),
(585,45,qs),
(618,19,o),
(692,-6,o),
(759,-6,o),
(776,3,qs),
(784,7,o),
(793,18,o),
(793,27,o),
(792,32,qs),
(788,55,o),
(773,55,q),
(750,50,l),
(725,50,o),
(692,83,qs),
(653,124,o),
(621,191,qs),
(567,298,o),
(498,348,qs),
(437,393,o),
(337,409,q),
(442,459,o),
(649,662,qs),
(710,721,o),
(736,721,q),
(769,718,ls),
(773,718,o),
(787,729,o),
(787,744,qs),
(787,769,o),
(742,769,q),
(666,762,l),
(558,769,l),
(517,769,o),
(517,744,qs),
(517,736,o),
(527,723,o),
(536,723,qs),
(567,722,ls),
(588,722,o),
(588,708,qs),
(588,687,o),
(524,626,qs),
(431,538,o),
(355,482,qs),
(312,451,o),
(271,438,q),
(271,608,ls),
(271,671,o),
(281,695,qs),
(292,722,o),
(326,722,q),
(357,719,l),
(376,719,o),
(376,741,qs),
(376,750,o),
(367,759,qs),
(361,763,o),
(344,770,o),
(308,770,o),
(268,766,qs),
(255,765,o),
(229,762,o),
(213,762,qs),
(198,762,o),
(186,764,qs),
(159,766,ls),
(146,767,o),
(116,770,o),
(73,770,o),
(61,759,qs),
(55,754,o),
(51,744,o),
(51,732,o),
(61,719,o),
(70,719,q),
(102,722,l),
(119,722,o),
(140,709,o),
(156,671,o),
(156,608,qs),
(156,154,ls),
(156,91,o),
(146,67,qs),
(135,41,o),
(102,41,q),
(70,44,l),
(51,44,o),
(51,21,qs),
(51,12,o),
(61,4,qs),
(66,0,o),
(83,-7,o),
(128,-7,o),
(168,-2,qs),
(190,0,o),
(213,0,qs),
(237,0,o),
(268,-3,qs),
(281,-5,o),
(311,-7,o),
(354,-7,o),
(367,4,qs),
(372,8,o),
(376,19,o),
(376,30,o),
(367,44,o),
(357,44,q),
(326,41,l),
(309,41,o)
);
}
);
userData = {
assembly = "NPUSHB[ ]	/* 50 values pushed */
0 0 0 117 0 117 105 104 98 97 96 95 85 84 83 82 79 78 77 75 72 69 58 57 56 55 50 49 46 44 40 39 34 33 32 31 24 23 22 21 16 15 13 11 9 7 2 1 23 8
CALL[ ]	/* CallFunction */
NPUSHB[ ]	/* 53 values pushed */
113 88 62 3 0 6 1 33 17 16 13 12 11 7 6 6 6 8 1 0 39 15 14 10 9 4 8 8 12 34 22 21 19 18 5 4 6 0 0 1 1 0 39 20 3 2 3 1 1 13 1 35 5
PUSHB[ ]	/* 1 value pushed */
59
CALL[ ]	/* CallFunction */";
};
width = 793;
},
{
layerId = "6B1252CF-E426-46DC-A9C6-391C8BFD5F20";
shapes = (
{
closed = 1;
nodes = (
(586,66,o),
(566,102,qs),
(555,120,o),
(527,197,o),
(527,321,qs),
(527,750,l),
(590,746,o),
(648,728,qs),
(829,672,o),
(955,412,qs),
(1062,181,o),
(1188,82,qs),
(1252,32,o),
(1401,-12,o),
(1603,-12,o),
(1603,35,qs),
(1603,43,o),
(1586,66,o),
(1547,54,qs),
(1536,50,o),
(1514,50,qs),
(1497,50,o),
(1467,70,qs),
(1360,141,o),
(1254,359,qs),
(1145,578,o),
(992,689,qs),
(858,787,o),
(652,821,q),
(762,870,o),
(1077,1130,o),
(1294,1336,qs),
(1420,1462,o),
(1473,1462,q),
(1537,1455,l),
(1570,1455,o),
(1570,1482,qs),
(1570,1498,o),
(1535,1528,o),
(1484,1528,q),
(1330,1514,l),
(1302,1514,o),
(1235,1522,qs),
(1190,1526,ls),
(1168,1528,o),
(1093,1528,o),
(1054,1498,o),
(1054,1482,qs),
(1054,1455,o),
(1087,1455,q),
(1151,1463,l),
(1198,1463,o),
(1198,1430,qs),
(1198,1386,o),
(1078,1266,qs),
(871,1067,o),
(712,954,qs),
(618,887,o),
(527,864,q),
(527,1207,ls),
(527,1249,o),
(534,1371,o),
(565,1426,qs),
(586,1462,o),
(643,1462,q),
(707,1455,l),
(740,1455,o),
(740,1482,qs),
(740,1498,o),
(703,1528,o),
(593,1528,o),
(527,1518,qs),
(494,1513,o),
(416,1513,qs),
(386,1513,o),
(352,1515,qs),
(334,1516,o),
(302,1519,o),
(227,1528,o),
(169,1528,qs),
(129,1528,o),
(92,1498,o),
(92,1482,qs),
(92,1455,o),
(125,1455,q),
(189,1462,l),
(246,1462,o),
(266,1426,qs),
(277,1408,o),
(305,1331,o),
(305,1207,qs),
(305,321,ls),
(305,279,o),
(298,157,o),
(267,102,qs),
(246,66,o),
(189,66,q),
(125,73,l),
(92,73,o),
(92,46,qs),
(92,30,o),
(110,15,qs),
(146,-14,o),
(305,10,qs),
(338,15,o),
(416,15,qs),
(446,15,o),
(480,13,qs),
(498,12,o),
(530,9,o),
(605,0,o),
(663,0,qs),
(703,0,o),
(740,30,o),
(740,46,qs),
(740,73,o),
(707,73,q),
(643,66,l)
);
}
);
width = 1539;
}
);
note = K;
unicode = 75;
},
{
glyphname = L;
kernLeft = H;
kernRight = L;
lastChange = "2025-07-10 17:01:01 +0000";
layers = (
{
layerId = m01;
shapes = (
{
closed = 1;
nodes = (
(618,182,q),
(587,144,o),
(537,98,o),
(473,63,o),
(416,63,qs),
(316,63,ls),
(271,63,o),
(271,129,qs),
(271,608,ls),
(271,672,o),
(281,695,qs),
(293,722,o),
(326,722,q),
(358,719,l),
(367,719,o),
(377,732,o),
(377,750,o),
(367,759,qs),
(362,763,o),
(344,770,o),
(308,770,o),
(268,766,qs),
(242,764,ls),
(229,762,o),
(198,762,o),
(186,764,qs),
(160,766,ls),
(146,767,o),
(117,770,o),
(73,770,o),
(61,759,qs),
(56,754,o),
(51,744,o),
(51,732,o),
(61,719,o),
(70,719,q),
(102,722,l),
(119,722,o),
(140,709,o),
(156,671,o),
(156,608,qs),
(156,161,ls),
(156,94,o),
(147,70,qs),
(135,41,o),
(102,41,q),
(70,44,l),
(61,44,o),
(51,30,o),
(51,12,o),
(61,3,qs),
(66,-1,o),
(83,-7,o),
(117,-7,o),
(133,-6,qs),
(181,-2,ls),
(213,0,o),
(247,0,qs),
(627,0,l),
(625,16,o),
(625,67,o),
(640,134,qs),
(646,162,o),
(655,180,o),
(655,185,qs),
(655,198,o),
(643,198,qs),
(634,198,o)
);
}
);
userData = {
assembly = "NPUSHB[ ]	/* 32 values pushed */
1 0 63 60 55 54 53 52 47 46 43 42 38 37 32 31 30 29 22 21 20 19 14 13 10 8 0 67 1 67 14 8
CALL[ ]	/* CallFunction */
NPUSHB[ ]	/* 55 values pushed */
13 1 0 5 12 5 0 12 53 11 10 6 3 5 5 7 1 0 39 9 8 2 7 7 12 34 0 12 12 1 1 2 39 2 1 1 1 13 34 4 1 3 3 1 1 0 39 2 1 1 1 13 1 35 7
PUSHB[ ]	/* 1 value pushed */
59
CALL[ ]	/* CallFunction */";
};
width = 681;
},
{
layerId = "6B1252CF-E426-46DC-A9C6-391C8BFD5F20";
shapes = (
{
closed = 1;
nodes = (
(519,1249,o),
(526,1371,o),
(557,1426,qs),
(578,1462,o),
(635,1462,q),
(699,1455,l),
(732,1455,o),
(732,1482,qs),
(732,1498,o),
(695,1528,o),
(585,1528,o),
(519,1518,qs),
(486,1513,o),
(408,1513,qs),
(378,1513,o),
(344,1515,qs),
(326,1516,o),
(294,1519,o),
(219,1528,o),
(161,1528,qs),
(121,1528,o),
(84,1498,o),
(84,1482,qs),
(84,1455,o),
(117,1455,q),
(181,1462,l),
(238,1462,o),
(258,1426,qs),
(269,1408,o),
(297,1331,o),
(297,1207,qs),
(297,321,ls),
(297,153,o),
(259,86,qs),
(238,51,o),
(181,51,q),
(117,58,l),
(84,58,o),
(84,31,qs),
(84,15,o),
(121,-15,o),
(231,-15,o),
(297,-5,qs),
(330,0,o),
(475,0,qs),
(1229,0,l),
(1264,147,o),
(1296,221,qs),
(1332,299,ls),
(1353,346,o),
(1353,369,qs),
(1353,391,o),
(1318,391,o),
(1288,359,qs),
(1231,299,ls),
(1201,269,o),
(1161,237,qs),
(1121,206,ls),
(1037,142,o),
(957,114,qs),
(906,97,o),
(806,97,qs),
(616,97,ls),
(519,97,o),
(519,236,qs),
(519,1207,ls)
);
}
);
width = 1367;
}
);
note = L;
unicode = 76;
},
{
glyphname = M;
kernLeft = N;
kernRight = N;
lastChange = "2025-07-10 17:01:01 +0000";
layers = (
{
layerId = m01;
shapes = (
{
closed = 1;
nodes = (
(306,3,qs),
(312,8,o),
(316,19,o),
(316,30,o),
(306,43,o),
(297,43,q),
(266,41,l),
(248,41,o),
(227,53,o),
(210,91,o),
(210,154,qs),
(210,544,l),
(246,490,o),
(401,232,qs),
(455,147,ls),
(476,114,o),
(489,97,o),
(497,97,qs),
(512,97,o),
(526,125,qs),
(784,617,l),
(779,154,ls),
(779,91,o),
(769,67,qs),
(758,41,o),
(725,41,q),
(693,43,l),
(674,43,o),
(674,21,qs),
(674,12,o),
(684,3,qs),
(689,-1,o),
(707,-7,o),
(743,-7,o),
(783,-4,qs),
(809,-1,ls),
(821,0,o),
(836,0,qs),
(852,0,o),
(864,-1,qs),
(891,-4,ls),
(904,-5,o),
(919,-6,qs),
(974,-11,o),
(990,3,qs),
(995,8,o),
(1000,19,o),
(1000,30,o),
(990,43,o),
(981,43,q),
(949,41,l),
(932,41,o),
(910,53,o),
(895,90,o),
(895,154,qs),
(895,607,ls),
(895,676,o),
(904,699,qs),
(914,723,o),
(946,723,q),
(978,719,l),
(986,719,o),
(996,733,o),
(996,751,o),
(986,760,qs),
(981,764,o),
(963,771,o),
(924,771,o),
(860,766,qs),
(826,763,o),
(783,763,q),
(526,264,l),
(208,762,l),
(165,762,o),
(125,766,qs),
(108,767,o),
(77,769,o),
(42,769,o),
(35,760,qs),
(32,756,o),
(29,747,o),
(29,738,o),
(44,730,o),
(70,717,o),
(102,694,o),
(127,657,o),
(146,613,o),
(146,568,qs),
(145,154,ls),
(145,87,o),
(138,67,qs),
(127,41,o),
(95,41,q),
(64,43,l),
(55,43,o),
(45,30,o),
(45,12,o),
(55,3,qs),
(60,-1,o),
(78,-7,o),
(108,-7,o),
(139,-4,qs),
(159,-1,ls),
(169,0,o),
(180,0,q),
(270,-7,l),
(293,-7,o)
);
}
);
userData = {
assembly = "NPUSHB[ ]	/* 48 values pushed */
0 0 0 106 0 106 101 100 99 98 89 87 81 80 79 78 73 72 69 67 64 63 57 56 55 54 47 46 45 44 39 38 36 35 33 32 30 28 14 13 12 11 6 5 2 1 22 8
CALL[ ]	/* CallFunction */
NPUSHB[ ]	/* 59 values pushed */
94 85 34 3 17 8 1 33 0 17 8 2 8 17 2 53 9 1 8 8 4 1 0 39 7 6 5 3 4 4 12 34 19 18 16 15 11 10 3 7 2 2 0 1 2 39 21 20 14 13 12 1 6 0 0 13 0 35 6
PUSHB[ ]	/* 1 value pushed */
59
CALL[ ]	/* CallFunction */";
};
width = 1033;
},
{
layerId = "6B1252CF-E426-46DC-A9C6-391C8BFD5F20";
shapes = (
{
closed = 1;
nodes = (
(630,30,o),
(630,46,qs),
(630,73,o),
(597,73,q),
(533,66,l),
(476,66,o),
(456,102,qs),
(445,120,o),
(417,197,o),
(417,321,qs),
(417,1064,l),
(938,268,ls),
(963,229,o),
(987,196,o),
(1001,196,qs),
(1029,196,o),
(1057,249,qs),
(1570,1242,l),
(1570,321,ls),
(1570,279,o),
(1563,157,o),
(1532,102,qs),
(1511,66,o),
(1454,66,q),
(1390,73,l),
(1357,73,o),
(1357,46,qs),
(1357,30,o),
(1376,15,qs),
(1411,-14,o),
(1570,10,qs),
(1603,15,o),
(1681,15,qs),
(1710,15,o),
(1746,13,qs),
(1763,12,o),
(1795,9,o),
(1870,0,o),
(1928,0,qs),
(1968,0,o),
(2005,30,o),
(2005,46,qs),
(2005,73,o),
(1972,73,q),
(1908,66,l),
(1851,66,o),
(1830,102,qs),
(1820,120,o),
(1792,197,o),
(1792,321,qs),
(1792,1203,ls),
(1792,1248,o),
(1801,1371,o),
(1830,1426,qs),
(1850,1462,o),
(1908,1462,q),
(1972,1454,l),
(2005,1454,o),
(2005,1482,qs),
(2005,1528,o),
(1916,1528,qs),
(1863,1528,o),
(1778,1518,qs),
(1727,1512,o),
(1591,1512,q),
(1070,509,l),
(423,1517,l),
(113,1528,ls),
(60,1528,o),
(60,1503,qs),
(60,1493,o),
(72,1479,o),
(95,1469,qs),
(171,1436,o),
(238,1339,qs),
(306,1244,o),
(306,1143,qs),
(305,321,ls),
(305,279,o),
(298,157,o),
(267,102,qs),
(246,66,o),
(189,66,q),
(125,73,l),
(92,73,o),
(92,46,qs),
(92,-18,o),
(294,10,qs),
(334,15,o),
(361,15,q),
(542,0,l),
(593,0,o)
);
}
);
width = 2048;
}
);
note = M;
unicode = 77;
},
{
glyphname = N;
kernLeft = N;
kernRight = N;
lastChange = "2025-07-10 17:01:01 +0000";
layers = (
{
layerId = m01;
shapes = (
{
closed = 1;
nodes = (
(307,3,qs),
(312,8,o),
(317,19,o),
(317,30,o),
(307,43,o),
(298,43,q),
(262,41,l),
(245,41,o),
(223,53,o),
(207,91,o),
(207,154,qs),
(207,565,l),
(724,5,l),
(759,-19,o),
(777,-19,qs),
(793,-19,o),
(793,-4,qs),
(793,4,o),
(786,9,qs),
(781,13,o),
(767,32,o),
(767,69,qs),
(769,608,ls),
(769,676,o),
(776,696,qs),
(786,723,o),
(818,723,q),
(851,719,l),
(859,719,o),
(869,733,o),
(869,750,o),
(859,759,qs),
(854,764,o),
(836,770,o),
(804,770,o),
(773,767,qs),
(754,764,ls),
(744,763,o),
(733,763,q),
(640,770,l),
(616,770,o),
(604,759,qs),
(598,754,o),
(593,744,o),
(593,733,o),
(604,719,o),
(612,719,q),
(648,723,l),
(665,723,o),
(687,710,o),
(703,672,o),
(703,608,qs),
(703,190,l),
(182,762,l),
(53,769,l),
(37,769,o),
(24,755,o),
(24,750,qs),
(24,735,o),
(53,722,qs),
(71,713,o),
(109,673,o),
(142,612,o),
(142,581,qs),
(142,154,ls),
(142,87,o),
(134,67,qs),
(124,41,o),
(91,41,q),
(60,43,l),
(41,43,o),
(41,21,qs),
(41,11,o),
(51,3,qs),
(56,-1,o),
(74,-7,o),
(104,-7,o),
(136,-4,qs),
(156,-1,ls),
(166,0,o),
(176,0,q),
(270,-7,l),
(293,-7,o)
);
}
);
userData = {
assembly = "NPUSHB[ ]	/* 38 values pushed */
0 0 0 82 0 82 77 76 75 74 68 66 56 55 54 53 48 47 44 43 42 41 36 35 34 33 28 26 14 13 12 11 6 5 2 1 17 8
CALL[ ]	/* CallFunction */
MPPEM[ ]	/* MeasurePixelPerEm */
PUSHB[ ]	/* 1 value pushed */
15
LT[ ]	/* LessThan */
IF[ ]	/* If */
NPUSHB[ ]	/* 50 values pushed */
70 29 2 2 5 1 33 11 10 6 3 5 5 4 1 0 39 9 8 7 3 4 4 12 34 14 13 3 3 2 2 0 1 2 39 1 1 0 0 13 34 16 15 2 12 12 13 12 35 6
ELSE[ ]	/* Else */
MPPEM[ ]	/* MeasurePixelPerEm */
PUSHB[ ]	/* 1 value pushed */
19
LT[ ]	/* LessThan */
IF[ ]	/* If */
NPUSHB[ ]	/* 50 values pushed */
70 29 2 2 5 1 33 11 10 6 3 5 5 4 1 0 39 9 8 7 3 4 4 12 34 14 13 3 3 2 2 0 1 2 39 1 1 0 0 13 34 16 15 2 12 12 16 12 35 6
ELSE[ ]	/* Else */
MPPEM[ ]	/* MeasurePixelPerEm */
PUSHB[ ]	/* 1 value pushed */
21
LT[ ]	/* LessThan */
IF[ ]	/* If */
NPUSHB[ ]	/* 50 values pushed */
70 29 2 2 5 1 33 11 10 6 3 5 5 4 1 0 39 9 8 7 3 4 4 12 34 14 13 3 3 2 2 0 1 2 39 1 1 0 0 13 34 16 15 2 12 12 13 12 35 6
ELSE[ ]	/* Else */
NPUSHB[ ]	/* 50 values pushed */
70 29 2 2 5 1 33 11 10 6 3 5 5 4 1 0 39 9 8 7 3 4 4 12 34 14 13 3 3 2 2 0 1 2 39 16 15 1 3 0 0 13 34 0 12 12 13 12 35 6
EIF[ ]	/* EndIf */
EIF[ ]	/* EndIf */
EIF[ ]	/* EndIf */
PUSHB[ ]	/* 1 value pushed */
59
CALL[ ]	/* CallFunction */";
};
width = 862;
},
{
layerId = "6B1252CF-E426-46DC-A9C6-391C8BFD5F20";
shapes = (
{
closed = 1;
nodes = (
(693,30,o),
(693,46,qs),
(693,73,o),
(660,73,q),
(587,66,l),
(530,66,o),
(510,102,qs),
(499,120,o),
(471,197,o),
(471,321,qs),
(471,1134,l),
(1525,8,ls),
(1592,-65,o),
(1631,-65,qs),
(1660,-65,o),
(1660,-41,qs),
(1660,-23,o),
(1640,-6,qs),
(1626,6,o),
(1618,20,qs),
(1596,60,o),
(1596,181,qs),
(1596,1200,ls),
(1596,1242,o),
(1603,1364,o),
(1634,1419,qs),
(1655,1455,o),
(1712,1455,q),
(1776,1448,l),
(1809,1448,o),
(1809,1475,qs),
(1809,1491,o),
(1772,1521,o),
(1676,1521,o),
(1607,1512,qs),
(1567,1506,o),
(1540,1506,q),
(1352,1521,l),
(1301,1521,o),
(1262,1491,o),
(1262,1475,qs),
(1262,1448,o),
(1295,1448,q),
(1368,1455,l),
(1425,1455,o),
(1446,1420,qs),
(1456,1401,o),
(1484,1324,o),
(1484,1200,qs),
(1484,418,l),
(444,1517,l),
(135,1528,ls),
(82,1528,o),
(82,1485,o),
(135,1466,qs),
(168,1454,o),
(218,1412,qs),
(240,1393,o),
(278,1352,o),
(310,1308,o),
(360,1202,o),
(360,1153,qs),
(359,321,ls),
(359,279,o),
(352,157,o),
(321,102,qs),
(300,66,o),
(243,66,q),
(179,73,l),
(146,73,o),
(146,46,qs),
(146,-18,o),
(348,10,qs),
(388,15,o),
(415,15,q),
(603,0,l),
(654,0,o)
);
}
);
width = 1876;
}
);
note = N;
unicode = 78;
},
{
glyphname = O;
kernLeft = O;
kernRight = O;
lastChange = "2025-07-10 17:01:01 +0000";
layers = (
{
layerId = m01;
shapes = (
{
closed = 1;
nodes = (
(235,41,qs),
(328,-11,o),
(445,-11,qs),
(557,-11,o),
(648,36,qs),
(744,85,o),
(796,173,qs),
(853,267,o),
(853,392,qs),
(853,495,o),
(802,584,qs),
(751,672,o),
(665,724,qs),
(574,777,o),
(464,777,qs),
(274,777,o),
(160,662,qs),
(106,607,o),
(48,457,o),
(48,387,qs),
(48,145,o)
);
},
{
closed = 1;
nodes = (
(229,635,qs),
(299,706,o),
(408,706,qs),
(540,706,o),
(634,602,qs),
(733,493,o),
(733,323,qs),
(733,195,o),
(664,125,qs),
(601,62,o),
(501,62,qs),
(414,62,o),
(337,104,qs),
(299,125,o),
(232,188,o),
(184,273,o),
(156,378,o),
(156,440,qs),
(156,561,o)
);
}
);
userData = {
assembly = "NPUSHB[ ]	/* 10 values pushed */
37 35 29 27 18 16 6 4 4 8
CALL[ ]	/* CallFunction */
MPPEM[ ]	/* MeasurePixelPerEm */
PUSHB[ ]	/* 1 value pushed */
13
LT[ ]	/* LessThan */
IF[ ]	/* If */
NPUSHB[ ]	/* 26 values pushed */
0 3 3 0 1 0 39 0 0 0 12 34 0 2 2 1 1 0 39 0 1 1 13 1 35 4
ELSE[ ]	/* Else */
MPPEM[ ]	/* MeasurePixelPerEm */
PUSHB[ ]	/* 1 value pushed */
17
LT[ ]	/* LessThan */
IF[ ]	/* If */
NPUSHB[ ]	/* 26 values pushed */
0 3 3 0 1 0 39 0 0 0 12 34 0 2 2 1 1 0 39 0 1 1 16 1 35 4
ELSE[ ]	/* Else */
MPPEM[ ]	/* MeasurePixelPerEm */
PUSHB[ ]	/* 1 value pushed */
21
LT[ ]	/* LessThan */
IF[ ]	/* If */
NPUSHB[ ]	/* 26 values pushed */
0 3 3 0 1 0 39 0 0 0 12 34 0 2 2 1 1 0 39 0 1 1 13 1 35 4
ELSE[ ]	/* Else */
NPUSHB[ ]	/* 26 values pushed */
0 3 3 0 1 0 39 0 0 0 12 34 0 2 2 1 1 0 39 0 1 1 16 1 35 4
EIF[ ]	/* EndIf */
EIF[ ]	/* EndIf */
EIF[ ]	/* EndIf */
PUSHB[ ]	/* 1 value pushed */
59
CALL[ ]	/* CallFunction */";
};
width = 902;
},
{
layerId = "6B1252CF-E426-46DC-A9C6-391C8BFD5F20";
shapes = (
{
closed = 1;
nodes = (
(349,185,qs),
(568,-23,o),
(929,-23,qs),
(1271,-23,o),
(1503,188,qs),
(1748,410,o),
(1748,786,qs),
(1748,994,o),
(1646,1172,qs),
(1544,1349,o),
(1369,1452,qs),
(1186,1561,o),
(966,1561,qs),
(587,1561,o),
(356,1324,qs),
(248,1213,o),
(132,908,o),
(132,734,qs),
(132,392,o)
);
},
{
closed = 1;
nodes = (
(490,1294,qs),
(636,1451,o),
(855,1451,qs),
(1026,1451,o),
(1180,1344,qs),
(1333,1236,o),
(1422,1058,qs),
(1516,867,o),
(1516,648,qs),
(1516,384,o),
(1375,232,qs),
(1244,91,o),
(1042,91,qs),
(867,91,o),
(708,187,qs),
(544,286,o),
(446,460,qs),
(340,651,o),
(340,889,qs),
(340,1133,o)
);
}
);
width = 1880;
}
);
note = O;
unicode = 79;
},
{
glyphname = P;
kernLeft = H;
kernRight = P;
lastChange = "2025-07-10 17:01:01 +0000";
layers = (
{
layerId = m01;
shapes = (
{
closed = 1;
nodes = (
(610,354,qs),
(701,426,o),
(701,551,qs),
(701,655,o),
(640,713,qs),
(607,743,o),
(503,777,o),
(394,777,o),
(354,773,qs),
(340,772,o),
(314,768,o),
(286,765,o),
(252,762,o),
(205,762,o),
(167,766,qs),
(155,767,o),
(127,770,o),
(83,770,o),
(70,759,qs),
(65,754,o),
(61,744,o),
(61,731,o),
(71,719,o),
(80,719,q),
(104,722,l),
(123,722,o),
(148,707,o),
(166,667,o),
(166,602,qs),
(166,154,ls),
(166,91,o),
(156,67,qs),
(145,41,o),
(111,41,q),
(80,44,l),
(71,44,o),
(61,30,o),
(61,12,o),
(70,4,qs),
(76,0,o),
(104,-11,o),
(189,-1,qs),
(223,2,o),
(281,-3,qs),
(296,-5,o),
(329,-7,o),
(374,-7,o),
(389,4,qs),
(395,8,o),
(401,19,o),
(401,30,o),
(391,45,o),
(376,45,o),
(371,45,qs),
(360,43,ls),
(355,42,o),
(343,41,o),
(318,41,o),
(297,54,o),
(281,92,o),
(281,154,qs),
(281,308,l),
(347,290,o),
(396,290,qs),
(528,290,o)
);
},
{
closed = 1;
nodes = (
(459,695,qs),
(576,660,o),
(576,517,qs),
(576,445,o),
(535,402,qs),
(493,358,o),
(417,358,qs),
(343,358,o),
(281,392,q),
(281,650,ls),
(281,706,o),
(378,706,qs),
(422,706,o)
);
}
);
userData = {
assembly = "NPUSHB[ ]	/* 36 values pushed */
66 65 1 0 71 69 65 77 66 77 57 56 51 50 47 46 41 40 39 38 31 30 29 28 19 17 12 11 7 6 0 64 1 64 15 8
CALL[ ]	/* CallFunction */
NPUSHB[ ]	/* 68 values pushed */
68 1 12 11 2 1 0 12 2 33 0 12 13 1 0 1 12 0 1 0 41 7 1 6 6 8 1 0 39 10 9 2 8 8 12 34 14 1 11 11 8 1 0 39 10 9 2 8 8 12 34 5 4 2 3 1 1 3 1 0 39 0 3 3 13 3 35 8
PUSHB[ ]	/* 1 value pushed */
59
CALL[ ]	/* CallFunction */";
};
width = 726;
},
{
layerId = "6B1252CF-E426-46DC-A9C6-391C8BFD5F20";
shapes = (
{
closed = 1;
nodes = (
(584,102,qs),
(574,120,o),
(546,197,o),
(546,321,qs),
(546,625,l),
(682,585,o),
(805,585,qs),
(1051,585,o),
(1230,716,qs),
(1426,859,o),
(1426,1109,qs),
(1426,1303,o),
(1266,1423,qs),
(1190,1480,o),
(979,1543,o),
(748,1543,o),
(675,1533,qs),
(594,1522,ls),
(535,1514,o),
(445,1514,qs),
(378,1514,o),
(309,1522,qs),
(261,1526,ls),
(236,1528,o),
(148,1528,o),
(111,1499,o),
(111,1483,qs),
(111,1455,o),
(144,1455,q),
(193,1462,l),
(261,1462,o),
(284,1418,qs),
(296,1396,o),
(324,1318,o),
(324,1195,qs),
(324,321,ls),
(324,279,o),
(317,157,o),
(286,102,qs),
(265,66,o),
(208,66,q),
(144,73,l),
(111,73,o),
(111,46,qs),
(111,30,o),
(130,15,qs),
(165,-14,o),
(324,10,qs),
(357,15,o),
(435,15,qs),
(464,15,o),
(500,13,qs),
(517,12,o),
(549,9,o),
(592,4,o),
(620,2,qs),
(639,1,o),
(676,0,o),
(742,0,o),
(789,30,o),
(789,58,o),
(772,76,o),
(756,76,q),
(662,66,l),
(605,66,o)
);
},
{
closed = 1;
nodes = (
(546,1345,o),
(562,1370,qs),
(611,1445,o),
(748,1445,qs),
(935,1445,o),
(1055,1335,qs),
(1183,1218,o),
(1183,1020,qs),
(1183,875,o),
(1084,780,qs),
(984,684,o),
(826,684,qs),
(666,684,o),
(546,752,q),
(546,1311,ls)
);
}
);
width = 1539;
}
);
note = P;
unicode = 80;
},
{
glyphname = Q;
kernLeft = O;
kernRight = Q;
lastChange = "2025-07-10 17:01:01 +0000";
layers = (
{
layerId = m01;
shapes = (
{
closed = 1;
nodes = (
(355,-77,qs),
(373,-64,ls),
(387,-55,o),
(422,-41,o),
(475,-41,o),
(498,-51,qs),
(511,-56,o),
(542,-84,qs),
(609,-148,o),
(666,-180,qs),
(698,-197,o),
(766,-215,o),
(855,-215,o),
(894,-190,qs),
(910,-179,o),
(927,-155,o),
(927,-138,o),
(920,-129,qs),
(917,-125,o),
(909,-120,o),
(898,-120,o),
(892,-124,qs),
(874,-135,ls),
(860,-142,o),
(837,-142,qs),
(784,-142,o),
(743,-105,qs),
(703,-72,ls),
(632,-13,o),
(541,0,q),
(678,29,o),
(763,129,qs),
(805,179,o),
(853,312,o),
(853,446,o),
(840,494,qs),
(813,592,o),
(743,664,qs),
(630,777,o),
(464,777,qs),
(275,777,o),
(160,660,qs),
(48,547,o),
(48,366,qs),
(48,210,o),
(142,110,qs),
(234,9,o),
(393,-6,q),
(358,-16,o),
(323,-44,o),
(323,-63,o),
(335,-80,o),
(351,-80,o)
);
},
{
closed = 1;
nodes = (
(229,636,qs),
(300,706,o),
(408,706,qs),
(540,706,o),
(634,603,qs),
(733,496,o),
(733,326,qs),
(733,196,o),
(664,126,qs),
(601,62,o),
(501,62,qs),
(414,62,o),
(337,104,qs),
(299,126,o),
(232,190,o),
(184,275,o),
(156,381,o),
(156,443,qs),
(156,563,o)
);
}
);
userData = {
assembly = "NPUSHB[ ]	/* 22 values pushed */
0 0 69 67 61 59 0 52 0 52 48 47 40 39 32 31 28 26 13 11 9 8
CALL[ ]	/* CallFunction */
NPUSHB[ ]	/* 56 values pushed */
22 4 2 4 6 1 33 8 1 5 4 2 4 5 2 53 0 2 1 4 2 1 51 0 6 0 4 5 6 4 1 0 41 0 1 0 3 1 3 1 0 40 0 7 7 0 1 0 39 0 0 0 12 7 35 7
PUSHB[ ]	/* 1 value pushed */
59
CALL[ ]	/* CallFunction */";
};
width = 902;
},
{
layerId = "6B1252CF-E426-46DC-A9C6-391C8BFD5F20";
shapes = (
{
closed = 1;
nodes = (
(734,-142,qs),
(820,-72,o),
(926,-72,qs),
(980,-72,o),
(1029,-98,qs),
(1056,-112,o),
(1118,-172,qs),
(1237,-288,o),
(1368,-342,qs),
(1432,-369,o),
(1568,-395,o),
(1752,-395,o),
(1818,-366,qs),
(1880,-338,o),
(1880,-301,qs),
(1880,-273,o),
(1851,-273,qs),
(1840,-273,o),
(1830,-278,qs),
(1792,-300,ls),
(1763,-317,o),
(1698,-317,qs),
(1659,-317,o),
(1569,-267,o),
(1519,-222,qs),
(1426,-142,ls),
(1377,-103,o),
(1254,-40,o),
(1098,-1,o),
(851,-1,o),
(758,-43,qs),
(678,-80,o),
(678,-117,qs),
(678,-151,o),
(706,-151,qs),
(723,-151,o)
);
},
{
closed = 1;
nodes = (
(338,185,qs),
(557,-23,o),
(918,-23,qs),
(1260,-23,o),
(1492,188,qs),
(1737,410,o),
(1737,786,qs),
(1737,994,o),
(1634,1172,qs),
(1533,1349,o),
(1358,1452,qs),
(1175,1561,o),
(955,1561,qs),
(576,1561,o),
(345,1324,qs),
(237,1213,o),
(121,908,o),
(121,734,qs),
(121,392,o)
);
},
{
closed = 1;
nodes = (
(478,1294,qs),
(625,1451,o),
(844,1451,qs),
(1015,1451,o),
(1168,1344,qs),
(1322,1236,o),
(1410,1058,qs),
(1505,867,o),
(1505,648,qs),
(1505,384,o),
(1364,232,qs),
(1233,91,o),
(1031,91,qs),
(856,91,o),
(697,187,qs),
(533,286,o),
(436,460,qs),
(329,651,o),
(329,889,qs),
(329,1133,o)
);
}
);
width = 1880;
}
);
note = Q;
unicode = 81;
},
{
glyphname = R;
kernLeft = H;
kernRight = R;
lastChange = "2025-07-10 17:01:01 +0000";
layers = (
{
layerId = m01;
shapes = (
{
closed = 1;
nodes = (
(287,53,o),
(271,90,o),
(271,154,qs),
(271,340,l),
(321,340,o),
(351,320,qs),
(366,310,o),
(391,278,o),
(434,203,o),
(510,83,o),
(553,45,qs),
(595,7,o),
(650,-1,qs),
(733,-15,o),
(771,5,qs),
(781,10,o),
(790,21,o),
(790,39,o),
(786,48,qs),
(783,55,o),
(769,56,q),
(741,50,l),
(711,50,o),
(684,68,qs),
(667,80,o),
(630,121,o),
(567,229,o),
(518,281,qs),
(489,313,o),
(442,339,q),
(450,339,ls),
(561,339,o),
(632,394,qs),
(710,455,o),
(710,563,qs),
(710,653,o),
(649,711,qs),
(618,741,o),
(517,777,o),
(416,777,o),
(273,765,qs),
(245,762,o),
(185,762,o),
(156,766,qs),
(144,767,o),
(116,769,o),
(73,769,o),
(60,758,qs),
(55,754,o),
(50,744,o),
(50,731,o),
(61,718,o),
(69,718,q),
(94,721,l),
(113,721,o),
(138,707,o),
(156,667,o),
(156,602,qs),
(156,154,ls),
(156,90,o),
(146,67,qs),
(134,41,o),
(101,41,q),
(69,43,l),
(61,43,o),
(50,30,o),
(50,11,o),
(60,3,qs),
(65,-1,o),
(83,-7,o),
(119,-7,o),
(159,-4,qs),
(185,-1,ls),
(198,0,o),
(229,0,o),
(255,-2,o),
(281,-5,o),
(311,-7,o),
(354,-7,o),
(367,3,qs),
(372,8,o),
(376,19,o),
(376,30,o),
(366,43,o),
(357,43,q),
(326,41,l),
(309,41,o)
);
},
{
closed = 1;
nodes = (
(271,404,q),
(271,649,ls),
(271,666,o),
(280,688,o),
(315,706,o),
(381,706,qs),
(486,706,o),
(538,658,qs),
(563,636,o),
(585,575,o),
(585,500,o),
(571,472,qs),
(529,390,o),
(411,390,qs),
(358,390,ls),
(304,390,o)
);
}
);
userData = {
assembly = "NPUSHB[ ]	/* 46 values pushed */
89 87 0 0 97 95 87 102 89 102 0 86 0 86 82 81 66 65 64 63 56 54 47 46 44 43 40 39 34 33 32 31 24 23 22 21 16 15 12 11 8 7 2 1 20 8
CALL[ ]	/* CallFunction */
MPPEM[ ]	/* MeasurePixelPerEm */
PUSHB[ ]	/* 1 value pushed */
21
LT[ ]	/* LessThan */
IF[ ]	/* If */
NPUSHB[ ]	/* 69 values pushed */
101 1 16 17 1 33 19 1 16 14 1 11 0 16 11 1 0 41 7 1 6 6 8 1 0 39 10 9 2 8 8 12 34 0 17 17 8 1 0 39 10 9 2 8 8 12 34 18 15 13 12 5 4 6 0 0 1 1 0 39 3 2 2 1 1 13 1 35 8
ELSE[ ]	/* Else */
NPUSHB[ ]	/* 76 values pushed */
101 1 16 17 1 33 0 13 11 0 11 13 0 53 19 1 16 14 1 11 13 16 11 1 0 41 7 1 6 6 8 1 0 39 10 9 2 8 8 12 34 0 17 17 8 1 0 39 10 9 2 8 8 12 34 18 15 12 5 4 5 0 0 1 1 0 39 3 2 2 1 1 13 1 35 9
EIF[ ]	/* EndIf */
PUSHB[ ]	/* 1 value pushed */
59
CALL[ ]	/* CallFunction */";
};
width = 790;
},
{
layerId = "6B1252CF-E426-46DC-A9C6-391C8BFD5F20";
shapes = (
{
closed = 1;
nodes = (
(571,66,o),
(550,102,qs),
(540,120,o),
(512,197,o),
(512,321,qs),
(512,708,l),
(557,696,o),
(594,680,qs),
(706,632,o),
(779,506,qs),
(908,282,o),
(990,180,qs),
(1037,122,o),
(1128,48,o),
(1229,5,o),
(1347,-12,o),
(1469,-12,o),
(1530,15,o),
(1530,35,qs),
(1530,63,o),
(1503,63,qs),
(1497,63,o),
(1463,50,o),
(1447,50,qs),
(1386,50,o),
(1326,96,qs),
(1291,123,o),
(1213,219,o),
(1070,466,o),
(986,563,qs),
(931,625,o),
(834,676,q),
(869,676,ls),
(1090,676,o),
(1238,790,qs),
(1401,916,o),
(1401,1133,qs),
(1401,1304,o),
(1259,1418,qs),
(1188,1474,o),
(972,1541,o),
(758,1541,o),
(702,1536,qs),
(676,1533,o),
(632,1528,o),
(591,1524,o),
(549,1519,o),
(503,1516,o),
(448,1514,o),
(344,1514,o),
(275,1522,qs),
(227,1526,ls),
(202,1528,o),
(114,1528,o),
(77,1499,o),
(77,1483,qs),
(77,1455,o),
(110,1455,q),
(159,1462,l),
(227,1462,o),
(250,1418,qs),
(262,1396,o),
(290,1318,o),
(290,1195,qs),
(290,321,ls),
(290,279,o),
(283,157,o),
(252,102,qs),
(231,66,o),
(174,66,q),
(110,73,l),
(77,73,o),
(77,46,qs),
(77,30,o),
(96,15,qs),
(131,-14,o),
(290,10,qs),
(323,15,o),
(401,15,qs),
(430,15,o),
(466,13,qs),
(483,12,o),
(515,9,o),
(590,0,o),
(648,0,qs),
(688,0,o),
(725,30,o),
(725,46,qs),
(725,73,o),
(692,73,q),
(628,66,l)
);
},
{
closed = 1;
nodes = (
(512,1345,o),
(522,1370,qs),
(551,1445,o),
(739,1445,qs),
(923,1445,o),
(1043,1334,qs),
(1158,1227,o),
(1158,1074,qs),
(1158,925,o),
(1056,836,qs),
(966,758,o),
(830,758,qs),
(644,758,o),
(512,826,q),
(512,1311,ls)
);
}
);
width = 1539;
}
);
note = R;
unicode = 82;
},
{
glyphname = S;
kernLeft = S;
kernRight = S;
lastChange = "2025-07-10 17:01:01 +0000";
layers = (
{
layerId = m01;
shapes = (
{
closed = 1;
nodes = (
(592,597,o),
(578,656,qs),
(569,692,o),
(567,764,qs),
(566,789,o),
(546,789,qs),
(538,789,o),
(522,769,qs),
(514,757,o),
(509,754,qs),
(506,751,o),
(502,750,o),
(500,750,o),
(489,755,qs),
(435,777,o),
(350,777,qs),
(222,777,o),
(149,710,qs),
(86,652,o),
(86,566,qs),
(86,486,o),
(147,429,qs),
(213,365,o),
(344,335,qs),
(452,311,o),
(497,262,qs),
(531,226,o),
(531,173,qs),
(531,57,o),
(359,57,qs),
(272,57,o),
(201,112,qs),
(124,172,o),
(114,265,qs),
(109,294,o),
(95,294,qs),
(75,294,o),
(75,235,qs),
(75,62,l),
(130,36,ls),
(231,-11,o),
(363,-11,qs),
(492,-11,o),
(565,49,qs),
(638,109,o),
(638,211,qs),
(638,299,o),
(575,356,qs),
(542,387,o),
(437,435,o),
(262,480,o),
(223,522,qs),
(190,556,o),
(190,607,qs),
(190,648,o),
(224,675,qs),
(263,706,o),
(336,706,qs),
(415,706,o),
(468,678,qs),
(495,664,o),
(539,618,o),
(562,572,o),
(571,558,o),
(578,558,qs),
(592,558,o)
);
}
);
userData = {
assembly = "NPUSHB[ ]	/* 22 values pushed */
1 0 60 58 53 52 50 48 36 34 30 28 24 22 8 6 0 65 1 65 9 8
CALL[ ]	/* CallFunction */
MPPEM[ ]	/* MeasurePixelPerEm */
PUSHB[ ]	/* 1 value pushed */
13
LT[ ]	/* LessThan */
IF[ ]	/* If */
NPUSHB[ ]	/* 57 values pushed */
26 1 4 3 1 33 0 6 5 1 5 6 1 53 8 1 0 1 3 1 0 3 53 0 3 4 1 3 4 51 0 1 1 5 1 0 39 7 1 5 5 12 34 0 4 4 2 1 0 39 0 2 2 13 2 35 8
ELSE[ ]	/* Else */
MPPEM[ ]	/* MeasurePixelPerEm */
PUSHB[ ]	/* 1 value pushed */
17
LT[ ]	/* LessThan */
IF[ ]	/* If */
NPUSHB[ ]	/* 57 values pushed */
26 1 4 3 1 33 0 6 5 1 5 6 1 53 8 1 0 1 3 1 0 3 53 0 3 4 1 3 4 51 0 1 1 5 1 0 39 7 1 5 5 12 34 0 4 4 2 1 0 39 0 2 2 16 2 35 8
ELSE[ ]	/* Else */
MPPEM[ ]	/* MeasurePixelPerEm */
PUSHB[ ]	/* 1 value pushed */
21
LT[ ]	/* LessThan */
IF[ ]	/* If */
NPUSHB[ ]	/* 57 values pushed */
26 1 4 3 1 33 0 6 5 1 5 6 1 53 8 1 0 1 3 1 0 3 53 0 3 4 1 3 4 51 0 1 1 5 1 0 39 7 1 5 5 12 34 0 4 4 2 1 0 39 0 2 2 13 2 35 8
ELSE[ ]	/* Else */
NPUSHB[ ]	/* 61 values pushed */
26 1 4 3 1 33 0 6 5 1 5 6 1 53 8 1 0 1 3 1 0 3 53 0 3 4 1 3 4 51 0 7 7 18 34 0 1 1 5 1 0 39 0 5 5 12 34 0 4 4 2 1 0 39 0 2 2 16 2 35 9
EIF[ ]	/* EndIf */
EIF[ ]	/* EndIf */
EIF[ ]	/* EndIf */
PUSHB[ ]	/* 1 value pushed */
59
CALL[ ]	/* CallFunction */";
};
width = 686;
},
{
layerId = "6B1252CF-E426-46DC-A9C6-391C8BFD5F20";
shapes = (
{
closed = 1;
nodes = (
(1241,1510,o),
(1238,1584,o),
(1213,1584,qs),
(1199,1584,o),
(1164,1536,qs),
(1143,1507,o),
(1118,1507,qs),
(1108,1507,o),
(1086,1514,qs),
(1058,1524,ls),
(944,1561,o),
(797,1561,qs),
(534,1561,o),
(376,1428,qs),
(235,1309,o),
(235,1138,qs),
(235,978,o),
(358,860,qs),
(494,729,o),
(760,670,qs),
(1003,617,o),
(1115,528,qs),
(1168,486,o),
(1214,393,o),
(1214,279,o),
(1186,228,qs),
(1101,75,o),
(815,75,qs),
(598,75,o),
(446,202,qs),
(293,331,o),
(271,529,q),
(262,585,o),
(239,585,qs),
(203,585,o),
(203,470,qs),
(203,125,l),
(319,72,ls),
(533,-23,o),
(810,-23,qs),
(1078,-23,o),
(1240,98,qs),
(1402,220,o),
(1402,422,qs),
(1402,606,o),
(1278,716,qs),
(1211,776,o),
(986,873,o),
(596,964,o),
(498,1052,qs),
(415,1126,o),
(415,1233,qs),
(415,1333,o),
(517,1398,qs),
(620,1465,o),
(786,1465,qs),
(1098,1465,o),
(1235,1181,qs),
(1259,1128,o),
(1277,1128,qs),
(1302,1128,o),
(1302,1204,o),
(1274,1318,o),
(1258,1393,o),
(1247,1456,o)
);
}
);
width = 1539;
}
);
note = S;
unicode = 83;
},
{
glyphname = T;
kernLeft = T;
kernRight = T;
lastChange = "2025-07-10 17:01:01 +0000";
layers = (
{
layerId = m01;
shapes = (
{
closed = 1;
nodes = (
(66,599,o),
(101,635,o),
(147,669,o),
(183,678,o),
(189,680,qs),
(232,694,o),
(329,694,q),
(329,164,ls),
(329,99,o),
(318,72,qs),
(313,56,o),
(291,41,o),
(265,41,o),
(249,43,qs),
(244,43,o),
(234,45,o),
(218,45,o),
(208,30,o),
(208,12,o),
(221,3,qs),
(227,-1,o),
(246,-7,o),
(286,-7,o),
(328,-4,qs),
(356,-1,ls),
(370,0,o),
(386,0,qs),
(402,0,o),
(416,-1,qs),
(444,-4,ls),
(458,-5,o),
(491,-7,o),
(536,-7,o),
(551,3,qs),
(558,8,o),
(563,19,o),
(563,30,o),
(554,45,o),
(539,45,o),
(526,43,o),
(512,41,qs),
(506,41,o),
(481,41,o),
(459,57,o),
(443,100,o),
(443,164,qs),
(443,693,l),
(616,693,o),
(649,635,qs),
(655,625,o),
(662,601,o),
(667,570,o),
(680,570,qs),
(692,570,o),
(699,604,qs),
(704,629,o),
(717,675,qs),
(725,700,o),
(742,752,o),
(756,786,o),
(748,791,qs),
(745,792,o),
(739,793,o),
(731,793,o),
(719,784,o),
(688,762,o),
(657,762,qs),
(163,762,ls),
(149,762,o),
(118,764,o),
(110,773,qs),
(95,793,o),
(85,793,qs),
(79,793,o),
(69,783,o),
(61,730,o),
(49,697,qs),
(40,672,ls),
(35,660,o),
(28,634,o),
(24,606,o),
(24,572,o),
(36,572,qs),
(42,572,o)
);
}
);
userData = {
assembly = "NPUSHB[ ]	/* 36 values pushed */
1 0 77 76 71 70 67 66 61 60 57 55 53 52 51 50 45 44 41 40 36 35 31 29 20 19 17 13 11 9 0 83 1 83 16 8
CALL[ ]	/* CallFunction */
MPPEM[ ]	/* MeasurePixelPerEm */
PUSHB[ ]	/* 1 value pushed */
11
LT[ ]	/* LessThan */
IF[ ]	/* If */
NPUSHB[ ]	/* 48 values pushed */
4 15 2 0 5 6 5 0 45 3 1 1 1 18 34 14 1 5 5 2 1 0 39 0 2 2 12 34 13 12 7 3 6 6 8 1 0 39 11 10 9 3 8 8 13 8 35 6
ELSE[ ]	/* Else */
NPUSHB[ ]	/* 49 values pushed */
4 15 2 0 5 6 5 0 6 53 3 1 1 1 18 34 14 1 5 5 2 1 0 39 0 2 2 12 34 13 12 7 3 6 6 8 1 0 39 11 10 9 3 8 8 13 8 35 6
EIF[ ]	/* EndIf */
PUSHB[ ]	/* 1 value pushed */
59
CALL[ ]	/* CallFunction */";
};
width = 751;
},
{
layerId = "6B1252CF-E426-46DC-A9C6-391C8BFD5F20";
shapes = (
{
closed = 1;
nodes = (
(910,102,qs),
(899,120,o),
(871,197,o),
(871,321,qs),
(871,1415,l),
(995,1412,o),
(1059,1405,qs),
(1102,1400,o),
(1173,1384,o),
(1258,1340,o),
(1314,1246,o),
(1327,1183,qs),
(1331,1156,o),
(1353,1156,qs),
(1372,1156,o),
(1382,1205,qs),
(1389,1236,o),
(1417,1354,o),
(1468,1474,qs),
(1486,1516,ls),
(1494,1534,o),
(1494,1545,qs),
(1494,1576,o),
(1469,1576,qs),
(1457,1576,o),
(1434,1556,o),
(1369,1513,o),
(1308,1513,qs),
(330,1513,ls),
(270,1513,o),
(250,1518,qs),
(238,1521,o),
(224,1530,o),
(187,1576,o),
(172,1576,qs),
(163,1576,o),
(145,1557,o),
(123,1429,o),
(86,1314,qs),
(72,1270,o),
(53,1205,o),
(53,1159,o),
(87,1159,o),
(107,1183,qs),
(152,1236,ls),
(263,1361,o),
(374,1386,qs),
(453,1402,ls),
(513,1415,o),
(576,1415,qs),
(649,1415,l),
(649,321,ls),
(649,279,o),
(642,157,o),
(611,102,qs),
(590,66,o),
(533,66,q),
(439,76,l),
(406,76,o),
(406,44,qs),
(406,30,o),
(460,-4,o),
(574,2,qs),
(593,3,o),
(625,6,o),
(682,15,o),
(760,15,qs),
(790,15,o),
(824,13,qs),
(842,12,o),
(874,9,o),
(917,4,o),
(946,2,qs),
(964,1,o),
(1001,0,o),
(1067,0,o),
(1114,30,o),
(1114,58,o),
(1097,76,o),
(1081,76,q),
(987,66,l),
(930,66,o)
);
}
);
width = 1539;
}
);
note = T;
unicode = 84;
},
{
glyphname = U;
kernLeft = U;
kernRight = U;
lastChange = "2025-07-10 17:01:01 +0000";
layers = (
{
layerId = m01;
shapes = (
{
closed = 1;
nodes = (
(749,0,o),
(768,-1,o),
(778,-2,qs),
(800,-4,ls),
(810,-4,o),
(844,-4,o),
(857,7,qs),
(863,11,o),
(867,22,o),
(867,33,o),
(857,44,o),
(845,44,o),
(831,39,o),
(803,39,o),
(783,51,o),
(770,89,o),
(770,173,qs),
(769,608,ls),
(769,636,o),
(771,657,qs),
(776,722,o),
(823,722,q),
(855,719,l),
(874,719,o),
(874,741,qs),
(874,750,o),
(864,759,qs),
(859,763,o),
(841,770,o),
(805,770,o),
(765,766,qs),
(739,764,ls),
(727,762,o),
(696,762,o),
(683,764,qs),
(657,766,ls),
(644,767,o),
(614,770,o),
(571,770,o),
(558,759,qs),
(553,754,o),
(548,744,o),
(548,732,o),
(558,719,o),
(567,719,q),
(599,722,l),
(616,722,o),
(637,709,o),
(653,671,o),
(653,608,qs),
(653,135,l),
(567,62,o),
(361,62,o),
(306,111,qs),
(248,165,o),
(248,263,qs),
(248,608,ls),
(248,672,o),
(257,695,qs),
(269,722,o),
(302,722,q),
(334,719,l),
(343,719,o),
(353,732,o),
(353,750,o),
(343,759,qs),
(338,763,o),
(320,770,o),
(283,770,o),
(244,766,qs),
(218,764,ls),
(205,762,o),
(190,762,qs),
(175,762,o),
(162,764,qs),
(136,766,ls),
(123,767,o),
(92,770,o),
(49,770,o),
(37,759,qs),
(32,754,o),
(27,744,o),
(27,732,o),
(37,719,o),
(46,719,q),
(78,722,l),
(95,722,o),
(116,709,o),
(133,671,o),
(133,608,qs),
(133,272,ls),
(133,138,o),
(213,64,qs),
(293,-11,o),
(443,-11,qs),
(556,-11,o),
(654,56,q),
(658,-3,o),
(689,-3,q),
(743,0,ls)
);
}
);
userData = {
assembly = "NPUSHB[ ]	/* 48 values pushed */
1 0 97 96 95 93 88 87 86 85 78 77 76 75 70 69 66 65 61 60 55 54 53 52 47 46 39 38 37 36 31 30 27 25 21 20 15 14 13 12 5 3 0 99 1 98 22 8
CALL[ ]	/* CallFunction */
NPUSHB[ ]	/* 69 values pushed */
48 1 9 2 2 1 17 9 2 33 16 15 11 10 8 7 3 7 2 2 4 1 0 39 14 13 12 6 5 5 4 4 12 34 0 9 9 0 1 0 39 20 19 1 21 4 0 0 13 34 18 1 17 17 0 1 0 39 20 19 1 21 4 0 0 13 0 35 7
PUSHB[ ]	/* 1 value pushed */
59
CALL[ ]	/* CallFunction */";
};
width = 915;
},
{
layerId = "6B1252CF-E426-46DC-A9C6-391C8BFD5F20";
shapes = (
{
closed = 1;
nodes = (
(1458,3,qs),
(1483,5,ls),
(1495,6,o),
(1508,6,qs),
(1661,-3,l),
(1754,-3,o),
(1754,45,qs),
(1754,70,o),
(1722,70,q),
(1666,63,l),
(1639,63,o),
(1591,77,o),
(1558,157,o),
(1558,345,qs),
(1555,1207,ls),
(1555,1249,o),
(1562,1371,o),
(1593,1426,qs),
(1614,1462,o),
(1671,1462,q),
(1735,1455,l),
(1768,1455,o),
(1768,1482,qs),
(1768,1498,o),
(1731,1528,o),
(1621,1528,o),
(1555,1518,qs),
(1522,1513,o),
(1444,1513,qs),
(1414,1513,o),
(1380,1515,qs),
(1362,1516,o),
(1330,1519,o),
(1255,1528,o),
(1197,1528,qs),
(1157,1528,o),
(1120,1498,o),
(1120,1482,qs),
(1120,1455,o),
(1153,1455,q),
(1217,1462,l),
(1274,1462,o),
(1294,1426,qs),
(1305,1408,o),
(1333,1331,o),
(1333,1207,qs),
(1333,224,l),
(1158,75,o),
(739,75,o),
(622,188,qs),
(502,304,o),
(502,505,qs),
(502,1207,ls),
(502,1249,o),
(509,1371,o),
(540,1426,qs),
(561,1462,o),
(618,1462,q),
(682,1455,l),
(715,1455,o),
(715,1482,qs),
(715,1498,o),
(678,1528,o),
(568,1528,o),
(502,1518,qs),
(469,1513,o),
(391,1513,qs),
(362,1513,o),
(326,1515,qs),
(309,1516,o),
(277,1519,o),
(202,1528,o),
(144,1528,qs),
(104,1528,o),
(67,1498,o),
(67,1482,qs),
(67,1455,o),
(100,1455,q),
(164,1462,l),
(221,1462,o),
(242,1426,qs),
(252,1408,o),
(280,1331,o),
(280,1207,qs),
(280,545,ls),
(280,276,o),
(440,128,qs),
(602,-23,o),
(903,-23,qs),
(1135,-23,o),
(1333,117,q),
(1336,0,o),
(1399,0,qs),
(1431,0,o)
);
}
);
width = 1874;
}
);
note = U;
unicode = 85;
},
{
glyphname = V;
kernLeft = V;
kernRight = V;
lastChange = "2025-07-10 17:01:01 +0000";
layers = (
{
layerId = m01;
shapes = (
{
closed = 1;
nodes = (
(862,740,qs),
(862,750,o),
(838,769,o),
(822,769,q),
(741,762,l),
(722,762,o),
(664,769,o),
(604,769,o),
(581,749,o),
(581,731,o),
(591,719,o),
(600,719,q),
(642,723,l),
(668,723,o),
(668,705,qs),
(668,663,o),
(648,618,qs),
(466,224,l),
(455,196,o),
(451,196,qs),
(449,196,o),
(440,201,o),
(423,242,q),
(244,637,ls),
(224,682,o),
(224,700,qs),
(224,723,o),
(254,723,q),
(292,719,l),
(311,719,o),
(311,738,qs),
(311,750,o),
(285,769,o),
(260,769,q),
(129,762,l),
(101,762,o),
(55,769,o),
(10,769,o),
(-3,759,qs),
(-9,754,o),
(-15,743,o),
(-15,730,o),
(-4,718,o),
(4,718,q),
(31,722,l),
(39,722,o),
(54,715,o),
(81,685,o),
(108,623,qs),
(319,166,ls),
(368,59,o),
(420,13,qs),
(441,-7,o),
(474,-19,o),
(497,-19,o),
(497,-9,qs),
(497,-5,o),
(493,-2,q),
(481,6,ls),
(474,12,o),
(474,24,qs),
(474,50,o),
(509,134,qs),
(711,588,ls),
(750,671,o),
(777,704,qs),
(792,722,o),
(816,722,q),
(844,718,l),
(862,718,o)
);
}
);
userData = {
assembly = "NPUSHB[ ]	/* 36 values pushed */
0 0 0 69 0 69 66 65 64 63 62 61 58 57 56 55 50 48 42 41 40 39 36 33 32 31 26 25 24 23 15 14 2 1 16 8
CALL[ ]	/* CallFunction */
MPPEM[ ]	/* MeasurePixelPerEm */
PUSHB[ ]	/* 1 value pushed */
11
LT[ ]	/* LessThan */
IF[ ]	/* If */
NPUSHB[ ]	/* 39 values pushed */
0 8 0 1 0 8 1 53 15 14 10 9 7 6 3 2 8 0 0 4 1 0 39 13 12 11 5 4 4 4 12 34 0 1 1 16 1 35 4
ELSE[ ]	/* Else */
MPPEM[ ]	/* MeasurePixelPerEm */
PUSHB[ ]	/* 1 value pushed */
19
LT[ ]	/* LessThan */
IF[ ]	/* If */
NPUSHB[ ]	/* 39 values pushed */
0 8 0 1 0 8 1 53 15 14 10 9 7 6 3 2 8 0 0 4 1 0 39 13 12 11 5 4 4 4 12 34 0 1 1 13 1 35 4
ELSE[ ]	/* Else */
NPUSHB[ ]	/* 39 values pushed */
0 8 0 1 0 8 1 53 15 14 10 9 7 6 3 2 8 0 0 4 1 0 39 13 12 11 5 4 4 4 12 34 0 1 1 16 1 35 4
EIF[ ]	/* EndIf */
EIF[ ]	/* EndIf */
PUSHB[ ]	/* 1 value pushed */
59
CALL[ ]	/* CallFunction */";
};
width = 833;
},
{
layerId = "6B1252CF-E426-46DC-A9C6-391C8BFD5F20";
shapes = (
{
closed = 1;
nodes = (
(1735,1503,o),
(1689,1528,o),
(1635,1528,o),
(1618,1526,qs),
(1572,1518,ls),
(1542,1514,o),
(1496,1514,qs),
(1466,1514,o),
(1410,1521,qs),
(1362,1526,ls),
(1336,1528,o),
(1255,1528,o),
(1211,1500,o),
(1211,1481,qs),
(1211,1456,o),
(1243,1456,q),
(1329,1466,l),
(1387,1466,o),
(1387,1424,qs),
(1387,1356,o),
(1338,1245,qs),
(962,373,ls),
(938,313,o),
(925,313,qs),
(907,313,o),
(866,409,qs),
(485,1284,ls),
(444,1376,o),
(444,1414,qs),
(444,1465,o),
(512,1465,q),
(588,1456,l),
(620,1456,o),
(620,1481,qs),
(620,1528,o),
(524,1528,q),
(258,1514,l),
(61,1528,l),
(16,1528,o),
(-27,1499,o),
(-27,1481,qs),
(-27,1455,o),
(6,1455,q),
(61,1463,l),
(77,1463,o),
(93,1456,qs),
(143,1436,o),
(222,1259,qs),
(647,332,ls),
(748,110,o),
(844,2,qs),
(886,-46,o),
(957,-84,o),
(1021,-84,o),
(1021,-39,o),
(988,-25,qs),
(949,-9,o),
(949,46,qs),
(949,75,o),
(958,110,qs),
(964,131,o),
(999,222,o),
(1430,1169,qs),
(1516,1359,o),
(1565,1424,qs),
(1595,1463,o),
(1646,1463,q),
(1702,1455,l),
(1735,1455,o)
);
}
);
width = 1707;
}
);
note = V;
unicode = 86;
},
{
glyphname = W;
kernLeft = W;
kernRight = W;
lastChange = "2025-07-10 17:01:01 +0000";
layers = (
{
background = {
shapes = (
{
closed = 1;
nodes = (
(852,740,qs),
(852,750,o),
(828,769,o),
(812,769,q),
(731,762,l),
(712,762,o),
(654,769,o),
(594,769,o),
(571,749,o),
(571,731,o),
(581,719,o),
(590,719,q),
(632,723,l),
(658,723,o),
(658,705,qs),
(658,663,o),
(638,618,qs),
(456,224,l),
(445,196,o),
(441,196,qs),
(439,196,o),
(430,201,o),
(413,242,q),
(234,637,ls),
(214,682,o),
(214,700,qs),
(214,723,o),
(244,723,q),
(282,719,l),
(301,719,o),
(301,738,qs),
(301,750,o),
(275,769,o),
(250,769,q),
(119,762,l),
(91,762,o),
(45,769,o),
(0,769,o),
(-13,759,qs),
(-19,754,o),
(-25,743,o),
(-25,730,o),
(-14,718,o),
(-6,718,q),
(21,722,l),
(29,722,o),
(44,715,o),
(71,685,o),
(98,623,qs),
(309,166,ls),
(358,59,o),
(410,13,qs),
(431,-7,o),
(464,-19,o),
(487,-19,o),
(487,-9,qs),
(487,-5,o),
(483,-2,q),
(471,6,ls),
(464,12,o),
(464,24,qs),
(464,50,o),
(499,134,qs),
(701,588,ls),
(740,671,o),
(767,704,qs),
(782,722,o),
(806,722,q),
(834,718,l),
(852,718,o)
);
}
);
};
layerId = m01;
shapes = (
{
closed = 1;
nodes = (
(372,-9,qs),
(459,25,o),
(502,146,qs),
(611,448,l),
(720,140,ls),
(746,69,o),
(804,21,qs),
(827,1,o),
(868,-19,o),
(877,-19,qs),
(896,-19,o),
(896,2,qs),
(896,8,o),
(885,16,qs),
(881,19,o),
(875,27,o),
(875,48,o),
(894,100,qs),
(938,220,l),
(1065,588,ls),
(1097,678,o),
(1119,704,qs),
(1130,717,o),
(1152,722,o),
(1165,722,q),
(1192,719,l),
(1201,719,o),
(1211,731,o),
(1211,750,o),
(1199,760,qs),
(1193,764,o),
(1178,770,o),
(1148,770,o),
(1109,762,o),
(1071,762,o),
(1015,770,o),
(955,770,o),
(931,749,o),
(931,731,o),
(941,719,o),
(950,719,q),
(988,724,l),
(1019,724,o),
(1019,686,o),
(998,627,qs),
(855,213,ls),
(849,196,o),
(846,190,qs),
(839,179,o),
(823,194,qs),
(815,202,o),
(806,230,qs),
(672,638,ls),
(655,691,o),
(655,704,qs),
(655,713,o),
(667,723,o),
(684,723,q),
(721,719,l),
(740,719,o),
(740,739,qs),
(740,750,o),
(714,770,o),
(672,770,o),
(657,769,qs),
(599,764,ls),
(584,762,o),
(568,762,q),
(475,770,l),
(453,770,o),
(439,759,qs),
(434,754,o),
(428,744,o),
(428,731,o),
(438,719,o),
(447,719,q),
(475,722,l),
(485,722,o),
(502,716,o),
(529,687,o),
(551,623,q),
(574,566,l),
(448,208,ls),
(438,180,o),
(425,180,qs),
(420,180,o),
(410,190,qs),
(401,198,o),
(391,226,qs),
(222,638,ls),
(202,687,o),
(202,701,qs),
(202,723,o),
(233,723,q),
(271,719,l),
(289,719,o),
(289,739,qs),
(289,750,o),
(264,770,o),
(222,770,o),
(207,769,qs),
(147,764,ls),
(133,762,o),
(89,762,o),
(42,770,o),
(-2,770,o),
(-15,759,qs),
(-21,754,o),
(-26,744,o),
(-26,731,o),
(-17,719,o),
(-7,719,q),
(20,722,l),
(27,722,o),
(35,718,qs),
(59,705,o),
(97,621,q),
(289,165,ls),
(322,87,o),
(331,58,qs),
(335,43,o),
(340,23,o),
(340,8,o),
(332,2,qs),
(327,-1,o),
(327,-8,qs),
(327,-17,o),
(334,-17,qs),
(351,-17,o)
);
}
);
userData = {
assembly = "NPUSHB[ ]	/* 54 values pushed */
1 0 119 117 104 103 102 101 96 95 94 93 92 91 88 87 86 85 71 70 69 68 65 63 61 60 59 58 53 52 51 50 44 42 35 34 33 32 29 27 25 24 23 22 17 16 15 14 0 128 1 128 25 8
CALL[ ]	/* CallFunction */
MPPEM[ ]	/* MeasurePixelPerEm */
PUSHB[ ]	/* 1 value pushed */
11
LT[ ]	/* LessThan */
IF[ ]	/* If */
NPUSHB[ ]	/* 55 values pushed */
124 46 2 8 1 1 33 0 8 1 0 1 8 0 53 22 21 17 16 15 14 10 9 7 6 2 11 1 1 3 1 0 39 20 19 18 13 12 11 5 4 8 3 3 12 34 23 24 2 0 0 13 0 35 5
ELSE[ ]	/* Else */
NPUSHB[ ]	/* 55 values pushed */
124 46 2 8 1 1 33 0 8 1 0 1 8 0 53 22 21 17 16 15 14 10 9 7 6 2 11 1 1 3 1 0 39 20 19 18 13 12 11 5 4 8 3 3 12 34 23 24 2 0 0 16 0 35 5
EIF[ ]	/* EndIf */
PUSHB[ ]	/* 1 value pushed */
59
CALL[ ]	/* CallFunction */";
};
width = 1167;
},
{
layerId = "6B1252CF-E426-46DC-A9C6-391C8BFD5F20";
shapes = (
{
closed = 1;
nodes = (
(818,14,qs),
(933,136,o),
(1007,343,qs),
(1220,957,l),
(1457,280,ls),
(1510,117,o),
(1610,12,qs),
(1654,-35,o),
(1740,-84,o),
(1811,-84,o),
(1811,-59,qs),
(1811,-39,o),
(1779,-26,qs),
(1738,-10,o),
(1738,28,qs),
(1738,44,o),
(1745,90,o),
(1876,442,qs),
(2133,1169,ls),
(2198,1352,o),
(2258,1424,qs),
(2290,1463,o),
(2349,1463,q),
(2405,1455,l),
(2438,1455,o),
(2438,1503,o),
(2392,1528,o),
(2338,1528,o),
(2321,1526,qs),
(2274,1518,ls),
(2245,1514,o),
(2198,1514,qs),
(2169,1514,o),
(2113,1521,qs),
(2065,1526,ls),
(2039,1528,o),
(1958,1528,o),
(1914,1500,o),
(1914,1481,qs),
(1914,1456,o),
(1946,1456,q),
(2022,1466,l),
(2090,1466,o),
(2090,1385,o),
(2041,1245,qs),
(1740,373,ls),
(1733,354,o),
(1715,313,o),
(1703,313,qs),
(1679,313,o),
(1650,409,qs),
(1369,1284,ls),
(1334,1393,o),
(1334,1416,qs),
(1334,1465,o),
(1398,1465,q),
(1474,1456,l),
(1506,1456,o),
(1506,1481,qs),
(1506,1528,o),
(1410,1528,q),
(1144,1514,l),
(955,1528,l),
(910,1528,o),
(867,1499,o),
(867,1481,qs),
(867,1455,o),
(900,1455,q),
(955,1463,l),
(977,1463,o),
(1015,1451,o),
(1069,1388,o),
(1114,1259,qs),
(1162,1121,l),
(906,373,ls),
(885,313,o),
(868,313,qs),
(846,313,o),
(810,409,qs),
(459,1284,ls),
(419,1382,o),
(419,1414,qs),
(419,1465,o),
(487,1465,q),
(563,1456,l),
(595,1456,o),
(595,1481,qs),
(595,1528,o),
(499,1528,q),
(233,1514,l),
(36,1528,l),
(-9,1528,o),
(-52,1499,o),
(-52,1481,qs),
(-52,1455,o),
(-19,1455,q),
(36,1463,l),
(52,1463,o),
(84,1449,o),
(142,1382,o),
(196,1255,qs),
(624,241,ls),
(688,82,o),
(688,27,qs),
(688,-6,o),
(654,-23,qs),
(637,-31,o),
(616,-44,o),
(616,-59,qs),
(616,-84,o),
(648,-84,qs),
(726,-84,o)
);
}
);
width = 2389;
}
);
note = W;
unicode = 87;
},
{
glyphname = X;
kernLeft = X;
kernRight = X;
lastChange = "2025-07-10 17:01:01 +0000";
layers = (
{
layerId = m01;
shapes = (
{
closed = 1;
nodes = (
(186,-7,o),
(247,-7,o),
(270,13,o),
(270,31,o),
(260,43,o),
(252,43,q),
(214,39,l),
(183,39,o),
(183,57,qs),
(183,82,o),
(260,176,q),
(375,308,l),
(523,120,ls),
(552,82,o),
(552,57,qs),
(552,40,o),
(501,40,o),
(494,41,qs),
(491,42,o),
(487,43,o),
(483,43,qs),
(465,43,o),
(465,24,qs),
(465,12,o),
(490,-7,o),
(515,-7,q),
(646,0,l),
(676,0,o),
(721,-7,o),
(767,-7,o),
(790,14,o),
(790,31,o),
(780,44,o),
(771,44,q),
(744,41,l),
(738,41,o),
(734,42,qs),
(722,44,o),
(706,67,qs),
(461,398,l),
(668,665,ls),
(691,692,o),
(721,722,o),
(732,722,q),
(760,719,l),
(779,719,o),
(779,741,qs),
(779,750,o),
(755,770,o),
(716,770,o),
(677,762,o),
(639,762,o),
(587,770,o),
(528,770,o),
(505,749,o),
(505,731,o),
(515,719,o),
(523,719,q),
(561,724,l),
(592,724,o),
(592,706,qs),
(592,667,o),
(525,585,qs),
(417,454,l),
(253,681,ls),
(243,695,o),
(243,705,qs),
(243,723,o),
(274,723,q),
(312,719,l),
(330,719,o),
(330,739,qs),
(330,750,o),
(305,770,o),
(280,770,q),
(149,762,l),
(132,762,o),
(74,769,qs),
(63,770,o),
(51,770,qs),
(40,770,o),
(31,767,qs),
(5,758,o),
(5,739,qs),
(5,719,o),
(24,719,q),
(51,722,o),
(51,722,q),
(63,722,o),
(77,711,o),
(88,696,qs),
(331,369,l),
(102,93,ls),
(60,41,o),
(37,41,q),
(9,44,l),
(1,44,o),
(-9,31,o),
(-9,12,o),
(15,-7,o),
(31,-7,q),
(112,0,l),
(130,0,o)
);
}
);
userData = {
assembly = "NPUSHB[ ]	/* 58 values pushed */
0 0 0 102 0 102 101 100 97 96 95 94 86 85 82 80 77 74 73 72 69 68 67 66 59 58 57 56 53 52 51 50 49 48 45 44 43 42 34 33 32 31 28 25 23 21 17 16 14 13 8 7 6 5 2 1 27 8
CALL[ ]	/* CallFunction */
NPUSHB[ ]	/* 58 values pushed */
90 62 38 10 4 1 3 1 33 15 14 10 9 8 7 4 7 3 3 5 1 0 39 13 12 11 6 4 5 5 12 34 23 22 21 20 17 16 2 7 1 1 0 1 2 39 26 25 24 19 18 5 0 0 13 0 35 5
PUSHB[ ]	/* 1 value pushed */
59
CALL[ ]	/* CallFunction */";
};
width = 766;
},
{
layerId = "6B1252CF-E426-46DC-A9C6-391C8BFD5F20";
shapes = (
{
closed = 1;
nodes = (
(317,62,o),
(317,104,qs),
(317,158,o),
(474,353,qs),
(720,656,l),
(1044,219,ls),
(1103,137,o),
(1103,105,qs),
(1103,63,o),
(1035,63,q),
(959,72,l),
(927,72,o),
(927,47,qs),
(927,0,o),
(1023,0,q),
(1289,14,l),
(1486,0,l),
(1531,0,o),
(1574,29,o),
(1574,47,qs),
(1574,73,o),
(1541,73,q),
(1486,65,l),
(1473,65,o),
(1464,68,qs),
(1439,74,o),
(1406,121,qs),
(889,820,l),
(1329,1355,ls),
(1355,1387,o),
(1374,1408,qs),
(1426,1463,o),
(1463,1463,q),
(1519,1455,l),
(1552,1455,o),
(1552,1503,o),
(1506,1528,o),
(1452,1528,o),
(1435,1526,qs),
(1388,1518,ls),
(1359,1514,o),
(1312,1514,qs),
(1283,1514,o),
(1227,1521,qs),
(1179,1526,ls),
(1153,1528,o),
(1072,1528,o),
(1028,1500,o),
(1028,1481,qs),
(1028,1456,o),
(1060,1456,q),
(1136,1466,l),
(1204,1466,o),
(1204,1424,qs),
(1204,1370,o),
(1047,1175,qs),
(827,904,l),
(527,1310,ls),
(469,1386,o),
(469,1423,qs),
(469,1465,o),
(537,1465,q),
(613,1456,l),
(645,1456,o),
(645,1481,qs),
(645,1528,o),
(549,1528,q),
(283,1514,l),
(86,1528,o),
(86,1528,q),
(41,1528,o),
(-2,1499,o),
(-2,1481,qs),
(-2,1455,o),
(31,1455,q),
(86,1463,l),
(99,1463,o),
(108,1460,qs),
(133,1454,o),
(166,1407,qs),
(659,740,l),
(192,173,ls),
(166,141,o),
(146,120,qs),
(95,65,o),
(58,65,q),
(2,73,l),
(-31,73,o),
(-31,25,o),
(15,0,o),
(69,0,o),
(86,2,qs),
(132,10,ls),
(162,14,o),
(208,14,qs),
(238,14,o),
(294,7,qs),
(342,2,ls),
(368,0,o),
(449,0,o),
(493,28,o),
(493,47,qs),
(493,72,o),
(461,72,q),
(385,62,l)
);
}
);
width = 1539;
}
);
note = X;
unicode = 88;
},
{
glyphname = Y;
kernLeft = Y;
kernRight = Y;
lastChange = "2025-07-10 17:01:01 +0000";
layers = (
{
layerId = m01;
shapes = (
{
closed = 1;
nodes = (
(776,734,o),
(776,748,qs),
(776,769,o),
(736,769,q),
(655,762,l),
(636,762,o),
(581,769,o),
(521,769,o),
(498,753,o),
(498,736,o),
(507,719,o),
(516,719,q),
(553,723,l),
(584,723,o),
(584,685,o),
(550,635,qs),
(402,404,l),
(230,655,l),
(209,691,o),
(209,705,qs),
(209,723,o),
(240,723,q),
(278,719,l),
(283,719,o),
(296,729,o),
(296,743,qs),
(296,769,o),
(246,769,q),
(115,762,l),
(17,769,l),
(-6,769,o),
(-29,753,o),
(-29,735,o),
(-19,718,o),
(-10,718,q),
(17,722,l),
(47,722,o),
(59,705,qs),
(322,328,l),
(322,161,ls),
(322,97,o),
(312,74,qs),
(306,61,o),
(285,48,o),
(258,48,o),
(242,50,qs),
(237,51,o),
(227,52,o),
(211,52,o),
(202,38,o),
(202,21,o),
(214,11,qs),
(220,6,o),
(248,-3,o),
(321,4,qs),
(350,6,ls),
(363,7,o),
(379,7,qs),
(396,7,o),
(409,6,qs),
(438,4,ls),
(452,2,o),
(484,0,o),
(529,0,o),
(544,11,qs),
(551,16,o),
(557,26,o),
(557,38,o),
(547,52,o),
(532,52,o),
(521,51,o),
(511,49,o),
(500,48,o),
(474,48,o),
(453,61,o),
(437,98,o),
(437,161,qs),
(437,331,l),
(686,705,l),
(699,722,o),
(725,722,qs),
(757,723,ls),
(762,723,o)
);
}
);
userData = {
assembly = "NPUSHB[ ]	/* 44 values pushed */
2 0 79 78 77 76 75 74 71 70 69 68 61 60 59 58 55 51 48 47 46 45 38 37 34 33 27 26 25 23 22 21 19 18 13 12 9 8 0 82 2 82 20 8
CALL[ ]	/* CallFunction */
NPUSHB[ ]	/* 50 values pushed */
65 43 4 3 1 0 1 33 15 14 13 12 10 9 19 7 0 0 11 1 0 39 18 17 16 3 11 11 12 34 8 7 2 3 1 1 3 1 0 39 6 5 4 3 3 3 13 3 35 5
PUSHB[ ]	/* 1 value pushed */
59
CALL[ ]	/* CallFunction */";
};
width = 751;
},
{
layerId = "6B1252CF-E426-46DC-A9C6-391C8BFD5F20";
shapes = (
{
closed = 1;
nodes = (
(914,102,qs),
(903,120,o),
(875,197,o),
(875,321,qs),
(875,664,l),
(1415,1426,ls),
(1443,1463,o),
(1498,1463,q),
(1564,1455,l),
(1597,1455,o),
(1597,1503,o),
(1551,1528,o),
(1497,1528,o),
(1480,1526,qs),
(1434,1518,ls),
(1404,1514,o),
(1358,1514,qs),
(1328,1514,o),
(1272,1521,qs),
(1224,1526,ls),
(1198,1528,o),
(1117,1528,o),
(1073,1500,o),
(1073,1481,qs),
(1073,1456,o),
(1105,1456,q),
(1181,1466,l),
(1249,1466,o),
(1249,1381,o),
(1172,1262,qs),
(833,762,l),
(464,1321,ls),
(419,1389,o),
(419,1424,qs),
(419,1465,o),
(487,1465,q),
(563,1456,l),
(595,1456,o),
(595,1481,qs),
(595,1528,o),
(499,1528,q),
(233,1514,l),
(36,1528,l),
(-9,1528,o),
(-52,1499,o),
(-52,1481,qs),
(-52,1455,o),
(-19,1455,q),
(36,1463,l),
(73,1463,o),
(110,1447,o),
(125,1426,qs),
(653,668,l),
(653,321,ls),
(653,279,o),
(646,157,o),
(615,102,qs),
(594,66,o),
(537,66,q),
(443,76,l),
(410,76,o),
(410,44,qs),
(410,30,o),
(464,-4,o),
(578,2,qs),
(597,3,o),
(629,6,o),
(686,15,o),
(764,15,qs),
(794,15,o),
(828,13,qs),
(846,12,o),
(878,9,o),
(921,4,o),
(950,2,qs),
(968,1,o),
(1005,0,o),
(1071,0,o),
(1118,30,o),
(1118,58,o),
(1101,76,o),
(1085,76,q),
(991,66,l),
(934,66,o)
);
}
);
width = 1539;
}
);
note = Y;
unicode = 89;
},
{
glyphname = Z;
kernLeft = Z;
kernRight = Z;
lastChange = "2025-07-10 17:01:01 +0000";
layers = (
{
layerId = m01;
shapes = (
{
closed = 1;
nodes = (
(670,83,o),
(699,145,q),
(699,145,l),
(713,173,o),
(713,185,qs),
(713,203,o),
(693,203,qs),
(686,203,o),
(671,187,qs),
(595,107,o),
(559,86,qs),
(519,63,o),
(455,63,qs),
(220,62,l),
(684,715,ls),
(696,731,o),
(696,746,qs),
(696,762,o),
(667,762,qs),
(214,762,ls),
(170,762,o),
(160,773,q),
(146,793,o),
(135,793,qs),
(129,793,o),
(119,783,o),
(108,717,o),
(90,662,qs),
(83,640,o),
(74,607,o),
(74,582,o),
(85,582,qs),
(90,582,o),
(100,589,o),
(126,621,o),
(151,642,qs),
(166,653,o),
(201,675,o),
(261,699,o),
(331,699,qs),
(529,699,l),
(71,54,ls),
(55,32,o),
(55,22,qs),
(55,0,o),
(93,0,qs),
(650,0,l)
);
}
);
userData = {
assembly = "NPUSHB[ ]	/* 22 values pushed */
1 0 44 43 40 38 34 32 28 25 23 21 15 13 7 5 0 46 1 46 9 8
CALL[ ]	/* CallFunction */
NPUSHB[ ]	/* 54 values pushed */
0 2 1 6 1 2 6 53 0 6 7 1 6 7 51 0 7 5 1 7 5 51 0 3 3 18 34 0 1 1 4 1 0 39 0 4 4 12 34 0 5 5 0 1 2 39 8 1 0 0 13 0 35 8
PUSHB[ ]	/* 1 value pushed */
59
CALL[ ]	/* CallFunction */";
};
width = 750;
},
{
layerId = "6B1252CF-E426-46DC-A9C6-391C8BFD5F20";
shapes = (
{
closed = 1;
nodes = (
(1339,105,o),
(1357,158,qs),
(1368,190,o),
(1394,252,o),
(1440,345,o),
(1440,369,qs),
(1440,391,o),
(1419,391,qs),
(1403,391,o),
(1365,350,qs),
(1339,322,o),
(1284,270,qs),
(1265,252,o),
(1246,237,qs),
(1206,206,ls),
(1126,143,o),
(1043,114,qs),
(992,97,o),
(892,97,qs),
(423,97,l),
(1393,1425,ls),
(1422,1465,o),
(1422,1485,qs),
(1422,1513,o),
(1361,1513,qs),
(425,1513,ls),
(364,1513,o),
(344,1518,qs),
(332,1521,o),
(318,1530,o),
(282,1576,o),
(266,1576,qs),
(257,1576,o),
(239,1557,o),
(222,1451,o),
(158,1238,qs),
(148,1205,o),
(148,1159,o),
(183,1159,o),
(247,1239,o),
(308,1289,qs),
(343,1317,o),
(424,1368,o),
(544,1415,o),
(693,1415,qs),
(1102,1415,l),
(130,101,ls),
(99,58,o),
(99,39,qs),
(99,0,o),
(171,0,qs),
(1314,0,l)
);
}
);
width = 1539;
}
);
note = Z;
unicode = 90;
},
{
glyphname = bracketleft;
lastChange = "2025-07-10 17:01:01 +0000";
layers = (
{
layerId = m01;
shapes = (
{
closed = 1;
nodes = (
(222,-88,qs),
(214,-85,o),
(214,-75,qs),
(214,779,ls),
(214,784,o),
(216,788,qs),
(221,797,o),
(269,797,q),
(334,792,l),
(344,792,o),
(354,808,o),
(354,819,o),
(351,824,qs),
(339,845,o),
(303,845,qs),
(126,845,ls),
(100,845,o),
(100,815,qs),
(100,-110,ls),
(100,-127,o),
(110,-141,o),
(123,-141,qs),
(303,-141,ls),
(326,-141,o),
(341,-130,qs),
(348,-125,o),
(354,-115,o),
(354,-104,o),
(344,-88,o),
(334,-88,q),
(269,-93,l),
(234,-93,o)
);
}
);
userData = {
assembly = "NPUSHB[ ]	/* 18 values pushed */
0 0 0 31 0 31 24 23 22 21 17 14 10 7 2 1 7 8
CALL[ ]	/* CallFunction */
NPUSHB[ ]	/* 26 values pushed */
6 5 2 0 0 1 0 1 1 0 40 4 1 3 3 2 1 0 39 0 2 2 14 3 35 3
PUSHB[ ]	/* 1 value pushed */
59
CALL[ ]	/* CallFunction */";
};
width = 417;
},
{
layerId = "6B1252CF-E426-46DC-A9C6-391C8BFD5F20";
shapes = (
{
closed = 1;
nodes = (
(508,-208,qs),
(492,-201,o),
(492,-178,qs),
(492,1596,ls),
(492,1607,o),
(496,1614,qs),
(506,1637,o),
(608,1637,q),
(742,1627,l),
(775,1627,o),
(775,1659,qs),
(775,1673,o),
(728,1703,o),
(677,1703,qs),
(320,1703,ls),
(270,1703,o),
(270,1647,qs),
(270,-229,ls),
(270,-261,o),
(289,-285,o),
(312,-285,qs),
(677,-285,ls),
(728,-285,o),
(775,-255,o),
(775,-227,o),
(758,-209,o),
(742,-209,q),
(608,-219,l),
(535,-219,o)
);
}
);
width = 825;
}
);
note = bracketleft;
unicode = 91;
},
{
glyphname = asciicircum;
lastChange = "2025-07-10 17:01:01 +0000";
layers = (
{
layerId = m01;
shapes = (
{
closed = 1;
nodes = (
(153,479,l),
(275,665,l),
(401,479,l),
(490,479,l),
(293,775,l),
(261,775,l),
(66,479,l)
);
}
);
userData = {
assembly = "NPUSHB[ ]	/* 8 values pushed */
6 5 3 2 1 0 3 8
CALL[ ]	/* CallFunction */
NPUSHB[ ]	/* 19 values pushed */
4 1 1 0 1 33 2 1 1 0 1 56 0 0 0 12 0 35 3
PUSHB[ ]	/* 1 value pushed */
59
CALL[ ]	/* CallFunction */";
};
width = 557;
},
{
layerId = "6B1252CF-E426-46DC-A9C6-391C8BFD5F20";
shapes = (
{
closed = 1;
nodes = (
(313,973,l),
(565,1352,l),
(822,973,l),
(991,973,l),
(598,1562,l),
(538,1562,l),
(150,973,l)
);
}
);
width = 1141;
}
);
note = asciicircum;
unicode = 94;
},
{
glyphname = underscore;
kernLeft = u;
kernRight = u;
lastChange = "2025-07-10 17:01:01 +0000";
layers = (
{
layerId = m01;
shapes = (
{
closed = 1;
nodes = (
(-27,-85,o),
(-49,-104,o),
(-49,-138,o),
(-28,-157,o),
(-11,-157,qs),
(674,-157,ls),
(691,-157,o),
(712,-138,o),
(712,-104,o),
(690,-85,o),
(673,-85,qs),
(-10,-85,ls)
);
}
);
userData = {
assembly = "NPUSHB[ ]	/* 10 values pushed */
1 0 7 4 0 11 1 10 3 8
CALL[ ]	/* CallFunction */
NPUSHB[ ]	/* 25 values pushed */
2 1 0 1 1 0 1 0 38 2 1 0 0 1 1 0 39 0 1 0 1 1 0 36 3
PUSHB[ ]	/* 1 value pushed */
59
CALL[ ]	/* CallFunction */";
};
width = 664;
},
{
layerId = "6B1252CF-E426-46DC-A9C6-391C8BFD5F20";
shapes = (
{
closed = 1;
nodes = (
(-10,-320,l),
(826,-320,l),
(826,-183,l),
(-10,-183,l)
);
}
);
width = 816;
}
);
note = underscore;
unicode = 95;
},
{
glyphname = grave;
lastChange = "2025-07-10 17:01:01 +0000";
layers = (
{
layerId = m01;
shapes = (
{
closed = 1;
nodes = (
(218,619,qs),
(143,721,ls),
(105,773,o),
(75,779,qs),
(28,790,o),
(12,759,qs),
(-1,732,o),
(22,699,qs),
(33,685,o),
(73,662,qs),
(188,596,ls),
(202,587,o),
(211,587,qs),
(217,586,o),
(225,596,o),
(226,608,o)
);
}
);
userData = {
assembly = "NPUSHB[ ]	/* 4 values pushed */
3 2 1 8
CALL[ ]	/* CallFunction */
NPUSHB[ ]	/* 5 values pushed */
0 0 0 46 1
PUSHB[ ]	/* 1 value pushed */
59
CALL[ ]	/* CallFunction */";
};
width = 314;
},
{
layerId = "6B1252CF-E426-46DC-A9C6-391C8BFD5F20";
shapes = (
{
closed = 1;
nodes = (
(502,1190,o),
(517,1190,qs),
(544,1190,o),
(544,1218,qs),
(544,1228,o),
(527,1248,qs),
(367,1447,ls),
(310,1518,o),
(266,1542,qs),
(245,1554,o),
(206,1561,o),
(151,1561,o),
(100,1516,o),
(100,1462,o),
(105,1444,qs),
(122,1384,o),
(236,1327,qs),
(474,1205,ls)
);
}
);
width = 644;
}
);
note = grave;
unicode = 96;
},
{
glyphname = a;
kernLeft = a;
kernRight = a;
lastChange = "2025-07-10 17:01:01 +0000";
layers = (
{
layerId = m01;
shapes = (
{
closed = 1;
nodes = (
(603,-4,l),
(628,-4,o),
(642,7,qs),
(647,11,o),
(651,22,o),
(651,32,o),
(641,46,o),
(633,46,q),
(605,42,l),
(589,42,o),
(568,49,o),
(551,85,o),
(551,173,qs),
(551,314,ls),
(551,409,o),
(506,455,qs),
(479,482,o),
(387,514,o),
(266,514,o),
(196,497,q),
(193,497,o),
(173,509,qs),
(159,518,o),
(140,518,qs),
(121,518,o),
(121,493,qs),
(121,430,o),
(108,390,qs),
(103,371,o),
(103,362,qs),
(103,347,o),
(131,347,o),
(154,378,qs),
(184,419,o),
(218,434,qs),
(234,440,o),
(269,445,o),
(320,445,o),
(348,439,qs),
(437,422,o),
(437,326,qs),
(437,270,l),
(369,306,o),
(285,306,qs),
(198,306,o),
(140,270,qs),
(72,228,o),
(72,147,qs),
(72,73,o),
(124,31,qs),
(150,11,o),
(228,-12,o),
(302,-12,o),
(324,-8,qs),
(396,6,o),
(438,48,q),
(443,-3,o),
(472,-3,q),
(527,0,l)
);
},
{
closed = 1;
nodes = (
(389,57,o),
(314,57,qs),
(254,57,o),
(187,107,o),
(187,158,qs),
(187,177,o),
(195,192,qs),
(223,245,o),
(314,245,qs),
(379,245,o),
(437,208,q),
(437,116,l)
);
}
);
userData = {
assembly = "NPUSHB[ ]	/* 30 values pushed */
1 0 69 67 62 60 51 50 49 48 40 39 38 37 35 33 27 26 21 20 15 13 6 5 0 58 1 56 13 8
CALL[ ]	/* CallFunction */
MPPEM[ ]	/* MeasurePixelPerEm */
PUSHB[ ]	/* 1 value pushed */
9
LT[ ]	/* LessThan */
IF[ ]	/* If */
NPUSHB[ ]	/* 87 values pushed */
16 1 10 2 70 59 2 11 10 2 1 8 11 3 33 0 2 0 10 11 2 10 1 0 41 0 6 6 15 34 0 3 3 5 1 0 39 7 1 5 5 21 34 0 4 4 5 1 0 39 7 1 5 5 21 34 0 11 11 0 1 0 39 1 12 2 0 0 13 34 9 1 8 8 0 1 0 39 1 12 2 0 0 13 0 35 11
ELSE[ ]	/* Else */
MPPEM[ ]	/* MeasurePixelPerEm */
PUSHB[ ]	/* 1 value pushed */
11
LT[ ]	/* LessThan */
IF[ ]	/* If */
NPUSHB[ ]	/* 87 values pushed */
16 1 10 2 70 59 2 11 10 2 1 8 11 3 33 0 2 0 10 11 2 10 1 0 41 0 6 6 15 34 0 3 3 5 1 0 39 7 1 5 5 15 34 0 4 4 5 1 0 39 7 1 5 5 15 34 0 11 11 0 1 0 39 1 12 2 0 0 13 34 9 1 8 8 0 1 0 39 1 12 2 0 0 13 0 35 11
ELSE[ ]	/* Else */
MPPEM[ ]	/* MeasurePixelPerEm */
PUSHB[ ]	/* 1 value pushed */
13
LT[ ]	/* LessThan */
IF[ ]	/* If */
NPUSHB[ ]	/* 87 values pushed */
16 1 10 2 70 59 2 11 10 2 1 8 11 3 33 0 2 0 10 11 2 10 1 0 41 0 6 6 15 34 0 3 3 5 1 0 39 7 1 5 5 21 34 0 4 4 5 1 0 39 7 1 5 5 21 34 0 11 11 0 1 0 39 1 12 2 0 0 13 34 9 1 8 8 0 1 0 39 1 12 2 0 0 13 0 35 11
ELSE[ ]	/* Else */
MPPEM[ ]	/* MeasurePixelPerEm */
PUSHB[ ]	/* 1 value pushed */
17
LT[ ]	/* LessThan */
IF[ ]	/* If */
NPUSHB[ ]	/* 71 values pushed */
16 1 10 2 70 59 2 3 8 10 2 33 0 2 0 10 8 2 10 1 0 41 0 6 6 15 34 0 3 3 5 1 0 39 7 1 5 5 21 34 0 4 4 5 1 0 39 7 1 5 5 21 34 11 9 2 8 8 0 1 0 39 1 12 2 0 0 13 0 35 9
ELSE[ ]	/* Else */
NPUSHB[ ]	/* 87 values pushed */
16 1 10 2 70 59 2 11 10 2 1 8 11 3 33 0 2 0 10 11 2 10 1 0 41 0 6 6 15 34 0 3 3 5 1 0 39 7 1 5 5 21 34 0 4 4 5 1 0 39 7 1 5 5 21 34 0 11 11 0 1 0 39 1 12 2 0 0 13 34 9 1 8 8 0 1 0 39 1 12 2 0 0 13 0 35 11
EIF[ ]	/* EndIf */
EIF[ ]	/* EndIf */
EIF[ ]	/* EndIf */
EIF[ ]	/* EndIf */
PUSHB[ ]	/* 1 value pushed */
59
CALL[ ]	/* CallFunction */";
};
width = 660;
},
{
layerId = "6B1252CF-E426-46DC-A9C6-391C8BFD5F20";
shapes = (
{
closed = 1;
nodes = (
(1038,3,qs),
(1064,5,ls),
(1078,6,o),
(1091,6,qs),
(1244,-3,l),
(1337,-3,o),
(1337,44,qs),
(1337,70,o),
(1305,70,q),
(1249,62,l),
(1222,62,o),
(1166,86,o),
(1147,132,o),
(1133,200,o),
(1133,345,qs),
(1133,631,ls),
(1133,714,o),
(1114,787,qs),
(1050,1032,o),
(659,1032,qs),
(623,1032,o),
(553,1020,qs),
(524,1015,o),
(473,1004,o),
(433,989,o),
(419,989,qs),
(409,989,o),
(395,1000,qs),
(345,1039,o),
(305,1039,qs),
(273,1039,o),
(273,995,qs),
(273,859,o),
(248,786,qs),
(235,748,o),
(235,704,o),
(283,704,o),
(330,766,qs),
(459,942,o),
(618,942,qs),
(753,942,o),
(830,872,qs),
(913,796,o),
(913,655,qs),
(913,535,l),
(771,611,o),
(415,611,o),
(302,538,qs),
(173,455,o),
(173,293,qs),
(173,144,o),
(277,62,qs),
(329,21,o),
(485,-24,o),
(636,-24,o),
(682,-16,qs),
(826,11,o),
(914,102,q),
(922,0,o),
(979,0,qs),
(1011,0,o)
);
},
{
closed = 1;
nodes = (
(595,516,o),
(693,516,o),
(728,510,qs),
(836,491,o),
(913,443,q),
(913,205,l),
(891,176,o),
(862,154,qs),
(772,86,o),
(660,86,qs),
(537,86,o),
(471,148,qs),
(439,178,o),
(406,263,o),
(406,355,o),
(437,427,o),
(500,483,o)
);
}
);
width = 1366;
}
);
note = a;
unicode = 97;
},
{
glyphname = b;
kernRight = o;
lastChange = "2025-07-10 17:01:01 +0000";
layers = (
{
layerId = m01;
shapes = (
{
closed = 1;
nodes = (
(130,1,qs),
(164,12,ls),
(178,17,o),
(202,17,o),
(219,12,qs),
(273,-2,ls),
(312,-12,o),
(354,-12,qs),
(472,-12,o),
(550,67,qs),
(627,146,o),
(627,259,qs),
(627,374,o),
(554,444,qs),
(481,514,o),
(362,514,qs),
(268,514,o),
(211,466,q),
(211,781,ls),
(211,823,o),
(206,835,qs),
(203,841,o),
(190,845,o),
(174,845,o),
(139,838,o),
(103,838,qs),
(88,838,o),
(57,841,qs),
(37,843,ls),
(27,844,o),
(0,844,o),
(-15,828,o),
(-15,821,qs),
(-15,800,o),
(21,797,qs),
(40,795,o),
(72,782,o),
(95,743,o),
(95,658,qs),
(95,146,ls),
(95,82,o),
(91,59,qs),
(88,45,o),
(80,31,o),
(54,11,o),
(54,1,qs),
(54,-15,o),
(71,-15,qs),
(83,-15,o)
);
},
{
closed = 1;
nodes = (
(219,392,o),
(232,404,qs),
(272,440,o),
(328,440,qs),
(407,440,o),
(454,391,qs),
(505,336,o),
(505,230,qs),
(505,150,o),
(459,106,qs),
(413,62,o),
(328,62,qs),
(243,62,o),
(211,125,q),
(211,374,l)
);
}
);
userData = {
assembly = "NPUSHB[ ]	/* 24 values pushed */
1 0 60 58 52 50 45 44 41 39 33 31 25 24 23 21 18 17 0 48 1 48 10 8
CALL[ ]	/* CallFunction */
MPPEM[ ]	/* MeasurePixelPerEm */
PUSHB[ ]	/* 1 value pushed */
9
LT[ ]	/* LessThan */
IF[ ]	/* If */
NPUSHB[ ]	/* 53 values pushed */
30 1 8 4 63 49 2 7 8 2 33 0 8 8 4 1 0 39 0 4 4 15 34 0 6 6 1 1 0 39 3 2 2 1 1 14 34 0 7 7 0 1 0 39 5 9 2 0 0 13 0 35 7
ELSE[ ]	/* Else */
MPPEM[ ]	/* MeasurePixelPerEm */
PUSHB[ ]	/* 1 value pushed */
11
LT[ ]	/* LessThan */
IF[ ]	/* If */
NPUSHB[ ]	/* 53 values pushed */
30 1 8 4 63 49 2 7 8 2 33 0 8 8 4 1 0 39 0 4 4 15 34 0 6 6 1 1 0 39 3 2 2 1 1 14 34 0 7 7 0 1 0 39 5 9 2 0 0 16 0 35 7
ELSE[ ]	/* Else */
MPPEM[ ]	/* MeasurePixelPerEm */
PUSHB[ ]	/* 1 value pushed */
15
LT[ ]	/* LessThan */
IF[ ]	/* If */
NPUSHB[ ]	/* 53 values pushed */
30 1 8 4 63 49 2 7 8 2 33 0 8 8 4 1 0 39 0 4 4 15 34 0 6 6 1 1 0 39 3 2 2 1 1 14 34 0 7 7 0 1 0 39 5 9 2 0 0 13 0 35 7
ELSE[ ]	/* Else */
MPPEM[ ]	/* MeasurePixelPerEm */
PUSHB[ ]	/* 1 value pushed */
19
LT[ ]	/* LessThan */
IF[ ]	/* If */
NPUSHB[ ]	/* 53 values pushed */
30 1 8 4 63 49 2 7 8 2 33 0 8 8 4 1 0 39 0 4 4 15 34 0 6 6 1 1 0 39 3 2 2 1 1 14 34 0 7 7 0 1 0 39 5 9 2 0 0 16 0 35 7
ELSE[ ]	/* Else */
MPPEM[ ]	/* MeasurePixelPerEm */
PUSHB[ ]	/* 1 value pushed */
21
LT[ ]	/* LessThan */
IF[ ]	/* If */
NPUSHB[ ]	/* 53 values pushed */
30 1 8 4 63 49 2 7 8 2 33 0 8 8 4 1 0 39 0 4 4 15 34 0 6 6 1 1 0 39 3 2 2 1 1 14 34 0 7 7 0 1 0 39 5 9 2 0 0 13 0 35 7
ELSE[ ]	/* Else */
NPUSHB[ ]	/* 53 values pushed */
30 1 8 4 63 49 2 7 8 2 33 0 8 8 4 1 0 39 0 4 4 15 34 0 6 6 1 1 0 39 3 2 2 1 1 14 34 0 7 7 0 1 0 39 5 9 2 0 0 16 0 35 7
EIF[ ]	/* EndIf */
EIF[ ]	/* EndIf */
EIF[ ]	/* EndIf */
EIF[ ]	/* EndIf */
EIF[ ]	/* EndIf */
PUSHB[ ]	/* 1 value pushed */
59
CALL[ ]	/* CallFunction */";
};
width = 672;
},
{
layerId = "6B1252CF-E426-46DC-A9C6-391C8BFD5F20";
shapes = (
{
closed = 1;
nodes = (
(169,-30,o),
(287,11,qs),
(350,33,o),
(388,33,qs),
(420,33,o),
(460,19,qs),
(575,-24,o),
(717,-24,qs),
(953,-24,o),
(1112,136,qs),
(1267,293,o),
(1267,521,qs),
(1267,753,o),
(1120,892,qs),
(972,1032,o),
(733,1032,qs),
(537,1032,o),
(423,930,q),
(423,1580,ls),
(423,1663,o),
(413,1684,qs),
(407,1696,o),
(384,1703,o),
(351,1703,o),
(270,1689,o),
(213,1689,qs),
(173,1689,o),
(116,1695,qs),
(74,1699,ls),
(54,1701,o),
(3,1701,o),
(-25,1682,o),
(-25,1670,qs),
(-25,1642,o),
(27,1637,qs),
(117,1629,o),
(152,1589,qs),
(198,1533,o),
(198,1330,qs),
(198,292,ls),
(198,156,o),
(188,110,qs),
(183,84,o),
(165,55,o),
(115,15,o),
(115,-3,qs),
(115,-30,o)
);
},
{
closed = 1;
nodes = (
(439,832,o),
(468,858,qs),
(552,937,o),
(664,937,qs),
(822,937,o),
(924,814,qs),
(1030,683,o),
(1030,463,qs),
(1030,293,o),
(934,182,qs),
(834,64,o),
(665,64,qs),
(490,64,o),
(423,198,q),
(423,796,l)
);
}
);
width = 1366;
}
);
metricRight = o;
note = b;
unicode = 98;
},
{
glyphname = c;
kernLeft = o;
kernRight = c;
lastChange = "2025-07-10 17:01:01 +0000";
layers = (
{
layerId = m01;
shapes = (
{
closed = 1;
nodes = (
(530,383,qs),
(521,406,o),
(518,433,qs),
(517,446,o),
(517,476,o),
(517,514,o),
(500,514,qs),
(495,514,o),
(487,511,qs),
(472,503,ls),
(463,500,o),
(446,493,o),
(434,493,o),
(426,496,qs),
(388,514,o),
(331,514,qs),
(251,514,o),
(183,476,qs),
(151,458,o),
(100,408,o),
(64,349,o),
(45,285,o),
(45,193,o),
(66,145,qs),
(108,47,o),
(211,8,qs),
(316,-32,o),
(415,9,qs),
(439,19,o),
(481,45,o),
(513,75,o),
(532,106,o),
(532,128,o),
(517,143,o),
(492,140,o),
(479,122,qs),
(437,62,o),
(351,62,qs),
(274,62,o),
(222,120,qs),
(166,181,o),
(166,280,qs),
(166,358,o),
(212,401,qs),
(233,421,o),
(288,440,o),
(376,440,o),
(409,429,qs),
(430,422,o),
(469,396,o),
(508,346,o),
(521,346,qs),
(535,346,o),
(535,361,qs),
(535,370,o)
);
}
);
userData = {
assembly = "NPUSHB[ ]	/* 14 values pushed */
48 46 42 41 39 37 17 15 8 7 3 1 6 8
CALL[ ]	/* CallFunction */
NPUSHB[ ]	/* 38 values pushed */
0 2 0 2 56 0 4 4 15 34 0 1 1 3 1 0 39 5 1 3 3 15 34 0 0 0 3 1 0 39 5 1 3 3 15 0 35 6
PUSHB[ ]	/* 1 value pushed */
59
CALL[ ]	/* CallFunction */";
};
width = 569;
},
{
layerId = "6B1252CF-E426-46DC-A9C6-391C8BFD5F20";
shapes = (
{
closed = 1;
nodes = (
(1079,819,o),
(1073,871,qs),
(1070,897,o),
(1069,959,o),
(1069,1032,o),
(1040,1032,qs),
(1018,1032,o),
(935,989,o),
(916,989,qs),
(904,989,o),
(871,1000,qs),
(764,1032,o),
(670,1032,qs),
(423,1032,o),
(266,868,qs),
(122,716,o),
(122,505,qs),
(122,273,o),
(281,124,qs),
(438,-24,o),
(676,-24,qs),
(920,-24,o),
(1061,155,qs),
(1099,204,o),
(1099,242,qs),
(1099,252,o),
(1082,267,o),
(1057,267,o),
(1038,249,o),
(999,193,o),
(966,168,qs),
(870,92,o),
(748,92,qs),
(590,92,o),
(477,222,qs),
(358,360,o),
(358,564,qs),
(358,728,o),
(452,836,qs),
(496,885,o),
(611,940,o),
(770,940,o),
(943,847,o),
(1060,702,o),
(1083,702,qs),
(1106,702,o),
(1106,727,qs),
(1106,741,o)
);
}
);
width = 1196;
}
);
metricLeft = o;
note = c;
unicode = 99;
},
{
glyphname = d;
kernLeft = o;
lastChange = "2025-07-10 17:01:01 +0000";
layers = (
{
layerId = m01;
shapes = (
{
closed = 1;
nodes = (
(483,-3,q),
(537,0,ls),
(542,0,o),
(561,-1,o),
(572,-2,qs),
(594,-4,ls),
(604,-4,o),
(637,-4,o),
(651,7,qs),
(656,11,o),
(660,22,o),
(660,33,o),
(650,42,o),
(642,42,q),
(614,38,l),
(597,38,o),
(577,50,o),
(564,88,o),
(564,173,qs),
(564,781,ls),
(564,824,o),
(558,835,qs),
(555,841,o),
(543,845,o),
(527,845,o),
(517,843,o),
(511,842,qs),
(481,839,ls),
(470,838,o),
(441,838,o),
(410,841,qs),
(400,842,o),
(380,844,o),
(353,844,o),
(338,828,o),
(338,821,qs),
(338,800,o),
(373,797,qs),
(392,795,o),
(424,783,o),
(448,742,o),
(448,659,qs),
(448,487,l),
(390,514,o),
(316,514,qs),
(201,514,o),
(122,438,qs),
(45,362,o),
(45,252,qs),
(45,132,o),
(119,62,qs),
(154,27,o),
(256,-11,o),
(391,-11,o),
(452,26,q),
(462,-3,o)
);
},
{
closed = 1;
nodes = (
(264,62,o),
(214,119,qs),
(163,178,o),
(163,277,qs),
(163,353,o),
(205,396,qs),
(247,440,o),
(323,440,qs),
(405,440,o),
(448,385,q),
(448,98,l),
(409,62,o)
);
}
);
userData = {
assembly = "NPUSHB[ ]	/* 26 values pushed */
67 66 60 58 55 52 51 50 49 47 42 41 40 39 31 30 26 25 22 21 11 9 2 1 12 8
CALL[ ]	/* CallFunction */
MPPEM[ ]	/* MeasurePixelPerEm */
PUSHB[ ]	/* 1 value pushed */
13
LT[ ]	/* LessThan */
IF[ ]	/* If */
NPUSHB[ ]	/* 67 values pushed */
12 1 10 1 57 56 2 11 10 0 1 0 5 3 33 4 3 2 2 2 14 34 0 10 10 1 1 0 39 0 1 1 15 34 0 11 11 0 1 0 39 9 8 7 3 0 0 13 34 6 1 5 5 0 1 0 39 9 8 7 3 0 0 13 0 35 8
ELSE[ ]	/* Else */
MPPEM[ ]	/* MeasurePixelPerEm */
PUSHB[ ]	/* 1 value pushed */
17
LT[ ]	/* LessThan */
IF[ ]	/* If */
NPUSHB[ ]	/* 67 values pushed */
12 1 10 1 57 56 2 11 10 0 1 0 5 3 33 4 3 2 2 2 14 34 0 10 10 1 1 0 39 0 1 1 15 34 0 11 11 0 1 0 39 9 8 7 3 0 0 16 34 6 1 5 5 0 1 0 39 9 8 7 3 0 0 16 0 35 8
ELSE[ ]	/* Else */
MPPEM[ ]	/* MeasurePixelPerEm */
PUSHB[ ]	/* 1 value pushed */
21
LT[ ]	/* LessThan */
IF[ ]	/* If */
NPUSHB[ ]	/* 67 values pushed */
12 1 10 1 57 56 2 11 10 0 1 0 5 3 33 4 3 2 2 2 14 34 0 10 10 1 1 0 39 0 1 1 15 34 0 11 11 0 1 0 39 9 8 7 3 0 0 13 34 6 1 5 5 0 1 0 39 9 8 7 3 0 0 13 0 35 8
ELSE[ ]	/* Else */
NPUSHB[ ]	/* 67 values pushed */
12 1 10 1 57 56 2 11 10 0 1 0 5 3 33 4 3 2 2 2 14 34 0 10 10 1 1 0 39 0 1 1 15 34 0 11 11 0 1 0 39 9 8 7 3 0 0 16 34 6 1 5 5 0 1 0 39 9 8 7 3 0 0 16 0 35 8
EIF[ ]	/* EndIf */
EIF[ ]	/* EndIf */
EIF[ ]	/* EndIf */
PUSHB[ ]	/* 1 value pushed */
59
CALL[ ]	/* CallFunction */";
};
width = 675;
},
{
layerId = "6B1252CF-E426-46DC-A9C6-391C8BFD5F20";
shapes = (
{
closed = 1;
nodes = (
(984,0,qs),
(1016,0,o),
(1043,3,qs),
(1068,5,ls),
(1080,6,o),
(1093,6,qs),
(1246,-3,l),
(1339,-3,o),
(1339,45,qs),
(1339,70,o),
(1307,70,q),
(1251,63,l),
(1224,63,o),
(1176,77,o),
(1143,157,o),
(1143,345,qs),
(1143,1580,ls),
(1143,1663,o),
(1133,1684,qs),
(1127,1696,o),
(1104,1703,o),
(1071,1703,o),
(990,1689,o),
(933,1689,qs),
(893,1689,o),
(836,1695,qs),
(794,1699,ls),
(774,1701,o),
(723,1701,o),
(695,1682,o),
(695,1670,qs),
(695,1642,o),
(747,1637,qs),
(837,1629,o),
(872,1589,qs),
(918,1531,o),
(918,1332,qs),
(918,974,l),
(804,1032,o),
(645,1032,qs),
(415,1032,o),
(257,878,qs),
(101,726,o),
(101,507,qs),
(101,266,o),
(249,124,qs),
(321,55,o),
(526,-20,o),
(804,-20,o),
(926,57,q),
(940,0,o)
);
},
{
closed = 1;
nodes = (
(331,349,o),
(331,557,qs),
(331,716,o),
(417,825,qs),
(459,878,o),
(581,940,o),
(694,940,o),
(730,932,qs),
(852,907,o),
(918,821,q),
(918,147,l),
(825,62,o),
(700,64,qs),
(541,64,o)
);
}
);
width = 1364;
}
);
metricLeft = o;
note = d;
unicode = 100;
},
{
glyphname = e;
kernLeft = o;
kernRight = e;
lastChange = "2025-07-10 17:01:01 +0000";
layers = (
{
layerId = m01;
shapes = (
{
closed = 1;
nodes = (
(267,-12,o),
(388,-12,o),
(494,33,o),
(527,77,qs),
(546,102,o),
(546,121,qs),
(546,125,o),
(544,129,qs),
(537,146,o),
(526,146,qs),
(509,146,o),
(494,124,qs),
(485,111,o),
(469,100,qs),
(420,62,o),
(361,62,qs),
(292,62,o),
(242,96,qs),
(185,135,o),
(168,206,q),
(254,227,ls),
(406,263,o),
(531,308,qs),
(546,313,o),
(551,325,qs),
(554,330,o),
(555,340,o),
(555,359,o),
(535,395,qs),
(506,443,o),
(463,473,qs),
(403,514,o),
(323,514,qs),
(203,514,o),
(121,434,qs),
(85,397,o),
(45,303,o),
(45,189,o),
(89,92,o),
(165,24,o)
);
},
{
closed = 1;
nodes = (
(161,276,qs),
(161,285,ls),
(161,371,o),
(223,411,qs),
(268,440,o),
(319,440,qs),
(371,440,o),
(404,410,qs),
(418,396,o),
(432,366,o),
(432,349,o),
(431,346,qs),
(425,337,o),
(301,304,qs),
(162,268,l),
(161,272,o)
);
}
);
userData = {
assembly = "NPUSHB[ ]	/* 12 values pushed */
50 48 38 37 30 28 24 22 7 5 5 8
CALL[ ]	/* CallFunction */
MPPEM[ ]	/* MeasurePixelPerEm */
PUSHB[ ]	/* 1 value pushed */
9
LT[ ]	/* LessThan */
IF[ ]	/* If */
NPUSHB[ ]	/* 40 values pushed */
19 1 2 4 1 33 0 2 4 1 4 2 1 53 0 4 4 0 1 0 39 0 0 0 15 34 0 1 1 3 1 0 39 0 3 3 13 3 35 6
ELSE[ ]	/* Else */
MPPEM[ ]	/* MeasurePixelPerEm */
PUSHB[ ]	/* 1 value pushed */
13
LT[ ]	/* LessThan */
IF[ ]	/* If */
NPUSHB[ ]	/* 40 values pushed */
19 1 2 4 1 33 0 2 4 1 4 2 1 53 0 4 4 0 1 0 39 0 0 0 15 34 0 1 1 3 1 0 39 0 3 3 16 3 35 6
ELSE[ ]	/* Else */
MPPEM[ ]	/* MeasurePixelPerEm */
PUSHB[ ]	/* 1 value pushed */
17
LT[ ]	/* LessThan */
IF[ ]	/* If */
NPUSHB[ ]	/* 40 values pushed */
19 1 2 4 1 33 0 2 4 1 4 2 1 53 0 4 4 0 1 0 39 0 0 0 15 34 0 1 1 3 1 0 39 0 3 3 13 3 35 6
ELSE[ ]	/* Else */
MPPEM[ ]	/* MeasurePixelPerEm */
PUSHB[ ]	/* 1 value pushed */
21
LT[ ]	/* LessThan */
IF[ ]	/* If */
NPUSHB[ ]	/* 40 values pushed */
19 1 2 4 1 33 0 2 4 1 4 2 1 53 0 4 4 0 1 0 39 0 0 0 15 34 0 1 1 3 1 0 39 0 3 3 16 3 35 6
ELSE[ ]	/* Else */
NPUSHB[ ]	/* 40 values pushed */
19 1 2 4 1 33 0 2 4 1 4 2 1 53 0 4 4 0 1 0 39 0 0 0 15 34 0 1 1 3 1 0 39 0 3 3 13 3 35 6
EIF[ ]	/* EndIf */
EIF[ ]	/* EndIf */
EIF[ ]	/* EndIf */
EIF[ ]	/* EndIf */
PUSHB[ ]	/* 1 value pushed */
59
CALL[ ]	/* CallFunction */";
};
width = 592;
},
{
layerId = "6B1252CF-E426-46DC-A9C6-391C8BFD5F20";
shapes = (
{
closed = 1;
nodes = (
(541,-24,o),
(786,-24,o),
(889,20,qs),
(941,43,o),
(1030,110,o),
(1100,206,o),
(1100,241,qs),
(1100,267,o),
(1072,267,qs),
(1059,267,o),
(1040,249,o),
(1004,198,o),
(969,173,qs),
(856,92,o),
(729,92,qs),
(595,92,o),
(490,180,qs),
(380,271,o),
(345,427,q),
(508,466,ls),
(806,538,o),
(1072,635,qs),
(1118,651,o),
(1118,695,qs),
(1118,722,o),
(1092,768,qs),
(1029,878,o),
(954,936,qs),
(829,1032,o),
(651,1032,qs),
(410,1032,o),
(248,871,qs),
(174,798,o),
(93,607,o),
(93,381,o),
(182,185,o),
(335,48,o)
);
},
{
closed = 1;
nodes = (
(332,531,qs),
(332,552,ls),
(332,742,o),
(418,845,qs),
(458,893,o),
(564,940,o),
(696,940,o),
(760,892,qs),
(789,870,o),
(833,815,o),
(863,759,o),
(879,708,o),
(879,668,o),
(855,660,qs),
(673,596,o),
(333,511,q),
(332,521,o)
);
}
);
width = 1194;
}
);
metricLeft = o;
note = e;
unicode = 101;
},
{
glyphname = f;
kernLeft = f;
kernRight = f;
lastChange = "2025-07-10 17:01:01 +0000";
layers = (
{
layerId = m01;
shapes = (
{
closed = 1;
nodes = (
(125,-5,o),
(148,-2,o),
(204,2,o),
(260,-4,qs),
(271,-5,o),
(282,-6,qs),
(328,-11,o),
(350,2,qs),
(357,7,o),
(366,18,o),
(366,30,o),
(356,44,o),
(348,44,q),
(314,40,l),
(280,40,o),
(269,63,qs),
(255,92,o),
(255,174,qs),
(255,442,l),
(347,440,ls),
(375,440,o),
(391,454,qs),
(397,459,o),
(402,473,o),
(402,484,o),
(400,490,qs),
(394,514,o),
(359,514,qs),
(255,511,l),
(255,638,ls),
(255,721,o),
(281,762,qs),
(294,782,o),
(328,800,o),
(369,800,o),
(388,780,qs),
(399,770,o),
(420,734,o),
(433,693,o),
(441,686,o),
(448,686,qs),
(462,686,o),
(462,703,qs),
(462,845,l),
(406,858,o),
(312,858,o),
(271,842,qs),
(140,789,o),
(140,557,qs),
(140,512,l),
(133,513,o),
(125,513,qs),
(95,514,ls),
(87,514,o),
(62,514,o),
(44,492,o),
(44,465,o),
(54,454,qs),
(59,448,o),
(79,440,o),
(108,439,o),
(140,440,q),
(140,174,ls),
(140,138,o),
(137,112,qs),
(128,40,o),
(88,40,q),
(64,43,l),
(56,43,o),
(45,30,o),
(45,22,qs),
(45,-7,o),
(95,-7,qs),
(105,-7,o)
);
}
);
userData = {
assembly = "NPUSHB[ ]	/* 30 values pushed */
1 0 61 60 59 58 54 52 46 44 39 38 33 31 28 27 22 18 13 11 7 6 5 4 0 73 1 73 13 8
CALL[ ]	/* CallFunction */
NPUSHB[ ]	/* 62 values pushed */
29 1 7 5 23 1 3 4 2 33 0 6 7 4 7 6 4 53 0 7 7 5 1 0 39 0 5 5 14 34 9 1 3 3 4 1 0 39 8 1 4 4 15 34 11 10 2 3 1 1 0 1 0 39 12 1 0 0 13 0 35 8
PUSHB[ ]	/* 1 value pushed */
59
CALL[ ]	/* CallFunction */";
};
width = 417;
},
{
layerId = "6B1252CF-E426-46DC-A9C6-391C8BFD5F20";
shapes = (
{
closed = 1;
nodes = (
(267,7,qs),
(288,10,o),
(322,12,qs),
(360,14,ls),
(380,15,o),
(395,15,qs),
(410,15,o),
(446,13,o),
(482,11,o),
(498,10,qs),
(534,6,ls),
(553,4,o),
(575,2,o),
(606,0,o),
(674,0,o),
(734,28,o),
(734,45,qs),
(734,74,o),
(702,74,q),
(634,66,l),
(563,66,o),
(541,112,qs),
(530,135,o),
(510,208,o),
(510,348,qs),
(510,934,l),
(701,930,ls),
(819,930,o),
(819,977,qs),
(819,993,o),
(777,1019,o),
(704,1018,o),
(646,1016,qs),
(510,1013,l),
(510,1288,ls),
(510,1458,o),
(564,1553,qs),
(589,1597,o),
(658,1641,o),
(740,1644,o),
(786,1594,qs),
(809,1569,o),
(853,1488,o),
(881,1404,o),
(895,1390,o),
(906,1390,qs),
(929,1390,o),
(929,1421,qs),
(929,1704,l),
(814,1730,o),
(631,1730,o),
(550,1697,qs),
(285,1590,o),
(285,1124,qs),
(285,1015,l),
(231,1019,o),
(182,1019,qs),
(91,1019,o),
(91,977,qs),
(91,930,o),
(189,930,qs),
(235,930,ls),
(259,930,o),
(285,931,q),
(285,348,ls),
(285,199,o),
(255,118,qs),
(235,66,o),
(176,66,q),
(127,73,l),
(94,73,o),
(94,45,qs),
(94,0,o),
(189,0,qs),
(219,0,o)
);
}
);
width = 855;
}
);
note = f;
unicode = 102;
},
{
glyphname = g;
kernLeft = g;
kernRight = g;
lastChange = "2025-07-10 17:01:01 +0000";
layers = (
{
layerId = m01;
shapes = (
{
closed = 1;
nodes = (
(113,-38,qs),
(55,-73,o),
(55,-125,qs),
(55,-179,o),
(112,-213,qs),
(179,-252,o),
(313,-252,qs),
(443,-252,o),
(521,-208,qs),
(596,-164,o),
(596,-93,qs),
(596,-32,o),
(540,1,qs),
(510,19,o),
(415,42,o),
(253,52,o),
(214,65,qs),
(195,72,o),
(195,87,qs),
(195,99,o),
(218,109,qs),
(229,114,o),
(267,121,o),
(299,121,o),
(310,121,o),
(316,120,q),
(422,123,o),
(490,186,qs),
(558,248,o),
(558,341,qs),
(558,412,o),
(499,458,q),
(556,460,o),
(620,493,o),
(620,518,qs),
(620,528,o),
(606,544,o),
(576,544,o),
(557,532,qs),
(539,521,ls),
(501,497,o),
(434,496,q),
(384,514,o),
(329,514,qs),
(209,514,o),
(136,459,qs),
(101,433,o),
(62,359,o),
(62,288,o),
(68,264,qs),
(91,184,o),
(177,145,q),
(138,131,o),
(97,85,o),
(97,62,qs),
(97,14,o),
(162,-16,q),
(133,-25,o)
);
},
{
closed = 1;
nodes = (
(186,388,qs),
(211,440,o),
(297,440,qs),
(358,440,o),
(396,404,qs),
(442,361,o),
(442,280,qs),
(442,189,o),
(326,189,qs),
(176,189,o),
(176,345,qs),
(176,370,o)
);
},
{
closed = 1;
nodes = (
(202,-50,o),
(240,-39,q),
(387,-44,o),
(453,-73,qs),
(482,-85,o),
(505,-115,o),
(505,-143,o),
(489,-164,o),
(436,-185,o),
(353,-185,qs),
(163,-185,o),
(163,-109,qs),
(163,-89,o)
);
}
);
userData = {
assembly = "NPUSHB[ ]	/* 26 values pushed */
80 79 73 71 67 65 61 59 51 49 42 41 34 32 31 30 25 24 20 19 16 15 14 12 12 8
CALL[ ]	/* CallFunction */
NPUSHB[ ]	/* 75 values pushed */
5 1 4 8 0 1 11 6 2 33 0 2 0 2 55 0 3 1 9 1 3 9 53 0 8 5 1 4 6 8 4 1 0 41 0 6 0 11 10 6 11 1 0 41 0 1 1 15 34 0 9 9 0 1 0 39 0 0 0 15 34 0 10 10 7 1 2 39 0 7 7 17 7 35 10
PUSHB[ ]	/* 1 value pushed */
59
CALL[ ]	/* CallFunction */";
};
width = 618;
},
{
layerId = "6B1252CF-E426-46DC-A9C6-391C8BFD5F20";
shapes = (
{
closed = 1;
nodes = (
(286,-102,qs),
(155,-175,o),
(155,-280,qs),
(155,-386,o),
(274,-452,qs),
(413,-530,o),
(682,-530,qs),
(950,-530,o),
(1106,-442,qs),
(1181,-400,o),
(1261,-283,o),
(1261,-156,o),
(1234,-109,qs),
(1151,35,o),
(749,64,qs),
(419,85,o),
(419,162,qs),
(419,175,o),
(436,186,qs),
(497,224,o),
(671,224,qs),
(890,224,o),
(1031,348,qs),
(1169,469,o),
(1175,658,qs),
(1179,821,o),
(1045,929,q),
(1166,931,o),
(1299,996,o),
(1299,1093,o),
(1246,1093,qs),
(1212,1093,o),
(1166,1062,qs),
(1148,1050,o),
(1128,1039,qs),
(1057,999,o),
(926,996,q),
(829,1032,o),
(596,1032,o),
(498,1002,qs),
(302,943,o),
(221,790,qs),
(151,659,o),
(190,516,qs),
(238,345,o),
(421,269,q),
(379,256,o),
(347,237,qs),
(250,179,o),
(250,101,qs),
(250,1,o),
(390,-59,q),
(330,-77,o)
);
},
{
closed = 1;
nodes = (
(397,606,o),
(402,802,o),
(540,940,o),
(640,940,qs),
(767,940,o),
(855,842,qs),
(899,792,o),
(952,643,o),
(945,428,o),
(880,368,qs),
(849,340,o),
(766,313,o),
(646,313,o),
(527,365,o),
(442,463,o)
);
},
{
closed = 1;
nodes = (
(456,-359,qs),
(408,-338,o),
(363,-280,o),
(363,-224,o),
(374,-202,qs),
(412,-133,o),
(531,-99,q),
(582,-109,o),
(701,-117,qs),
(792,-123,o),
(888,-142,qs),
(1138,-193,o),
(1138,-285,qs),
(1138,-404,o),
(764,-404,qs),
(559,-404,o)
);
}
);
width = 1364;
}
);
note = g;
unicode = 103;
},
{
glyphname = h;
kernLeft = h;
kernRight = n;
lastChange = "2025-07-10 17:01:01 +0000";
layers = (
{
layerId = m01;
shapes = (
{
closed = 1;
nodes = (
(366,22,qs),
(366,30,o),
(355,43,o),
(347,43,q),
(323,40,l),
(309,40,o),
(288,47,o),
(268,86,o),
(268,167,qs),
(268,347,l),
(296,383,o),
(333,406,qs),
(351,417,o),
(392,431,o),
(444,431,o),
(484,408,o),
(514,359,o),
(514,306,qs),
(514,167,ls),
(514,92,o),
(495,40,o),
(466,40,q),
(440,43,l),
(431,43,o),
(421,30,o),
(421,18,o),
(423,13,qs),
(431,-7,o),
(473,-7,q),
(576,0,l),
(592,0,o),
(648,-6,qs),
(693,-11,o),
(711,3,qs),
(716,8,o),
(720,18,o),
(720,30,o),
(711,43,o),
(703,43,q),
(677,40,l),
(665,40,o),
(647,49,o),
(629,89,o),
(629,167,qs),
(629,334,ls),
(629,382,o),
(617,417,qs),
(581,514,o),
(458,514,qs),
(349,514,o),
(268,427,q),
(268,781,ls),
(268,824,o),
(263,835,qs),
(260,841,o),
(248,845,o),
(229,845,o),
(216,842,qs),
(186,839,ls),
(174,838,o),
(146,838,o),
(114,841,qs),
(94,843,ls),
(84,844,o),
(58,844,o),
(42,828,o),
(42,821,qs),
(42,800,o),
(78,797,qs),
(96,795,o),
(128,783,o),
(152,742,o),
(152,660,qs),
(152,167,ls),
(152,95,o),
(140,67,qs),
(128,40,o),
(101,40,q),
(77,43,l),
(68,43,o),
(58,30,o),
(58,11,o),
(67,3,qs),
(73,-1,o),
(92,-7,o),
(118,-7,o),
(178,0,o),
(209,0,q),
(314,-7,l),
(366,-7,o)
);
}
);
userData = {
assembly = "NPUSHB[ ]	/* 38 values pushed */
2 0 86 85 84 83 75 74 68 67 66 65 61 58 51 50 49 48 41 39 33 32 29 28 25 24 12 11 10 9 4 3 0 89 2 89 17 8
CALL[ ]	/* CallFunction */
NPUSHB[ ]	/* 50 values pushed */
79 38 2 2 13 1 33 6 5 2 4 4 14 34 0 13 13 7 1 0 39 0 7 7 15 34 15 14 12 11 9 8 3 7 2 2 0 1 2 39 10 1 16 3 0 0 13 0 35 6
PUSHB[ ]	/* 1 value pushed */
59
CALL[ ]	/* CallFunction */";
};
width = 749;
},
{
layerId = "6B1252CF-E426-46DC-A9C6-391C8BFD5F20";
shapes = (
{
closed = 1;
nodes = (
(297,7,qs),
(318,10,o),
(352,12,qs),
(390,14,ls),
(410,15,o),
(425,15,qs),
(440,15,o),
(476,13,o),
(512,11,o),
(528,10,qs),
(559,6,ls),
(574,5,o),
(609,0,o),
(638,0,qs),
(737,0,o),
(737,45,qs),
(737,73,o),
(705,73,q),
(656,66,l),
(593,66,o),
(571,112,qs),
(560,135,o),
(540,208,o),
(540,348,qs),
(540,744,l),
(597,819,o),
(670,863,qs),
(708,886,o),
(793,914,o),
(903,914,o),
(944,888,qs),
(1048,820,o),
(1048,636,qs),
(1048,348,ls),
(1048,261,o),
(1044,207,qs),
(1035,66,o),
(945,66,q),
(893,73,l),
(860,73,o),
(860,45,qs),
(860,0,o),
(960,0,qs),
(989,0,o),
(1032,6,qs),
(1051,8,o),
(1068,10,qs),
(1139,16,ls),
(1195,21,o),
(1301,6,qs),
(1340,0,o),
(1366,0,qs),
(1457,0,o),
(1457,46,qs),
(1457,73,o),
(1426,73,q),
(1374,66,l),
(1353,66,o),
(1310,91,o),
(1293,136,o),
(1273,216,o),
(1273,348,qs),
(1273,674,ls),
(1273,822,o),
(1208,912,qs),
(1123,1032,o),
(929,1032,qs),
(706,1032,o),
(540,849,q),
(540,1580,ls),
(540,1663,o),
(530,1684,qs),
(524,1696,o),
(501,1703,o),
(468,1703,o),
(387,1689,o),
(330,1689,qs),
(290,1689,o),
(233,1695,qs),
(192,1699,ls),
(171,1701,o),
(120,1701,o),
(92,1682,o),
(92,1670,qs),
(92,1642,o),
(144,1637,qs),
(234,1629,o),
(269,1589,qs),
(315,1531,o),
(315,1333,qs),
(315,348,ls),
(315,199,o),
(285,118,qs),
(265,66,o),
(206,66,q),
(157,73,l),
(124,73,o),
(124,45,qs),
(124,0,o),
(219,0,qs),
(249,0,o)
);
}
);
width = 1532;
}
);
metricRight = n;
note = h;
unicode = 104;
},
{
glyphname = i;
kernLeft = i;
kernRight = i;
lastChange = "2025-07-10 17:01:01 +0000";
layers = (
{
layerId = m01;
shapes = (
{
closed = 1;
nodes = (
(267,663,o),
(267,708,o),
(249,729,qs),
(240,740,o),
(212,753,o),
(161,753,o),
(140,731,qs),
(130,721,o),
(119,693,o),
(119,646,o),
(136,626,qs),
(145,615,o),
(173,602,o),
(209,602,o),
(237,615,o),
(257,636,o)
);
},
{
closed = 1;
nodes = (
(359,22,qs),
(359,30,o),
(349,43,o),
(341,43,q),
(317,40,l),
(302,40,o),
(282,50,o),
(262,92,o),
(262,174,qs),
(262,438,ls),
(262,478,o),
(250,493,qs),
(243,500,o),
(223,500,q),
(149,495,l),
(78,500,l),
(60,500,o),
(52,491,qs),
(49,487,o),
(46,479,o),
(46,465,o),
(65,456,o),
(91,448,o),
(118,438,o),
(130,421,o),
(134,413,qs),
(146,387,o),
(146,318,qs),
(146,174,ls),
(146,138,o),
(143,112,qs),
(135,40,o),
(95,40,q),
(71,43,l),
(62,43,o),
(52,30,o),
(52,11,o),
(61,3,qs),
(67,-1,o),
(86,-7,o),
(112,-7,o),
(172,0,o),
(203,0,q),
(308,-7,l),
(359,-7,o)
);
}
);
userData = {
assembly = "NPUSHB[ ]	/* 26 values pushed */
18 16 57 56 55 54 47 46 44 43 28 27 26 25 20 19 16 60 18 60 10 9 2 1 11 8
CALL[ ]	/* CallFunction */
MPPEM[ ]	/* MeasurePixelPerEm */
PUSHB[ ]	/* 1 value pushed */
11
LT[ ]	/* LessThan */
IF[ ]	/* If */
NPUSHB[ ]	/* 41 values pushed */
45 1 4 6 1 33 0 1 0 0 6 1 0 1 0 41 7 1 6 6 15 34 9 8 5 3 4 4 2 1 2 39 3 10 2 2 2 13 2 35 5
ELSE[ ]	/* Else */
MPPEM[ ]	/* MeasurePixelPerEm */
PUSHB[ ]	/* 1 value pushed */
21
LT[ ]	/* LessThan */
IF[ ]	/* If */
NPUSHB[ ]	/* 43 values pushed */
45 1 4 6 1 33 0 0 0 1 1 0 39 0 1 1 12 34 7 1 6 6 15 34 9 8 5 3 4 4 2 1 2 39 3 10 2 2 2 13 2 35 6
ELSE[ ]	/* Else */
NPUSHB[ ]	/* 41 values pushed */
45 1 4 6 1 33 0 1 0 0 6 1 0 1 0 41 7 1 6 6 15 34 9 8 5 3 4 4 2 1 2 39 3 10 2 2 2 13 2 35 5
EIF[ ]	/* EndIf */
EIF[ ]	/* EndIf */
PUSHB[ ]	/* 1 value pushed */
59
CALL[ ]	/* CallFunction */";
};
width = 389;
},
{
layerId = "6B1252CF-E426-46DC-A9C6-391C8BFD5F20";
shapes = (
{
closed = 1;
nodes = (
(570,1339,o),
(570,1429,o),
(535,1470,qs),
(517,1492,o),
(463,1518,o),
(361,1518,o),
(320,1475,qs),
(300,1455,o),
(279,1400,o),
(279,1308,o),
(312,1268,qs),
(330,1247,o),
(385,1221,o),
(457,1221,o),
(511,1246,o),
(549,1287,o)
);
},
{
closed = 1;
nodes = (
(316,7,qs),
(337,10,o),
(372,12,qs),
(410,14,ls),
(429,15,o),
(444,15,qs),
(459,15,o),
(495,13,o),
(531,11,o),
(547,10,qs),
(578,6,ls),
(593,5,o),
(628,0,o),
(657,0,qs),
(756,0,o),
(756,45,qs),
(756,73,o),
(724,73,q),
(675,66,l),
(612,66,o),
(590,112,qs),
(579,135,o),
(559,208,o),
(559,348,qs),
(559,887,ls),
(559,964,o),
(538,990,qs),
(529,1003,o),
(501,1009,o),
(465,1009,o),
(446,1007,qs),
(372,999,ls),
(354,997,o),
(335,997,q),
(190,1009,l),
(130,1009,o),
(130,970,qs),
(130,955,o),
(160,942,o),
(213,935,o),
(270,918,o),
(290,892,qs),
(334,834,o),
(334,639,qs),
(334,348,ls),
(334,199,o),
(304,118,qs),
(284,66,o),
(225,66,q),
(176,73,l),
(143,73,o),
(143,45,qs),
(143,0,o),
(238,0,qs),
(268,0,o)
);
}
);
width = 855;
}
);
metricLeft = n;
note = i;
unicode = 105;
},
{
glyphname = j;
kernLeft = j;
kernRight = j;
lastChange = "2025-07-10 17:01:01 +0000";
layers = (
{
layerId = m01;
shapes = (
{
closed = 1;
nodes = (
(290,663,o),
(290,708,o),
(271,729,qs),
(263,740,o),
(235,753,o),
(183,753,o),
(162,731,qs),
(152,721,o),
(141,693,o),
(141,646,o),
(158,626,qs),
(167,615,o),
(195,602,o),
(232,602,o),
(260,615,o),
(279,636,o)
);
},
{
closed = 1;
nodes = (
(16,-252,o),
(59,-252,qs),
(162,-252,o),
(219,-183,qs),
(283,-105,o),
(283,51,qs),
(283,438,ls),
(283,479,o),
(275,493,qs),
(271,500,o),
(252,500,q),
(170,495,l),
(151,495,o),
(127,498,qs),
(119,499,o),
(105,500,o),
(81,500,o),
(72,491,qs),
(69,487,o),
(66,479,o),
(66,465,o),
(85,456,o),
(136,441,o),
(145,429,qs),
(166,397,o),
(166,311,qs),
(166,51,ls),
(166,-93,o),
(142,-147,qs),
(131,-173,o),
(100,-189,o),
(58,-189,o),
(34,-170,qs),
(18,-158,o),
(-1,-117,qs),
(-13,-95,o),
(-27,-95,qs),
(-40,-95,o),
(-40,-110,qs),
(-40,-238,l)
);
}
);
userData = {
assembly = "NPUSHB[ ]	/* 16 values pushed */
54 52 45 42 39 38 24 23 19 17 10 9 2 1 7 8
CALL[ ]	/* CallFunction */
MPPEM[ ]	/* MeasurePixelPerEm */
PUSHB[ ]	/* 1 value pushed */
11
LT[ ]	/* LessThan */
IF[ ]	/* If */
NPUSHB[ ]	/* 44 values pushed */
55 1 6 3 1 33 0 2 4 3 4 2 3 53 0 1 0 0 4 1 0 1 0 41 5 1 4 4 15 34 0 3 3 6 1 2 39 0 6 6 17 6 35 6
ELSE[ ]	/* Else */
MPPEM[ ]	/* MeasurePixelPerEm */
PUSHB[ ]	/* 1 value pushed */
21
LT[ ]	/* LessThan */
IF[ ]	/* If */
NPUSHB[ ]	/* 46 values pushed */
55 1 6 3 1 33 0 2 4 3 4 2 3 53 0 0 0 1 1 0 39 0 1 1 12 34 5 1 4 4 15 34 0 3 3 6 1 2 39 0 6 6 17 6 35 7
ELSE[ ]	/* Else */
NPUSHB[ ]	/* 44 values pushed */
55 1 6 3 1 33 0 2 4 3 4 2 3 53 0 1 0 0 4 1 0 1 0 41 5 1 4 4 15 34 0 3 3 6 1 2 39 0 6 6 17 6 35 6
EIF[ ]	/* EndIf */
EIF[ ]	/* EndIf */
PUSHB[ ]	/* 1 value pushed */
59
CALL[ ]	/* CallFunction */";
};
width = 373;
},
{
layerId = "6B1252CF-E426-46DC-A9C6-391C8BFD5F20";
shapes = (
{
closed = 1;
nodes = (
(570,1339,o),
(570,1429,o),
(535,1470,qs),
(517,1492,o),
(463,1518,o),
(361,1518,o),
(320,1475,qs),
(300,1455,o),
(279,1400,o),
(279,1308,o),
(312,1268,qs),
(330,1247,o),
(385,1221,o),
(457,1221,o),
(511,1246,o),
(549,1287,o)
);
},
{
closed = 1;
nodes = (
(22,-530,o),
(107,-530,qs),
(313,-530,o),
(428,-390,qs),
(555,-237,o),
(555,78,qs),
(555,887,ls),
(555,968,o),
(542,994,qs),
(534,1009,o),
(499,1009,q),
(331,997,l),
(186,1009,l),
(126,1009,o),
(126,970,qs),
(126,955,o),
(156,942,o),
(209,935,o),
(266,918,o),
(286,892,qs),
(330,834,o),
(330,639,qs),
(330,78,ls),
(330,-219,o),
(279,-342,qs),
(255,-400,o),
(191,-444,o),
(106,-444,o),
(23,-359,o),
(-20,-265,qs),
(-39,-222,o),
(-68,-222,qs),
(-89,-222,o),
(-89,-248,qs),
(-89,-504,l)
);
}
);
width = 855;
}
);
note = j;
unicode = 106;
},
{
glyphname = k;
kernLeft = h;
kernRight = k;
lastChange = "2025-07-10 17:01:01 +0000";
layers = (
{
layerId = m01;
shapes = (
{
closed = 1;
nodes = (
(240,-1,qs),
(286,-6,ls),
(332,-11,o),
(349,3,qs),
(354,8,o),
(359,18,o),
(359,30,o),
(349,43,o),
(341,43,q),
(315,40,l),
(292,40,o),
(268,94,o),
(268,157,qs),
(268,244,l),
(369,140,l),
(439,70,ls),
(468,42,o),
(503,12,o),
(529,-4,o),
(547,-4,q),
(606,0,ls),
(612,0,o),
(630,-1,o),
(650,-3,o),
(670,-4,o),
(701,-4,o),
(712,7,qs),
(716,11,o),
(720,22,o),
(720,29,o),
(719,34,qs),
(713,51,o),
(702,51,q),
(680,48,l),
(634,48,o),
(574,104,qs),
(387,280,l),
(488,331,o),
(588,418,qs),
(629,455,o),
(650,455,q),
(677,451,l),
(686,451,o),
(696,465,o),
(696,471,qs),
(696,502,o),
(652,502,qs),
(629,502,o),
(591,495,o),
(542,495,o),
(487,502,o),
(433,502,o),
(421,491,qs),
(417,486,o),
(413,476,o),
(413,465,o),
(423,451,o),
(431,451,q),
(460,455,l),
(497,455,o),
(497,413,o),
(426,367,qs),
(355,322,o),
(268,292,q),
(268,781,ls),
(268,824,o),
(262,836,qs),
(257,845,o),
(237,845,q),
(162,838,l),
(146,838,o),
(115,841,qs),
(104,842,o),
(84,844,o),
(58,844,o),
(42,828,o),
(42,821,qs),
(42,800,o),
(78,797,qs),
(97,795,o),
(129,782,o),
(152,742,o),
(152,658,qs),
(152,167,ls),
(152,132,o),
(149,107,qs),
(141,40,o),
(103,40,q),
(77,43,l),
(68,43,o),
(58,30,o),
(58,18,o),
(60,13,qs),
(68,-7,o),
(110,-7,q),
(214,0,l),
(229,0,o)
);
}
);
userData = {
assembly = "NPUSHB[ ]	/* 46 values pushed */
2 0 88 87 86 85 77 76 75 74 71 70 64 63 62 61 56 55 54 53 50 48 47 46 45 44 39 38 37 36 28 27 26 25 22 21 9 8 7 6 0 96 2 96 21 8
CALL[ ]	/* CallFunction */
NPUSHB[ ]	/* 55 values pushed */
82 59 32 3 1 6 1 33 5 4 2 3 3 14 34 12 11 7 3 6 6 8 1 0 39 10 9 2 8 8 15 34 19 18 14 13 2 5 1 1 0 1 2 39 17 16 15 20 4 0 0 13 0 35 6
PUSHB[ ]	/* 1 value pushed */
59
CALL[ ]	/* CallFunction */";
};
width = 696;
},
{
layerId = "6B1252CF-E426-46DC-A9C6-391C8BFD5F20";
shapes = (
{
closed = 1;
nodes = (
(318,6,qs),
(337,8,o),
(354,10,qs),
(388,12,ls),
(405,14,o),
(440,15,o),
(520,15,o),
(587,6,qs),
(626,0,o),
(652,0,qs),
(743,0,o),
(743,46,qs),
(743,73,o),
(712,73,q),
(660,66,l),
(639,66,o),
(596,91,o),
(579,136,o),
(559,216,o),
(559,348,qs),
(559,531,l),
(769,316,l),
(918,169,ls),
(980,110,o),
(1020,76,qs),
(1108,0,o),
(1159,0,q),
(1281,9,l),
(1425,0,l),
(1506,0,o),
(1506,48,qs),
(1506,59,o),
(1487,74,o),
(1473,74,q),
(1429,67,l),
(1357,67,o),
(1211,202,qs),
(796,585,l),
(1030,699,o),
(1228,876,qs),
(1313,952,o),
(1358,952,q),
(1414,945,l),
(1446,945,o),
(1446,971,qs),
(1446,1019,o),
(1363,1019,q),
(1197,1003,l),
(1153,1003,o),
(1088,1010,qs),
(1060,1013,o),
(1000,1019,o),
(970,1019,qs),
(884,1019,o),
(884,971,qs),
(884,945,o),
(915,945,q),
(974,952,l),
(1053,952,o),
(1053,907,qs),
(1053,875,o),
(978,814,qs),
(787,661,o),
(559,588,q),
(559,1580,ls),
(559,1663,o),
(549,1684,qs),
(543,1696,o),
(520,1703,o),
(487,1703,o),
(406,1689,o),
(349,1689,qs),
(309,1689,o),
(252,1695,qs),
(210,1699,ls),
(190,1701,o),
(139,1701,o),
(111,1682,o),
(111,1670,qs),
(111,1642,o),
(163,1637,qs),
(253,1629,o),
(288,1589,qs),
(334,1533,o),
(334,1330,qs),
(334,348,ls),
(334,184,o),
(304,118,qs),
(280,66,o),
(228,66,q),
(176,73,l),
(143,73,o),
(143,45,qs),
(143,0,o),
(243,0,qs),
(275,0,o)
);
}
);
width = 1533;
}
);
metricLeft = h;
note = k;
unicode = 107;
},
{
glyphname = l;
kernLeft = l;
kernRight = l;
lastChange = "2025-07-10 17:01:01 +0000";
layers = (
{
layerId = m01;
shapes = (
{
closed = 1;
nodes = (
(286,49,o),
(268,89,o),
(268,167,qs),
(268,781,ls),
(268,822,o),
(260,836,qs),
(256,845,o),
(237,845,q),
(162,838,l),
(145,838,o),
(113,841,qs),
(93,843,ls),
(84,844,o),
(57,844,o),
(42,828,o),
(42,821,qs),
(42,800,o),
(78,797,qs),
(96,795,o),
(129,782,o),
(152,742,o),
(152,658,qs),
(152,167,ls),
(152,91,o),
(143,66,qs),
(133,40,o),
(104,40,q),
(78,43,l),
(70,43,o),
(60,30,o),
(60,11,o),
(69,3,qs),
(75,-1,o),
(95,-7,o),
(127,-7,o),
(183,0,o),
(229,0,o),
(241,-1,qs),
(286,-6,ls),
(332,-11,o),
(349,3,qs),
(355,8,o),
(359,18,o),
(359,30,o),
(349,43,o),
(341,43,q),
(316,40,l),
(303,40,o)
);
}
);
userData = {
assembly = "NPUSHB[ ]	/* 24 values pushed */
0 0 0 47 0 47 40 39 38 37 34 33 21 20 19 18 13 12 11 10 2 1 10 8
CALL[ ]	/* CallFunction */
NPUSHB[ ]	/* 26 values pushed */
7 6 2 5 5 14 34 9 8 4 3 4 0 0 1 1 0 39 2 1 1 1 13 1 35 3
PUSHB[ ]	/* 1 value pushed */
59
CALL[ ]	/* CallFunction */";
};
width = 390;
},
{
layerId = "6B1252CF-E426-46DC-A9C6-391C8BFD5F20";
shapes = (
{
closed = 1;
nodes = (
(318,6,qs),
(337,8,o),
(354,10,qs),
(388,12,ls),
(405,14,o),
(440,15,o),
(520,15,o),
(587,6,qs),
(626,0,o),
(652,0,qs),
(743,0,o),
(743,46,qs),
(743,73,o),
(712,73,q),
(660,66,l),
(639,66,o),
(596,91,o),
(579,136,o),
(559,216,o),
(559,348,qs),
(559,1580,ls),
(559,1663,o),
(549,1684,qs),
(543,1696,o),
(520,1703,o),
(487,1703,o),
(406,1689,o),
(349,1689,qs),
(309,1689,o),
(252,1695,qs),
(210,1699,ls),
(190,1701,o),
(139,1701,o),
(111,1682,o),
(111,1670,qs),
(111,1642,o),
(163,1637,qs),
(253,1629,o),
(288,1589,qs),
(334,1533,o),
(334,1330,qs),
(334,348,ls),
(334,261,o),
(330,207,qs),
(321,66,o),
(231,66,q),
(179,73,l),
(146,73,o),
(146,45,qs),
(146,0,o),
(246,0,qs),
(275,0,o)
);
}
);
width = 855;
}
);
metricLeft = h;
note = l;
unicode = 108;
},
